SplineFontDB: 3.2
FontName: Porsoville-It
FullName: Porsoville It
FamilyName: Porsoville
Weight: Regular
Copyright: Copyright (c) 2012, Pablo Impallari (www.impallari.com|impallari@gmail.com), \nCopyright (c) 2012, Rodrigo Fuenzalida (www.rfuenzalida.com|hello :rfuenzalida.com)\nCopyright (c) 2016--2019, Michael Sharpe (msharpe@ucsd.edu)\nCopyright (c) 2025, Ioannes Bracledius (ioannesbracledius@gmail.com).
Version: 1.000
ItalicAngle: -15
UnderlinePosition: -104
UnderlineWidth: 50
Ascent: 800
Descent: 200
InvalidEm: 0
sfntRevision: 0x00010000
LayerCount: 2
Layer: 0 0 "Atr+AOEA-s" 1
Layer: 1 0 "Anterior" 0
XUID: [1021 18 461060207 2755096]
StyleMap: 0x0001
FSType: 0
OS2Version: 3
OS2_WeightWidthSlopeOnly: 0
OS2_UseTypoMetrics: 0
CreationTime: 1354221960
ModificationTime: 1763349125
PfmFamily: 17
TTFWeight: 400
TTFWidth: 5
LineGap: 0
VLineGap: 0
Panose: 2 0 0 0 0 0 0 0 0 0
OS2TypoAscent: 970
OS2TypoAOffset: 0
OS2TypoDescent: -270
OS2TypoDOffset: 0
OS2TypoLinegap: 0
OS2WinAscent: 970
OS2WinAOffset: 0
OS2WinDescent: 270
OS2WinDOffset: 0
HheadAscent: 970
HheadAOffset: 0
HheadDescent: -270
HheadDOffset: 0
OS2SubXSize: 700
OS2SubYSize: 650
OS2SubXOff: 0
OS2SubYOff: 140
OS2SupXSize: 700
OS2SupYSize: 650
OS2SupXOff: 0
OS2SupYOff: 477
OS2StrikeYSize: 50
OS2StrikeYPos: 250
OS2CapHeight: 770
OS2XHeight: 602
OS2Vendor: 'pyrs'
OS2CodePages: 00000093.00000000
OS2UnicodeRanges: a00000bf.5000005b.00000000.00000000
Lookup: 1 0 0 "'smcp' Lowercase to Small Capitals in Latin lookup 0" { "'smcp' Lowercase to Small Capitals in Latin lookup 0 subtable"  } ['smcp' ('DFLT' <'dflt' > 'latn' <'dflt' > ) ]
Lookup: 1 0 0 "'c2sc' Capitals to Small Capitals in Latin lookup 1" { "'c2sc' Capitals to Small Capitals in Latin lookup 1 subtable"  } ['c2sc' ('DFLT' <'dflt' > 'latn' <'dflt' > ) ]
Lookup: 4 0 1 "'liga' Standard Ligatures in Latin lookup 2" { "'liga' Standard Ligatures in Latin lookup 2 subtable"  } ['liga' ('latn' <'dflt' > ) ]

StartChar: .notdef
Encoding: 65536 -1 0
Width: 682
GlyphClass: 1
Flags: MW
HStem: -235 55<217 465 217 565> 822 54<217 465 217 217>
VStem: 117 100<-180 -180 -180 822> 465 100<-180 822 822 822>
LayerCount: 2
Fore
SplineSet
117 876 m 1
 565 876 l 1
 565 -235 l 1
 117 -235 l 1
 117 876 l 1
217 -180 m 1
 465 -180 l 1
 465 822 l 1
 217 822 l 1
 217 -180 l 1
EndSplineSet
Validated: 1
EndChar

StartChar: Q
Encoding: 81 81 1
Width: 859
GlyphClass: 2
Flags: W
HStem: -217 72<539.825 647.117> -26 18<332.128 362.31 403.31 443.706> 686 18<491.057 602.382>
LayerCount: 2
Fore
SplineSet
403.309570312 -26 m 1
 403.309570312 -27 525.309570312 -145 618.309570312 -145 c 0
 663.309570312 -145 695.309570312 -129 727.309570312 -65 c 1
 742.309570312 -65 l 1
 741.309570312 -76 739.309570312 -91 736.309570312 -103 c 0
 725.309570312 -149 644.309570312 -217 571.309570312 -217 c 0
 516.309570312 -217 474.309570312 -204 368.309570312 -120 c 0
 350.309570312 -107 329.309570312 -105 308.309570312 -105 c 0
 254.309570312 -105 229.309570312 -170 192.309570312 -170 c 0
 177.309570312 -170 170.309570312 -162 173.309570312 -147 c 0
 176.309570312 -136 177.309570312 -132 186.309570312 -126 c 0
 200.309570312 -111 218.309570312 -105 240.309570312 -93 c 2
 362.309570312 -26 l 1
 261.309570312 -22 198.309570312 24 158.309570312 85 c 0
 119.309570312 143 100.309570312 231 125.309570312 339 c 0
 173.309570312 549 362.309570312 704 551.309570312 704 c 0
 743.309570312 704 855.309570312 547 808.309570312 341 c 0
 779.309570312 217 706.309570312 128 629.309570312 66 c 0
 535.309570312 -10 482.309570312 -11 405.309570312 -26 c 1
 403.309570312 -26 l 1
547.309570312 686 m 0
 398.309570312 686 272.309570312 512 232.309570312 339 c 0
 190.309570312 157 224.309570312 -8 387.309570312 -8 c 0
 542.309570312 -8 662.309570312 165 702.309570312 339 c 0
 744.309570312 519 707.309570312 686 547.309570312 686 c 0
EndSplineSet
Validated: 524321
Substitution2: "'sups' Superscript in Latin lookup 8 subtable" Q.superior
Substitution2: "'c2sc' Capitals to Small Capitals in Latin lookup 1 subtable" q.sc
PairPos2: "'kern' Horizontal Kerning in Latin lookup 0 per glyph data 2" W.ss01 dx=0 dy=0 dh=-33 dv=0 dx=0 dy=0 dh=0 dv=0
PairPos2: "'kern' Horizontal Kerning in Latin lookup 0 per glyph data 2" V.ss01 dx=0 dy=0 dh=-37 dv=0 dx=0 dy=0 dh=0 dv=0
PairPos2: "'kern' Horizontal Kerning in Latin lookup 0 per glyph data 2" A.ss01 dx=0 dy=0 dh=-23 dv=0 dx=0 dy=0 dh=0 dv=0
PairPos2: "'kern' Horizontal Kerning in Latin lookup 0 per glyph data 2" trademark dx=0 dy=0 dh=-19 dv=0 dx=0 dy=0 dh=0 dv=0
PairPos2: "'kern' Horizontal Kerning in Latin lookup 0 per glyph data 2" servicemark dx=0 dy=0 dh=-7 dv=0 dx=0 dy=0 dh=0 dv=0
PairPos2: "'kern' Horizontal Kerning in Latin lookup 0 per glyph data 2" quotedblbase dx=0 dy=0 dh=21 dv=0 dx=0 dy=0 dh=0 dv=0
PairPos2: "'kern' Horizontal Kerning in Latin lookup 0 per glyph data 2" quotesinglbase dx=0 dy=0 dh=21 dv=0 dx=0 dy=0 dh=0 dv=0
PairPos2: "'kern' Horizontal Kerning in Latin lookup 0 per glyph data 2" schwa dx=0 dy=0 dh=-5 dv=0 dx=0 dy=0 dh=0 dv=0
PairPos2: "'kern' Horizontal Kerning in Latin lookup 0 per glyph data 2" dotlessj dx=0 dy=0 dh=126 dv=0 dx=0 dy=0 dh=0 dv=0
PairPos2: "'kern' Horizontal Kerning in Latin lookup 0 per glyph data 2" lslash dx=0 dy=0 dh=-14 dv=0 dx=0 dy=0 dh=0 dv=0
PairPos2: "'kern' Horizontal Kerning in Latin lookup 0 per glyph data 2" jcircumflex dx=0 dy=0 dh=126 dv=0 dx=0 dy=0 dh=0 dv=0
PairPos2: "'kern' Horizontal Kerning in Latin lookup 0 per glyph data 2" gcommaaccent dx=0 dy=0 dh=47 dv=0 dx=0 dy=0 dh=0 dv=0
PairPos2: "'kern' Horizontal Kerning in Latin lookup 0 per glyph data 2" gdotaccent dx=0 dy=0 dh=47 dv=0 dx=0 dy=0 dh=0 dv=0
PairPos2: "'kern' Horizontal Kerning in Latin lookup 0 per glyph data 2" gbreve dx=0 dy=0 dh=47 dv=0 dx=0 dy=0 dh=0 dv=0
PairPos2: "'kern' Horizontal Kerning in Latin lookup 0 per glyph data 2" gcircumflex dx=0 dy=0 dh=47 dv=0 dx=0 dy=0 dh=0 dv=0
PairPos2: "'kern' Horizontal Kerning in Latin lookup 0 per glyph data 2" eth dx=0 dy=0 dh=-5 dv=0 dx=0 dy=0 dh=0 dv=0
PairPos2: "'kern' Horizontal Kerning in Latin lookup 0 per glyph data 2" ordmasculine dx=0 dy=0 dh=-10 dv=0 dx=0 dy=0 dh=0 dv=0
PairPos2: "'kern' Horizontal Kerning in Latin lookup 0 per glyph data 2" ordfeminine dx=0 dy=0 dh=-7 dv=0 dx=0 dy=0 dh=0 dv=0
PairPos2: "'kern' Horizontal Kerning in Latin lookup 0 per glyph data 2" braceright dx=0 dy=0 dh=51 dv=0 dx=0 dy=0 dh=0 dv=0
PairPos2: "'kern' Horizontal Kerning in Latin lookup 0 per glyph data 2" q dx=0 dy=0 dh=-5 dv=0 dx=0 dy=0 dh=0 dv=0
PairPos2: "'kern' Horizontal Kerning in Latin lookup 0 per glyph data 2" j dx=0 dy=0 dh=126 dv=0 dx=0 dy=0 dh=0 dv=0
PairPos2: "'kern' Horizontal Kerning in Latin lookup 0 per glyph data 2" g dx=0 dy=0 dh=47 dv=0 dx=0 dy=0 dh=0 dv=0
PairPos2: "'kern' Horizontal Kerning in Latin lookup 0 per glyph data 2" b dx=0 dy=0 dh=-8 dv=0 dx=0 dy=0 dh=0 dv=0
PairPos2: "'kern' Horizontal Kerning in Latin lookup 0 per glyph data 2" bracketright dx=0 dy=0 dh=68 dv=0 dx=0 dy=0 dh=0 dv=0
PairPos2: "'kern' Horizontal Kerning in Latin lookup 0 per glyph data 2" X dx=0 dy=0 dh=-31 dv=0 dx=0 dy=0 dh=0 dv=0
PairPos2: "'kern' Horizontal Kerning in Latin lookup 0 per glyph data 2" V dx=0 dy=0 dh=-24 dv=0 dx=0 dy=0 dh=0 dv=0
PairPos2: "'kern' Horizontal Kerning in Latin lookup 0 per glyph data 2" M dx=0 dy=0 dh=-11 dv=0 dx=0 dy=0 dh=0 dv=0
PairPos2: "'kern' Horizontal Kerning in Latin lookup 0 per glyph data 2" seven dx=0 dy=0 dh=-9 dv=0 dx=0 dy=0 dh=0 dv=0
PairPos2: "'kern' Horizontal Kerning in Latin lookup 0 per glyph data 2" one dx=0 dy=0 dh=-9 dv=0 dx=0 dy=0 dh=0 dv=0
PairPos2: "'kern' Horizontal Kerning in Latin lookup 0 per glyph data 2" comma dx=0 dy=0 dh=1 dv=0 dx=0 dy=0 dh=0 dv=0
PairPos2: "'kern' Horizontal Kerning in Latin lookup 0 per glyph data 2" parenright dx=0 dy=0 dh=63 dv=0 dx=0 dy=0 dh=0 dv=0
EndChar

StartChar: exclam
Encoding: 33 33 3
Width: 286
GlyphClass: 2
Flags: MW
HStem: -9 114<100 114.5> 684 20G<216.5 235.5>
VStem: 51 114<39.5 54> 116 32<187 187> 160 117<598 648>
LayerCount: 2
Fore
SplineSet
116 187 m 1xd8
 160 598 l 2
 165 637 172 664 181 680 c 0
 192 696 206 704 227 704 c 0
 244 704 256 699 265 688 c 0
 272 678 277 660 277 636 c 0
 277 624 276 614 274 603 c 0
 271 591 269 579 264 565 c 0
 260 551 253 534 246 514 c 0
 239 496 230 473 219 446 c 0
 211 425 203 402 195 379 c 0
 188 356 180 333 175 310 c 0
 168 287 163 265 159 244 c 0
 154 222 151 203 148 187 c 1
 116 187 l 1xd8
107 -9 m 0
 92 -9 80 -4 69 6 c 0
 57 16 51 30 51 46 c 0
 51 62 57 76 68 88 c 0
 79 100 92 105 108 105 c 0
 124 105 138 100 149 88 c 0
 160 76 165 62 165 47 c 0xe0
 165 32 160 18 148 7 c 0
 136 -4 122 -9 107 -9 c 0
EndSplineSet
Validated: 1
Substitution2: "'salt' Stylistic Alternatives lookup 14 subtable" exclam.up
Substitution2: "'c2sc' Capitals to Small Capitals in Latin lookup 1 subtable" exclam.sc
Substitution2: "'smcp' Lowercase to Small Capitals in Latin lookup 0 subtable" exclam.sc
EndChar

StartChar: quotedbl
Encoding: 34 34 4
Width: 324
GlyphClass: 2
Flags: MW
HStem: 509 240<139 221 139 221 207 302 207 276>
VStem: 157 91 294 91
LayerCount: 2
Fore
SplineSet
139 509 m 1
 144 545 147 577 149 607 c 0
 151 637 153 662 157 683 c 0
 162 704 168 720 176 732 c 0
 184 744 198 749 216 749 c 0
 226 749 234 746 240 740 c 0
 245 735 248 728 248 718 c 0
 248 714 245 705 240 691 c 0
 235 677 227 661 220 641 c 0
 211 621 202 599 193 576 c 0
 183 553 173 531 165 509 c 1
 139 509 l 1
276 509 m 1
 281 545 284 577 286 607 c 0
 288 637 290 662 294 683 c 0
 299 704 305 720 313 732 c 0
 321 744 335 749 353 749 c 0
 363 749 371 746 377 740 c 0
 382 735 385 728 385 718 c 0
 385 714 382 705 377 691 c 0
 372 677 364 661 357 641 c 0
 348 621 339 599 330 576 c 0
 319 553 310 531 302 509 c 1
 276 509 l 1
EndSplineSet
Validated: 1
Substitution2: "'c2sc' Capitals to Small Capitals in Latin lookup 1 subtable" quotedbl.sc
Substitution2: "'smcp' Lowercase to Small Capitals in Latin lookup 0 subtable" quotedbl.sc
EndChar

StartChar: numbersign
Encoding: 35 35 5
Width: 604
GlyphClass: 2
Flags: MW
HStem: 0 21G<147 201 147 147 340 394 340 340> 230 45<62 181 55 190 245 372 436 552> 429 45<90 212 83 220 274 402 465 579> 675 20G<252 306 306 306 441 496 496 496>
VStem: 147 54<0 0> 252 54<695 695> 340 54<0 0> 441 55<695 695>
LayerCount: 2
Fore
SplineSet
552 230 m 1
 427 230 l 1
 394 0 l 1
 340 0 l 1
 372 230 l 1
 236 230 l 1
 201 0 l 1
 147 0 l 1
 181 230 l 1
 55 230 l 1
 62 275 l 1
 190 275 l 1
 212 429 l 1
 83 429 l 1
 90 474 l 1
 220 474 l 1
 252 695 l 1
 306 695 l 1
 274 474 l 1
 411 474 l 1
 441 695 l 1
 496 695 l 1
 465 474 l 1
 586 474 l 1
 579 429 l 1
 457 429 l 1
 436 275 l 1
 560 275 l 1
 552 230 l 1
266 429 m 1
 245 275 l 1
 381 275 l 1
 402 429 l 1
 266 429 l 1
EndSplineSet
Validated: 1
Substitution2: "'c2sc' Capitals to Small Capitals in Latin lookup 1 subtable" numbersign.sc
Substitution2: "'smcp' Lowercase to Small Capitals in Latin lookup 0 subtable" numbersign.sc
EndChar

StartChar: dollar
Encoding: 36 36 6
Width: 527
GlyphClass: 2
Flags: MW
HStem: -9 22<203 203 203 212 198 203> 682 22
VStem: 20 77<137.5 149.5 113.5 153> 119 89<529 530.5> 138 30<-132 -132> 359 30<781 781> 374 80<123 223> 433 73<578 595 566 605.5>
LayerCount: 2
Fore
SplineSet
169 -3 m 1xea
 149 2 120 9 103 19 c 0
 86 29 72 39 60 52 c 0
 47 66 37 81 31 96 c 0
 24 112 20 129 20 146 c 0
 20 160 22 173 27 186 c 0
 32 199 38 209 47 220 c 0
 54 230 64 238 74 244 c 0
 85 249 95 252 107 252 c 0
 125 252 140 244 152 230 c 1
 135 224 121 212 112 195 c 0
 101 179 97 160 97 139 c 0
 97 88 98 35 175 18 c 1
 248 323 l 1
 190 369 119 416 119 518 c 0
 119 543 124 566 135 589 c 0
 146 612 161 631 180 648 c 0
 199 665 221 678 246 688 c 0
 272 698 310 703 340 704 c 1
 359 781 l 1
 389 781 l 1
 369 700 l 1
 407 694 448 680 471 658 c 0
 494 636 506 611 506 579 c 0
 506 553 498 530 482 514 c 0
 467 499 446 491 421 491 c 0
 411 491 402 493 397 496 c 0
 392 499 388 504 384 510 c 1
 398 515 409 524 419 538 c 0
 429 552 433 569 433 587 c 0xf5
 433 624 425 667 364 681 c 1
 347 601 321 494 301 414 c 1
 339 387 372 368 402 334 c 0
 415 318 432 300 440 280 c 0
 449 259 454 236 454 210 c 0
 454 180 448 151 435 125 c 0
 421 99 405 76 383 56 c 0
 360 36 335 20 305 9 c 0
 276 -4 245 -9 212 -9 c 2
 198 -9 l 1
 168 -132 l 1
 138 -132 l 1
 169 -3 l 1xea
374 167 m 0xe2
 374 196 365 221 348 243 c 0
 331 265 297 285 273 304 c 1
 203 13 l 1
 308 17 374 79 374 167 c 0xe2
208 553 m 0xf0
 208 505 216 459 274 428 c 1
 290 497 320 613 335 682 c 1
 255 680 208 615 208 553 c 0xf0
EndSplineSet
Validated: 1
Substitution2: "'c2sc' Capitals to Small Capitals in Latin lookup 1 subtable" dollar.sc
Substitution2: "'smcp' Lowercase to Small Capitals in Latin lookup 0 subtable" dollar.sc
EndChar

StartChar: percent
Encoding: 37 37 7
Width: 616
GlyphClass: 2
Flags: MW
HStem: -9 23<399.5 413.5> 0 21G<12 72 12 12> 253 23<461 477> 420 23<180.5 195.5> 675 20G<574 626 626 626> 681 24<242.5 258>
VStem: 12 60<0 0> 109 49<501.5 504.5 476.5 527.5> 280 49<623.5 627 601.5 651> 328 48<73.5 75.5 47.5 99.5> 498 50<194.5 198 172.5 222> 574 52<695 695>
LayerCount: 2
Fore
SplineSet
72 0 m 1x7b30
 12 0 l 1
 574 695 l 1
 626 695 l 1
 72 0 l 1x7b30
187 420 m 0
 164 420 145 429 131 446 c 0
 117 464 109 487 109 516 c 0
 109 539 114 563 121 585 c 0
 130 608 140 628 153 646 c 0
 167 663 182 678 199 689 c 0
 216 700 234 705 251 705 c 0
 274 705 294 697 308 680 c 0
 322 663 329 641 329 613 c 0x37b0
 329 590 325 566 317 543 c 0
 309 520 297 500 283 482 c 0
 270 463 254 449 238 437 c 0
 220 425 204 420 187 420 c 0
247 681 m 0
 237 681 227 676 216 664 c 0
 205 652 195 638 187 620 c 0
 179 602 171 583 166 560 c 0
 161 537 158 516 158 493 c 0
 158 460 169 443 192 443 c 0
 202 443 213 448 224 460 c 0
 234 472 244 486 252 505 c 0
 260 523 268 544 273 567 c 0
 278 589 280 612 280 635 c 0
 280 667 269 681 247 681 c 0
405 -9 m 0xb370
 382 -9 363 0 349 18 c 0
 335 35 328 59 328 88 c 0
 328 111 332 134 339 157 c 0
 348 179 359 200 372 217 c 0
 386 235 401 249 418 260 c 0
 435 271 452 276 469 276 c 0
 492 276 512 268 526 251 c 0
 540 234 548 212 548 184 c 0
 548 161 543 139 535 116 c 0
 527 93 516 71 502 52 c 0
 489 34 473 20 457 8 c 0
 439 -4 422 -9 405 -9 c 0xb370
466 253 m 0
 456 253 445 248 434 236 c 0
 423 224 413 209 405 191 c 0
 397 173 390 154 385 131 c 0
 380 108 376 87 376 64 c 0
 376 31 388 14 411 14 c 0
 421 14 431 20 442 32 c 0
 452 44 462 58 470 76 c 0
 478 95 486 115 491 137 c 0
 496 160 498 183 498 206 c 0
 498 238 488 253 466 253 c 0
EndSplineSet
Validated: 1
Substitution2: "'c2sc' Capitals to Small Capitals in Latin lookup 1 subtable" percent.sc
Substitution2: "'smcp' Lowercase to Small Capitals in Latin lookup 0 subtable" percent.sc
EndChar

StartChar: ampersand
Encoding: 38 38 8
Width: 804
GlyphClass: 2
Flags: MW
HStem: -9 81 231 48<453 475 453 500> 455 39<482 645> 548 21G 635 49<703.5 721 668 732.5> 642 62<338.5 379.5>
VStem: 53 42<223 310 223 316> 186 38<540 550 534.5 590.5> 375 39<326.5 369.5 326.5 371.5> 443 30<548 634.5> 489 80<294 305.5> 607 75 654 45<248.5 296 248.5 328.5>
LayerCount: 2
Fore
SplineSet
206 469 m 1xfbe8
 196 488 186 526 186 554 c 0
 186 627 231 673 285 693 c 0
 305 700 327 704 350 704 c 0
 419 704 473 667 473 602 c 0
 473 577 464 553 443 548 c 1
 443 589 419 642 340 642 c 0
 284 642 225 627 224 550 c 0
 224 519 241 475 275 467 c 0
 289 464 301 458 311 453 c 0
 332 444 348 435 348 408 c 0
 348 379 333 366 305 366 c 0
 280 366 266 381 253 392 c 0
 247 399 239 405 232 410 c 0
 225 415 216 420 205 420 c 0
 184 420 154 414 136 396 c 0
 115 375 95 326 95 294 c 0
 95 152 249 72 376 72 c 0
 498 72 654 94 654 290 c 0xf7e8
 654 367 585 455 510 455 c 0
 454 455 414 396 414 343 c 0
 414 310 438 279 468 279 c 0
 482 279 489 287 489 301 c 0
 489 310 487 320 487 329 c 0
 487 350 503 365 523 365 c 0
 549 365 569 336 569 309 c 0
 569 261 524 231 476 231 c 0
 413 231 375 283 375 347 c 0
 375 396 398 427 424 453 c 0
 454 478 497 494 551 494 c 2
 645 494 l 2
 708 494 779 501 775 577 c 0
 773 622 747 635 718 635 c 0
 689 635 695 599 682 583 c 0
 678 577 668 573 653 573 c 0
 625 573 607 591 607 619 c 0xfbf0
 607 663 645 684 691 684 c 0
 751 684 807 664 807 564 c 0
 807 477 678 456 598 457 c 1
 598 457 636 427 655 403 c 0
 680 373 699 324 699 268 c 0
 699 229 689 193 673 160 c 0
 620 63 549 -8 369 -9 c 0
 275 -10 196 24 144 69 c 0
 94 112 53 175 53 261 c 0
 53 371 117 446 206 469 c 1xfbe8
EndSplineSet
Validated: 33
Substitution2: "'c2sc' Capitals to Small Capitals in Latin lookup 1 subtable" ampersand.sc
Substitution2: "'smcp' Lowercase to Small Capitals in Latin lookup 0 subtable" ampersand.sc
PairPos2: "'kern' Horizontal Kerning in Latin lookup 0 per glyph data 2" A.ss01 dx=0 dy=0 dh=-13 dv=0 dx=0 dy=0 dh=0 dv=0
PairPos2: "'kern' Horizontal Kerning in Latin lookup 0 per glyph data 2" Ytilde dx=0 dy=0 dh=-16 dv=0 dx=0 dy=0 dh=0 dv=0
PairPos2: "'kern' Horizontal Kerning in Latin lookup 0 per glyph data 2" Ygrave dx=0 dy=0 dh=-16 dv=0 dx=0 dy=0 dh=0 dv=0
PairPos2: "'kern' Horizontal Kerning in Latin lookup 0 per glyph data 2" Wdieresis dx=0 dy=0 dh=-17 dv=0 dx=0 dy=0 dh=0 dv=0
PairPos2: "'kern' Horizontal Kerning in Latin lookup 0 per glyph data 2" Wacute dx=0 dy=0 dh=-17 dv=0 dx=0 dy=0 dh=0 dv=0
PairPos2: "'kern' Horizontal Kerning in Latin lookup 0 per glyph data 2" Wgrave dx=0 dy=0 dh=-17 dv=0 dx=0 dy=0 dh=0 dv=0
PairPos2: "'kern' Horizontal Kerning in Latin lookup 0 per glyph data 2" AEacute dx=0 dy=0 dh=-19 dv=0 dx=0 dy=0 dh=0 dv=0
PairPos2: "'kern' Horizontal Kerning in Latin lookup 0 per glyph data 2" Aringacute dx=0 dy=0 dh=-22 dv=0 dx=0 dy=0 dh=0 dv=0
PairPos2: "'kern' Horizontal Kerning in Latin lookup 0 per glyph data 2" Ydieresis dx=0 dy=0 dh=-16 dv=0 dx=0 dy=0 dh=0 dv=0
PairPos2: "'kern' Horizontal Kerning in Latin lookup 0 per glyph data 2" Ycircumflex dx=0 dy=0 dh=-16 dv=0 dx=0 dy=0 dh=0 dv=0
PairPos2: "'kern' Horizontal Kerning in Latin lookup 0 per glyph data 2" Wcircumflex dx=0 dy=0 dh=-17 dv=0 dx=0 dy=0 dh=0 dv=0
PairPos2: "'kern' Horizontal Kerning in Latin lookup 0 per glyph data 2" Aogonek dx=0 dy=0 dh=-22 dv=0 dx=0 dy=0 dh=0 dv=0
PairPos2: "'kern' Horizontal Kerning in Latin lookup 0 per glyph data 2" Abreve dx=0 dy=0 dh=-22 dv=0 dx=0 dy=0 dh=0 dv=0
PairPos2: "'kern' Horizontal Kerning in Latin lookup 0 per glyph data 2" Amacron dx=0 dy=0 dh=-22 dv=0 dx=0 dy=0 dh=0 dv=0
PairPos2: "'kern' Horizontal Kerning in Latin lookup 0 per glyph data 2" Yacute dx=0 dy=0 dh=-16 dv=0 dx=0 dy=0 dh=0 dv=0
PairPos2: "'kern' Horizontal Kerning in Latin lookup 0 per glyph data 2" AE dx=0 dy=0 dh=-19 dv=0 dx=0 dy=0 dh=0 dv=0
PairPos2: "'kern' Horizontal Kerning in Latin lookup 0 per glyph data 2" Aring dx=0 dy=0 dh=-22 dv=0 dx=0 dy=0 dh=0 dv=0
PairPos2: "'kern' Horizontal Kerning in Latin lookup 0 per glyph data 2" Adieresis dx=0 dy=0 dh=-22 dv=0 dx=0 dy=0 dh=0 dv=0
PairPos2: "'kern' Horizontal Kerning in Latin lookup 0 per glyph data 2" Atilde dx=0 dy=0 dh=-22 dv=0 dx=0 dy=0 dh=0 dv=0
PairPos2: "'kern' Horizontal Kerning in Latin lookup 0 per glyph data 2" Acircumflex dx=0 dy=0 dh=-22 dv=0 dx=0 dy=0 dh=0 dv=0
PairPos2: "'kern' Horizontal Kerning in Latin lookup 0 per glyph data 2" Aacute dx=0 dy=0 dh=-22 dv=0 dx=0 dy=0 dh=0 dv=0
PairPos2: "'kern' Horizontal Kerning in Latin lookup 0 per glyph data 2" Agrave dx=0 dy=0 dh=-22 dv=0 dx=0 dy=0 dh=0 dv=0
PairPos2: "'kern' Horizontal Kerning in Latin lookup 0 per glyph data 2" Y dx=0 dy=0 dh=-16 dv=0 dx=0 dy=0 dh=0 dv=0
PairPos2: "'kern' Horizontal Kerning in Latin lookup 0 per glyph data 2" W dx=0 dy=0 dh=-17 dv=0 dx=0 dy=0 dh=0 dv=0
PairPos2: "'kern' Horizontal Kerning in Latin lookup 0 per glyph data 2" V dx=0 dy=0 dh=-18 dv=0 dx=0 dy=0 dh=0 dv=0
PairPos2: "'kern' Horizontal Kerning in Latin lookup 0 per glyph data 2" A dx=0 dy=0 dh=-22 dv=0 dx=0 dy=0 dh=0 dv=0
EndChar

StartChar: quotesingle
Encoding: 39 39 9
Width: 186
GlyphClass: 2
Flags: MW
HStem: 509 240<139 221 139 221>
VStem: 157 91
LayerCount: 2
Fore
SplineSet
139 509 m 1
 144 545 147 577 149 607 c 0
 151 637 153 662 157 683 c 0
 162 704 168 720 176 732 c 0
 184 744 198 749 216 749 c 0
 226 749 234 746 240 740 c 0
 245 735 248 728 248 718 c 0
 248 714 245 705 240 691 c 0
 235 677 227 661 220 641 c 0
 211 621 202 599 193 576 c 0
 183 553 173 531 165 509 c 1
 139 509 l 1
EndSplineSet
Validated: 1
Substitution2: "'c2sc' Capitals to Small Capitals in Latin lookup 1 subtable" quotesingle.sc
Substitution2: "'smcp' Lowercase to Small Capitals in Latin lookup 0 subtable" quotesingle.sc
EndChar

StartChar: parenleft
Encoding: 40 40 10
Width: 304
GlyphClass: 2
Flags: MW
HStem: 716 20G<390 390>
VStem: 29 81<93 123 68 204>
LayerCount: 2
Fore
SplineSet
400 725 m 1
 349 674 306 624 269 576 c 0
 233 527 203 478 179 428 c 0
 156 377 138 324 126 269 c 0
 115 215 110 155 110 91 c 0
 110 45 115 3 126 -36 c 0
 138 -75 156 -113 179 -150 c 1
 160 -164 l 1
 83 -64 29 35 29 151 c 0
 29 257 60 360 119 462 c 0
 179 565 277 647 390 736 c 1
 400 725 l 1
EndSplineSet
Validated: 1
Substitution2: "'salt' Stylistic Alternatives lookup 14 subtable" parenleft.up
Substitution2: "'c2sc' Capitals to Small Capitals in Latin lookup 1 subtable" parenleft.sc
Substitution2: "'smcp' Lowercase to Small Capitals in Latin lookup 0 subtable" parenleft.sc
PairPos2: "'kern' Horizontal Kerning in Latin lookup 0 per glyph data 2" s_p dx=0 dy=0 dh=-14 dv=0 dx=0 dy=0 dh=0 dv=0
PairPos2: "'kern' Horizontal Kerning in Latin lookup 0 per glyph data 2" c_t dx=0 dy=0 dh=-19 dv=0 dx=0 dy=0 dh=0 dv=0
PairPos2: "'kern' Horizontal Kerning in Latin lookup 0 per glyph data 2" f_f_t dx=0 dy=0 dh=72 dv=0 dx=0 dy=0 dh=0 dv=0
PairPos2: "'kern' Horizontal Kerning in Latin lookup 0 per glyph data 2" f_t dx=0 dy=0 dh=72 dv=0 dx=0 dy=0 dh=0 dv=0
PairPos2: "'kern' Horizontal Kerning in Latin lookup 0 per glyph data 2" f_f_j dx=0 dy=0 dh=72 dv=0 dx=0 dy=0 dh=0 dv=0
PairPos2: "'kern' Horizontal Kerning in Latin lookup 0 per glyph data 2" f_j dx=0 dy=0 dh=72 dv=0 dx=0 dy=0 dh=0 dv=0
PairPos2: "'kern' Horizontal Kerning in Latin lookup 0 per glyph data 2" f_f_k dx=0 dy=0 dh=72 dv=0 dx=0 dy=0 dh=0 dv=0
PairPos2: "'kern' Horizontal Kerning in Latin lookup 0 per glyph data 2" f_k dx=0 dy=0 dh=72 dv=0 dx=0 dy=0 dh=0 dv=0
PairPos2: "'kern' Horizontal Kerning in Latin lookup 0 per glyph data 2" f_f_h dx=0 dy=0 dh=72 dv=0 dx=0 dy=0 dh=0 dv=0
PairPos2: "'kern' Horizontal Kerning in Latin lookup 0 per glyph data 2" f_h dx=0 dy=0 dh=72 dv=0 dx=0 dy=0 dh=0 dv=0
PairPos2: "'kern' Horizontal Kerning in Latin lookup 0 per glyph data 2" f_f_b dx=0 dy=0 dh=72 dv=0 dx=0 dy=0 dh=0 dv=0
PairPos2: "'kern' Horizontal Kerning in Latin lookup 0 per glyph data 2" f_b dx=0 dy=0 dh=72 dv=0 dx=0 dy=0 dh=0 dv=0
PairPos2: "'kern' Horizontal Kerning in Latin lookup 0 per glyph data 2" A.ss01 dx=0 dy=0 dh=-10 dv=0 dx=0 dy=0 dh=0 dv=0
PairPos2: "'kern' Horizontal Kerning in Latin lookup 0 per glyph data 2" s_t dx=0 dy=0 dh=-14 dv=0 dx=0 dy=0 dh=0 dv=0
PairPos2: "'kern' Horizontal Kerning in Latin lookup 0 per glyph data 2" f_f_l dx=0 dy=0 dh=72 dv=0 dx=0 dy=0 dh=0 dv=0
PairPos2: "'kern' Horizontal Kerning in Latin lookup 0 per glyph data 2" f_f_i dx=0 dy=0 dh=72 dv=0 dx=0 dy=0 dh=0 dv=0
PairPos2: "'kern' Horizontal Kerning in Latin lookup 0 per glyph data 2" f_l dx=0 dy=0 dh=72 dv=0 dx=0 dy=0 dh=0 dv=0
PairPos2: "'kern' Horizontal Kerning in Latin lookup 0 per glyph data 2" f_i dx=0 dy=0 dh=72 dv=0 dx=0 dy=0 dh=0 dv=0
PairPos2: "'kern' Horizontal Kerning in Latin lookup 0 per glyph data 2" f_f dx=0 dy=0 dh=72 dv=0 dx=0 dy=0 dh=0 dv=0
PairPos2: "'kern' Horizontal Kerning in Latin lookup 0 per glyph data 2" Ytilde dx=0 dy=0 dh=7 dv=0 dx=0 dy=0 dh=0 dv=0
PairPos2: "'kern' Horizontal Kerning in Latin lookup 0 per glyph data 2" Ygrave dx=0 dy=0 dh=7 dv=0 dx=0 dy=0 dh=0 dv=0
PairPos2: "'kern' Horizontal Kerning in Latin lookup 0 per glyph data 2" udotbelow dx=0 dy=0 dh=-14 dv=0 dx=0 dy=0 dh=0 dv=0
PairPos2: "'kern' Horizontal Kerning in Latin lookup 0 per glyph data 2" odotbelow dx=0 dy=0 dh=-19 dv=0 dx=0 dy=0 dh=0 dv=0
PairPos2: "'kern' Horizontal Kerning in Latin lookup 0 per glyph data 2" Odotbelow dx=0 dy=0 dh=-20 dv=0 dx=0 dy=0 dh=0 dv=0
PairPos2: "'kern' Horizontal Kerning in Latin lookup 0 per glyph data 2" etilde dx=0 dy=0 dh=-19 dv=0 dx=0 dy=0 dh=0 dv=0
PairPos2: "'kern' Horizontal Kerning in Latin lookup 0 per glyph data 2" edotbelow dx=0 dy=0 dh=-19 dv=0 dx=0 dy=0 dh=0 dv=0
PairPos2: "'kern' Horizontal Kerning in Latin lookup 0 per glyph data 2" zdotbelow dx=0 dy=0 dh=-9 dv=0 dx=0 dy=0 dh=0 dv=0
PairPos2: "'kern' Horizontal Kerning in Latin lookup 0 per glyph data 2" wdieresis dx=0 dy=0 dh=-12 dv=0 dx=0 dy=0 dh=0 dv=0
PairPos2: "'kern' Horizontal Kerning in Latin lookup 0 per glyph data 2" wacute dx=0 dy=0 dh=-12 dv=0 dx=0 dy=0 dh=0 dv=0
PairPos2: "'kern' Horizontal Kerning in Latin lookup 0 per glyph data 2" wgrave dx=0 dy=0 dh=-12 dv=0 dx=0 dy=0 dh=0 dv=0
PairPos2: "'kern' Horizontal Kerning in Latin lookup 0 per glyph data 2" sdotbelow dx=0 dy=0 dh=-14 dv=0 dx=0 dy=0 dh=0 dv=0
PairPos2: "'kern' Horizontal Kerning in Latin lookup 0 per glyph data 2" rdotbelow dx=0 dy=0 dh=-14 dv=0 dx=0 dy=0 dh=0 dv=0
PairPos2: "'kern' Horizontal Kerning in Latin lookup 0 per glyph data 2" ndotaccent dx=0 dy=0 dh=-13 dv=0 dx=0 dy=0 dh=0 dv=0
PairPos2: "'kern' Horizontal Kerning in Latin lookup 0 per glyph data 2" hdotbelow dx=0 dy=0 dh=14 dv=0 dx=0 dy=0 dh=0 dv=0
PairPos2: "'kern' Horizontal Kerning in Latin lookup 0 per glyph data 2" ddotbelow dx=0 dy=0 dh=-19 dv=0 dx=0 dy=0 dh=0 dv=0
PairPos2: "'kern' Horizontal Kerning in Latin lookup 0 per glyph data 2" schwa dx=0 dy=0 dh=-13 dv=0 dx=0 dy=0 dh=0 dv=0
PairPos2: "'kern' Horizontal Kerning in Latin lookup 0 per glyph data 2" dotlessj dx=0 dy=0 dh=70 dv=0 dx=0 dy=0 dh=0 dv=0
PairPos2: "'kern' Horizontal Kerning in Latin lookup 0 per glyph data 2" uni0219 dx=0 dy=0 dh=-14 dv=0 dx=0 dy=0 dh=0 dv=0
PairPos2: "'kern' Horizontal Kerning in Latin lookup 0 per glyph data 2" oslashacute dx=0 dy=0 dh=-19 dv=0 dx=0 dy=0 dh=0 dv=0
PairPos2: "'kern' Horizontal Kerning in Latin lookup 0 per glyph data 2" Oslashacute dx=0 dy=0 dh=-20 dv=0 dx=0 dy=0 dh=0 dv=0
PairPos2: "'kern' Horizontal Kerning in Latin lookup 0 per glyph data 2" aeacute dx=0 dy=0 dh=-19 dv=0 dx=0 dy=0 dh=0 dv=0
PairPos2: "'kern' Horizontal Kerning in Latin lookup 0 per glyph data 2" AEacute dx=0 dy=0 dh=-12 dv=0 dx=0 dy=0 dh=0 dv=0
PairPos2: "'kern' Horizontal Kerning in Latin lookup 0 per glyph data 2" aringacute dx=0 dy=0 dh=-19 dv=0 dx=0 dy=0 dh=0 dv=0
PairPos2: "'kern' Horizontal Kerning in Latin lookup 0 per glyph data 2" uni01F3 dx=0 dy=0 dh=-19 dv=0 dx=0 dy=0 dh=0 dv=0
PairPos2: "'kern' Horizontal Kerning in Latin lookup 0 per glyph data 2" uni01C6 dx=0 dy=0 dh=-19 dv=0 dx=0 dy=0 dh=0 dv=0
PairPos2: "'kern' Horizontal Kerning in Latin lookup 0 per glyph data 2" Schwa dx=0 dy=0 dh=-10 dv=0 dx=0 dy=0 dh=0 dv=0
PairPos2: "'kern' Horizontal Kerning in Latin lookup 0 per glyph data 2" zcaron dx=0 dy=0 dh=-9 dv=0 dx=0 dy=0 dh=0 dv=0
PairPos2: "'kern' Horizontal Kerning in Latin lookup 0 per glyph data 2" zdotaccent dx=0 dy=0 dh=-9 dv=0 dx=0 dy=0 dh=0 dv=0
PairPos2: "'kern' Horizontal Kerning in Latin lookup 0 per glyph data 2" zacute dx=0 dy=0 dh=-9 dv=0 dx=0 dy=0 dh=0 dv=0
PairPos2: "'kern' Horizontal Kerning in Latin lookup 0 per glyph data 2" Ydieresis dx=0 dy=0 dh=7 dv=0 dx=0 dy=0 dh=0 dv=0
PairPos2: "'kern' Horizontal Kerning in Latin lookup 0 per glyph data 2" Ycircumflex dx=0 dy=0 dh=7 dv=0 dx=0 dy=0 dh=0 dv=0
PairPos2: "'kern' Horizontal Kerning in Latin lookup 0 per glyph data 2" wcircumflex dx=0 dy=0 dh=-12 dv=0 dx=0 dy=0 dh=0 dv=0
PairPos2: "'kern' Horizontal Kerning in Latin lookup 0 per glyph data 2" uogonek dx=0 dy=0 dh=-14 dv=0 dx=0 dy=0 dh=0 dv=0
PairPos2: "'kern' Horizontal Kerning in Latin lookup 0 per glyph data 2" uhungarumlaut dx=0 dy=0 dh=-14 dv=0 dx=0 dy=0 dh=0 dv=0
PairPos2: "'kern' Horizontal Kerning in Latin lookup 0 per glyph data 2" uring dx=0 dy=0 dh=-14 dv=0 dx=0 dy=0 dh=0 dv=0
PairPos2: "'kern' Horizontal Kerning in Latin lookup 0 per glyph data 2" ubreve dx=0 dy=0 dh=-14 dv=0 dx=0 dy=0 dh=0 dv=0
PairPos2: "'kern' Horizontal Kerning in Latin lookup 0 per glyph data 2" umacron dx=0 dy=0 dh=-14 dv=0 dx=0 dy=0 dh=0 dv=0
PairPos2: "'kern' Horizontal Kerning in Latin lookup 0 per glyph data 2" utilde dx=0 dy=0 dh=-14 dv=0 dx=0 dy=0 dh=0 dv=0
PairPos2: "'kern' Horizontal Kerning in Latin lookup 0 per glyph data 2" scaron dx=0 dy=0 dh=-14 dv=0 dx=0 dy=0 dh=0 dv=0
PairPos2: "'kern' Horizontal Kerning in Latin lookup 0 per glyph data 2" uni015F dx=0 dy=0 dh=-14 dv=0 dx=0 dy=0 dh=0 dv=0
PairPos2: "'kern' Horizontal Kerning in Latin lookup 0 per glyph data 2" scircumflex dx=0 dy=0 dh=-14 dv=0 dx=0 dy=0 dh=0 dv=0
PairPos2: "'kern' Horizontal Kerning in Latin lookup 0 per glyph data 2" sacute dx=0 dy=0 dh=-14 dv=0 dx=0 dy=0 dh=0 dv=0
PairPos2: "'kern' Horizontal Kerning in Latin lookup 0 per glyph data 2" rcaron dx=0 dy=0 dh=-14 dv=0 dx=0 dy=0 dh=0 dv=0
PairPos2: "'kern' Horizontal Kerning in Latin lookup 0 per glyph data 2" rcommaaccent dx=0 dy=0 dh=-14 dv=0 dx=0 dy=0 dh=0 dv=0
PairPos2: "'kern' Horizontal Kerning in Latin lookup 0 per glyph data 2" racute dx=0 dy=0 dh=-14 dv=0 dx=0 dy=0 dh=0 dv=0
PairPos2: "'kern' Horizontal Kerning in Latin lookup 0 per glyph data 2" oe dx=0 dy=0 dh=-19 dv=0 dx=0 dy=0 dh=0 dv=0
PairPos2: "'kern' Horizontal Kerning in Latin lookup 0 per glyph data 2" OE dx=0 dy=0 dh=-20 dv=0 dx=0 dy=0 dh=0 dv=0
PairPos2: "'kern' Horizontal Kerning in Latin lookup 0 per glyph data 2" ohungarumlaut dx=0 dy=0 dh=-19 dv=0 dx=0 dy=0 dh=0 dv=0
PairPos2: "'kern' Horizontal Kerning in Latin lookup 0 per glyph data 2" Ohungarumlaut dx=0 dy=0 dh=-20 dv=0 dx=0 dy=0 dh=0 dv=0
PairPos2: "'kern' Horizontal Kerning in Latin lookup 0 per glyph data 2" obreve dx=0 dy=0 dh=-19 dv=0 dx=0 dy=0 dh=0 dv=0
PairPos2: "'kern' Horizontal Kerning in Latin lookup 0 per glyph data 2" Obreve dx=0 dy=0 dh=-20 dv=0 dx=0 dy=0 dh=0 dv=0
PairPos2: "'kern' Horizontal Kerning in Latin lookup 0 per glyph data 2" omacron dx=0 dy=0 dh=-19 dv=0 dx=0 dy=0 dh=0 dv=0
PairPos2: "'kern' Horizontal Kerning in Latin lookup 0 per glyph data 2" Omacron dx=0 dy=0 dh=-20 dv=0 dx=0 dy=0 dh=0 dv=0
PairPos2: "'kern' Horizontal Kerning in Latin lookup 0 per glyph data 2" eng dx=0 dy=0 dh=-13 dv=0 dx=0 dy=0 dh=0 dv=0
PairPos2: "'kern' Horizontal Kerning in Latin lookup 0 per glyph data 2" ncaron dx=0 dy=0 dh=-13 dv=0 dx=0 dy=0 dh=0 dv=0
PairPos2: "'kern' Horizontal Kerning in Latin lookup 0 per glyph data 2" ncommaaccent dx=0 dy=0 dh=-13 dv=0 dx=0 dy=0 dh=0 dv=0
PairPos2: "'kern' Horizontal Kerning in Latin lookup 0 per glyph data 2" nacute dx=0 dy=0 dh=-13 dv=0 dx=0 dy=0 dh=0 dv=0
PairPos2: "'kern' Horizontal Kerning in Latin lookup 0 per glyph data 2" lslash dx=0 dy=0 dh=1 dv=0 dx=0 dy=0 dh=0 dv=0
PairPos2: "'kern' Horizontal Kerning in Latin lookup 0 per glyph data 2" ldot dx=0 dy=0 dh=8 dv=0 dx=0 dy=0 dh=0 dv=0
PairPos2: "'kern' Horizontal Kerning in Latin lookup 0 per glyph data 2" lcaron dx=0 dy=0 dh=8 dv=0 dx=0 dy=0 dh=0 dv=0
PairPos2: "'kern' Horizontal Kerning in Latin lookup 0 per glyph data 2" lcommaaccent dx=0 dy=0 dh=8 dv=0 dx=0 dy=0 dh=0 dv=0
PairPos2: "'kern' Horizontal Kerning in Latin lookup 0 per glyph data 2" lacute dx=0 dy=0 dh=8 dv=0 dx=0 dy=0 dh=0 dv=0
PairPos2: "'kern' Horizontal Kerning in Latin lookup 0 per glyph data 2" kcommaaccent dx=0 dy=0 dh=23 dv=0 dx=0 dy=0 dh=0 dv=0
PairPos2: "'kern' Horizontal Kerning in Latin lookup 0 per glyph data 2" jcircumflex dx=0 dy=0 dh=70 dv=0 dx=0 dy=0 dh=0 dv=0
PairPos2: "'kern' Horizontal Kerning in Latin lookup 0 per glyph data 2" Jcircumflex dx=0 dy=0 dh=-17 dv=0 dx=0 dy=0 dh=0 dv=0
PairPos2: "'kern' Horizontal Kerning in Latin lookup 0 per glyph data 2" hbar dx=0 dy=0 dh=14 dv=0 dx=0 dy=0 dh=0 dv=0
PairPos2: "'kern' Horizontal Kerning in Latin lookup 0 per glyph data 2" hcircumflex dx=0 dy=0 dh=14 dv=0 dx=0 dy=0 dh=0 dv=0
PairPos2: "'kern' Horizontal Kerning in Latin lookup 0 per glyph data 2" Gcommaaccent dx=0 dy=0 dh=-21 dv=0 dx=0 dy=0 dh=0 dv=0
PairPos2: "'kern' Horizontal Kerning in Latin lookup 0 per glyph data 2" Gdotaccent dx=0 dy=0 dh=-21 dv=0 dx=0 dy=0 dh=0 dv=0
PairPos2: "'kern' Horizontal Kerning in Latin lookup 0 per glyph data 2" Gbreve dx=0 dy=0 dh=-21 dv=0 dx=0 dy=0 dh=0 dv=0
PairPos2: "'kern' Horizontal Kerning in Latin lookup 0 per glyph data 2" Gcircumflex dx=0 dy=0 dh=-21 dv=0 dx=0 dy=0 dh=0 dv=0
PairPos2: "'kern' Horizontal Kerning in Latin lookup 0 per glyph data 2" ecaron dx=0 dy=0 dh=-19 dv=0 dx=0 dy=0 dh=0 dv=0
PairPos2: "'kern' Horizontal Kerning in Latin lookup 0 per glyph data 2" eogonek dx=0 dy=0 dh=-19 dv=0 dx=0 dy=0 dh=0 dv=0
PairPos2: "'kern' Horizontal Kerning in Latin lookup 0 per glyph data 2" edotaccent dx=0 dy=0 dh=-19 dv=0 dx=0 dy=0 dh=0 dv=0
PairPos2: "'kern' Horizontal Kerning in Latin lookup 0 per glyph data 2" ebreve dx=0 dy=0 dh=-19 dv=0 dx=0 dy=0 dh=0 dv=0
PairPos2: "'kern' Horizontal Kerning in Latin lookup 0 per glyph data 2" emacron dx=0 dy=0 dh=-19 dv=0 dx=0 dy=0 dh=0 dv=0
PairPos2: "'kern' Horizontal Kerning in Latin lookup 0 per glyph data 2" dcroat dx=0 dy=0 dh=-19 dv=0 dx=0 dy=0 dh=0 dv=0
PairPos2: "'kern' Horizontal Kerning in Latin lookup 0 per glyph data 2" dcaron dx=0 dy=0 dh=-19 dv=0 dx=0 dy=0 dh=0 dv=0
PairPos2: "'kern' Horizontal Kerning in Latin lookup 0 per glyph data 2" ccaron dx=0 dy=0 dh=-19 dv=0 dx=0 dy=0 dh=0 dv=0
PairPos2: "'kern' Horizontal Kerning in Latin lookup 0 per glyph data 2" Ccaron dx=0 dy=0 dh=-20 dv=0 dx=0 dy=0 dh=0 dv=0
PairPos2: "'kern' Horizontal Kerning in Latin lookup 0 per glyph data 2" cdotaccent dx=0 dy=0 dh=-19 dv=0 dx=0 dy=0 dh=0 dv=0
PairPos2: "'kern' Horizontal Kerning in Latin lookup 0 per glyph data 2" Cdotaccent dx=0 dy=0 dh=-20 dv=0 dx=0 dy=0 dh=0 dv=0
PairPos2: "'kern' Horizontal Kerning in Latin lookup 0 per glyph data 2" ccircumflex dx=0 dy=0 dh=-19 dv=0 dx=0 dy=0 dh=0 dv=0
PairPos2: "'kern' Horizontal Kerning in Latin lookup 0 per glyph data 2" Ccircumflex dx=0 dy=0 dh=-20 dv=0 dx=0 dy=0 dh=0 dv=0
PairPos2: "'kern' Horizontal Kerning in Latin lookup 0 per glyph data 2" cacute dx=0 dy=0 dh=-19 dv=0 dx=0 dy=0 dh=0 dv=0
PairPos2: "'kern' Horizontal Kerning in Latin lookup 0 per glyph data 2" Cacute dx=0 dy=0 dh=-20 dv=0 dx=0 dy=0 dh=0 dv=0
PairPos2: "'kern' Horizontal Kerning in Latin lookup 0 per glyph data 2" aogonek dx=0 dy=0 dh=-19 dv=0 dx=0 dy=0 dh=0 dv=0
PairPos2: "'kern' Horizontal Kerning in Latin lookup 0 per glyph data 2" abreve dx=0 dy=0 dh=-19 dv=0 dx=0 dy=0 dh=0 dv=0
PairPos2: "'kern' Horizontal Kerning in Latin lookup 0 per glyph data 2" amacron dx=0 dy=0 dh=-19 dv=0 dx=0 dy=0 dh=0 dv=0
PairPos2: "'kern' Horizontal Kerning in Latin lookup 0 per glyph data 2" thorn dx=0 dy=0 dh=1 dv=0 dx=0 dy=0 dh=0 dv=0
PairPos2: "'kern' Horizontal Kerning in Latin lookup 0 per glyph data 2" udieresis dx=0 dy=0 dh=-14 dv=0 dx=0 dy=0 dh=0 dv=0
PairPos2: "'kern' Horizontal Kerning in Latin lookup 0 per glyph data 2" ucircumflex dx=0 dy=0 dh=-14 dv=0 dx=0 dy=0 dh=0 dv=0
PairPos2: "'kern' Horizontal Kerning in Latin lookup 0 per glyph data 2" uacute dx=0 dy=0 dh=-14 dv=0 dx=0 dy=0 dh=0 dv=0
PairPos2: "'kern' Horizontal Kerning in Latin lookup 0 per glyph data 2" ugrave dx=0 dy=0 dh=-14 dv=0 dx=0 dy=0 dh=0 dv=0
PairPos2: "'kern' Horizontal Kerning in Latin lookup 0 per glyph data 2" oslash dx=0 dy=0 dh=-19 dv=0 dx=0 dy=0 dh=0 dv=0
PairPos2: "'kern' Horizontal Kerning in Latin lookup 0 per glyph data 2" odieresis dx=0 dy=0 dh=-19 dv=0 dx=0 dy=0 dh=0 dv=0
PairPos2: "'kern' Horizontal Kerning in Latin lookup 0 per glyph data 2" otilde dx=0 dy=0 dh=-19 dv=0 dx=0 dy=0 dh=0 dv=0
PairPos2: "'kern' Horizontal Kerning in Latin lookup 0 per glyph data 2" ocircumflex dx=0 dy=0 dh=-19 dv=0 dx=0 dy=0 dh=0 dv=0
PairPos2: "'kern' Horizontal Kerning in Latin lookup 0 per glyph data 2" oacute dx=0 dy=0 dh=-19 dv=0 dx=0 dy=0 dh=0 dv=0
PairPos2: "'kern' Horizontal Kerning in Latin lookup 0 per glyph data 2" ograve dx=0 dy=0 dh=-19 dv=0 dx=0 dy=0 dh=0 dv=0
PairPos2: "'kern' Horizontal Kerning in Latin lookup 0 per glyph data 2" ntilde dx=0 dy=0 dh=-13 dv=0 dx=0 dy=0 dh=0 dv=0
PairPos2: "'kern' Horizontal Kerning in Latin lookup 0 per glyph data 2" eth dx=0 dy=0 dh=-14 dv=0 dx=0 dy=0 dh=0 dv=0
PairPos2: "'kern' Horizontal Kerning in Latin lookup 0 per glyph data 2" edieresis dx=0 dy=0 dh=-19 dv=0 dx=0 dy=0 dh=0 dv=0
PairPos2: "'kern' Horizontal Kerning in Latin lookup 0 per glyph data 2" ecircumflex dx=0 dy=0 dh=-19 dv=0 dx=0 dy=0 dh=0 dv=0
PairPos2: "'kern' Horizontal Kerning in Latin lookup 0 per glyph data 2" eacute dx=0 dy=0 dh=-19 dv=0 dx=0 dy=0 dh=0 dv=0
PairPos2: "'kern' Horizontal Kerning in Latin lookup 0 per glyph data 2" egrave dx=0 dy=0 dh=-19 dv=0 dx=0 dy=0 dh=0 dv=0
PairPos2: "'kern' Horizontal Kerning in Latin lookup 0 per glyph data 2" ccedilla dx=0 dy=0 dh=-19 dv=0 dx=0 dy=0 dh=0 dv=0
PairPos2: "'kern' Horizontal Kerning in Latin lookup 0 per glyph data 2" ae dx=0 dy=0 dh=-19 dv=0 dx=0 dy=0 dh=0 dv=0
PairPos2: "'kern' Horizontal Kerning in Latin lookup 0 per glyph data 2" aring dx=0 dy=0 dh=-19 dv=0 dx=0 dy=0 dh=0 dv=0
PairPos2: "'kern' Horizontal Kerning in Latin lookup 0 per glyph data 2" adieresis dx=0 dy=0 dh=-19 dv=0 dx=0 dy=0 dh=0 dv=0
PairPos2: "'kern' Horizontal Kerning in Latin lookup 0 per glyph data 2" atilde dx=0 dy=0 dh=-19 dv=0 dx=0 dy=0 dh=0 dv=0
PairPos2: "'kern' Horizontal Kerning in Latin lookup 0 per glyph data 2" acircumflex dx=0 dy=0 dh=-19 dv=0 dx=0 dy=0 dh=0 dv=0
PairPos2: "'kern' Horizontal Kerning in Latin lookup 0 per glyph data 2" aacute dx=0 dy=0 dh=-19 dv=0 dx=0 dy=0 dh=0 dv=0
PairPos2: "'kern' Horizontal Kerning in Latin lookup 0 per glyph data 2" agrave dx=0 dy=0 dh=-19 dv=0 dx=0 dy=0 dh=0 dv=0
PairPos2: "'kern' Horizontal Kerning in Latin lookup 0 per glyph data 2" germandbls dx=0 dy=0 dh=103 dv=0 dx=0 dy=0 dh=0 dv=0
PairPos2: "'kern' Horizontal Kerning in Latin lookup 0 per glyph data 2" Yacute dx=0 dy=0 dh=7 dv=0 dx=0 dy=0 dh=0 dv=0
PairPos2: "'kern' Horizontal Kerning in Latin lookup 0 per glyph data 2" Oslash dx=0 dy=0 dh=-20 dv=0 dx=0 dy=0 dh=0 dv=0
PairPos2: "'kern' Horizontal Kerning in Latin lookup 0 per glyph data 2" Odieresis dx=0 dy=0 dh=-20 dv=0 dx=0 dy=0 dh=0 dv=0
PairPos2: "'kern' Horizontal Kerning in Latin lookup 0 per glyph data 2" Otilde dx=0 dy=0 dh=-20 dv=0 dx=0 dy=0 dh=0 dv=0
PairPos2: "'kern' Horizontal Kerning in Latin lookup 0 per glyph data 2" Ocircumflex dx=0 dy=0 dh=-20 dv=0 dx=0 dy=0 dh=0 dv=0
PairPos2: "'kern' Horizontal Kerning in Latin lookup 0 per glyph data 2" Oacute dx=0 dy=0 dh=-20 dv=0 dx=0 dy=0 dh=0 dv=0
PairPos2: "'kern' Horizontal Kerning in Latin lookup 0 per glyph data 2" Ograve dx=0 dy=0 dh=-20 dv=0 dx=0 dy=0 dh=0 dv=0
PairPos2: "'kern' Horizontal Kerning in Latin lookup 0 per glyph data 2" Ccedilla dx=0 dy=0 dh=-20 dv=0 dx=0 dy=0 dh=0 dv=0
PairPos2: "'kern' Horizontal Kerning in Latin lookup 0 per glyph data 2" AE dx=0 dy=0 dh=-12 dv=0 dx=0 dy=0 dh=0 dv=0
PairPos2: "'kern' Horizontal Kerning in Latin lookup 0 per glyph data 2" braceleft dx=0 dy=0 dh=-11 dv=0 dx=0 dy=0 dh=0 dv=0
PairPos2: "'kern' Horizontal Kerning in Latin lookup 0 per glyph data 2" z dx=0 dy=0 dh=-9 dv=0 dx=0 dy=0 dh=0 dv=0
PairPos2: "'kern' Horizontal Kerning in Latin lookup 0 per glyph data 2" x dx=0 dy=0 dh=-9 dv=0 dx=0 dy=0 dh=0 dv=0
PairPos2: "'kern' Horizontal Kerning in Latin lookup 0 per glyph data 2" w dx=0 dy=0 dh=-12 dv=0 dx=0 dy=0 dh=0 dv=0
PairPos2: "'kern' Horizontal Kerning in Latin lookup 0 per glyph data 2" v dx=0 dy=0 dh=-11 dv=0 dx=0 dy=0 dh=0 dv=0
PairPos2: "'kern' Horizontal Kerning in Latin lookup 0 per glyph data 2" u dx=0 dy=0 dh=-14 dv=0 dx=0 dy=0 dh=0 dv=0
PairPos2: "'kern' Horizontal Kerning in Latin lookup 0 per glyph data 2" s dx=0 dy=0 dh=-14 dv=0 dx=0 dy=0 dh=0 dv=0
PairPos2: "'kern' Horizontal Kerning in Latin lookup 0 per glyph data 2" r dx=0 dy=0 dh=-14 dv=0 dx=0 dy=0 dh=0 dv=0
PairPos2: "'kern' Horizontal Kerning in Latin lookup 0 per glyph data 2" q dx=0 dy=0 dh=-19 dv=0 dx=0 dy=0 dh=0 dv=0
PairPos2: "'kern' Horizontal Kerning in Latin lookup 0 per glyph data 2" o dx=0 dy=0 dh=-19 dv=0 dx=0 dy=0 dh=0 dv=0
PairPos2: "'kern' Horizontal Kerning in Latin lookup 0 per glyph data 2" n dx=0 dy=0 dh=-13 dv=0 dx=0 dy=0 dh=0 dv=0
PairPos2: "'kern' Horizontal Kerning in Latin lookup 0 per glyph data 2" m dx=0 dy=0 dh=-13 dv=0 dx=0 dy=0 dh=0 dv=0
PairPos2: "'kern' Horizontal Kerning in Latin lookup 0 per glyph data 2" l dx=0 dy=0 dh=8 dv=0 dx=0 dy=0 dh=0 dv=0
PairPos2: "'kern' Horizontal Kerning in Latin lookup 0 per glyph data 2" k dx=0 dy=0 dh=23 dv=0 dx=0 dy=0 dh=0 dv=0
PairPos2: "'kern' Horizontal Kerning in Latin lookup 0 per glyph data 2" j dx=0 dy=0 dh=70 dv=0 dx=0 dy=0 dh=0 dv=0
PairPos2: "'kern' Horizontal Kerning in Latin lookup 0 per glyph data 2" h dx=0 dy=0 dh=14 dv=0 dx=0 dy=0 dh=0 dv=0
PairPos2: "'kern' Horizontal Kerning in Latin lookup 0 per glyph data 2" f dx=0 dy=0 dh=72 dv=0 dx=0 dy=0 dh=0 dv=0
PairPos2: "'kern' Horizontal Kerning in Latin lookup 0 per glyph data 2" e dx=0 dy=0 dh=-19 dv=0 dx=0 dy=0 dh=0 dv=0
PairPos2: "'kern' Horizontal Kerning in Latin lookup 0 per glyph data 2" d dx=0 dy=0 dh=-19 dv=0 dx=0 dy=0 dh=0 dv=0
PairPos2: "'kern' Horizontal Kerning in Latin lookup 0 per glyph data 2" c dx=0 dy=0 dh=-19 dv=0 dx=0 dy=0 dh=0 dv=0
PairPos2: "'kern' Horizontal Kerning in Latin lookup 0 per glyph data 2" a dx=0 dy=0 dh=-19 dv=0 dx=0 dy=0 dh=0 dv=0
PairPos2: "'kern' Horizontal Kerning in Latin lookup 0 per glyph data 2" Y dx=0 dy=0 dh=7 dv=0 dx=0 dy=0 dh=0 dv=0
PairPos2: "'kern' Horizontal Kerning in Latin lookup 0 per glyph data 2" O dx=0 dy=0 dh=-20 dv=0 dx=0 dy=0 dh=0 dv=0
PairPos2: "'kern' Horizontal Kerning in Latin lookup 0 per glyph data 2" J dx=0 dy=0 dh=-17 dv=0 dx=0 dy=0 dh=0 dv=0
PairPos2: "'kern' Horizontal Kerning in Latin lookup 0 per glyph data 2" G dx=0 dy=0 dh=-21 dv=0 dx=0 dy=0 dh=0 dv=0
PairPos2: "'kern' Horizontal Kerning in Latin lookup 0 per glyph data 2" C dx=0 dy=0 dh=-20 dv=0 dx=0 dy=0 dh=0 dv=0
PairPos2: "'kern' Horizontal Kerning in Latin lookup 0 per glyph data 2" six dx=0 dy=0 dh=-19 dv=0 dx=0 dy=0 dh=0 dv=0
PairPos2: "'kern' Horizontal Kerning in Latin lookup 0 per glyph data 2" four dx=0 dy=0 dh=-29 dv=0 dx=0 dy=0 dh=0 dv=0
PairPos2: "'kern' Horizontal Kerning in Latin lookup 0 per glyph data 2" zero dx=0 dy=0 dh=-18 dv=0 dx=0 dy=0 dh=0 dv=0
PairPos2: "'kern' Horizontal Kerning in Latin lookup 0 per glyph data 2" parenleft dx=0 dy=0 dh=-18 dv=0 dx=0 dy=0 dh=0 dv=0
PairPos2: "'kern' Horizontal Kerning in Latin lookup 0 per glyph data 2" Q dx=0 dy=0 dh=-16 dv=0 dx=0 dy=0 dh=0 dv=0
EndChar

StartChar: parenright
Encoding: 41 41 11
Width: 302
GlyphClass: 2
Flags: MW
HStem: 720 20G<160 160>
VStem: 202 78<455 463 408.5 504.5>
LayerCount: 2
Fore
SplineSet
160 740 m 1
 196 691 224 651 247 598 c 0
 269 548 280 491 280 435 c 0
 280 382 271 327 255 274 c 0
 239 221 216 167 184 116 c 0
 153 65 114 16 70 -34 c 0
 26 -84 -34 -121 -92 -165 c 1
 -104 -150 l 1
 -62 -114 -22 -72 15 -23 c 0
 52 24 85 76 113 130 c 0
 141 186 163 243 179 303 c 0
 194 363 202 425 202 485 c 0
 202 524 200 562 189 599 c 0
 179 636 160 679 138 725 c 1
 160 740 l 1
EndSplineSet
Validated: 1
Substitution2: "'salt' Stylistic Alternatives lookup 14 subtable" parenright.up
Substitution2: "'c2sc' Capitals to Small Capitals in Latin lookup 1 subtable" parenright.sc
Substitution2: "'smcp' Lowercase to Small Capitals in Latin lookup 0 subtable" parenright.sc
EndChar

StartChar: asterisk
Encoding: 42 42 12
Width: 480
GlyphClass: 2
Flags: MW
HStem: 443 71<131 225> 505 73<374.5 459> 675 20G<334 358.5>
VStem: 155 84 200 83<355.5 388.5> 306 83<644.5 658> 349 88
LayerCount: 2
Fore
SplineSet
437 393 m 0x62
 437 367 419 352 395 352 c 0
 365 352 354 378 349 403 c 0
 341 429 318 466 300 484 c 1
 293 464 287 447 285 428 c 0
 283 412 283 397 283 380 c 0
 282 343 268 325 242 325 c 0
 215 325 200 343 200 368 c 0x6a
 200 376 202 383 206 388 c 0
 211 394 230 413 238 423 c 0
 247 435 251 446 260 460 c 0
 264 468 268 479 273 493 c 1
 224 483 191 473 161 449 c 0
 156 445 149 443 142 443 c 0
 120 443 101 464 101 486 c 0
 101 509 120 526 145 526 c 0
 168 526 191 514 218 514 c 0
 232 514 249 516 269 520 c 1
 252 540 236 554 222 563 c 0
 208 573 196 581 186 586 c 0
 169 596 155 600 155 626 c 0
 155 652 173 668 198 668 c 0
 224 668 230 650 239 629 c 0
 253 594 265 568 291 537 c 1
 303 574 306 601 306 644 c 0
 306 672 321 695 347 695 c 0
 370 695 389 675 389 654 c 0xb4
 389 635 373 619 363 605 c 0
 345 582 327 559 316 527 c 1
 338 532 355 537 369 542 c 0
 391 552 411 561 428 572 c 0
 434 576 442 578 448 578 c 0
 470 578 487 556 487 535 c 0
 487 527 483 518 477 509 c 0
 471 500 460 496 446 496 c 0
 436 496 427 497 417 500 c 0
 407 504 394 505 378 505 c 0
 371 505 363 506 352 504 c 0
 343 504 332 502 321 500 c 1
 335 484 349 471 363 462 c 0
 386 447 409 437 426 420 c 0
 433 414 437 405 437 393 c 0x62
EndSplineSet
Validated: 1
PairPos2: "'kern' Horizontal Kerning in Latin lookup 0 per glyph data 2" W.ss01 dx=0 dy=0 dh=-10 dv=0 dx=0 dy=0 dh=0 dv=0
PairPos2: "'kern' Horizontal Kerning in Latin lookup 0 per glyph data 2" V.ss01 dx=0 dy=0 dh=-10 dv=0 dx=0 dy=0 dh=0 dv=0
PairPos2: "'kern' Horizontal Kerning in Latin lookup 0 per glyph data 2" A.ss01 dx=0 dy=0 dh=-40 dv=0 dx=0 dy=0 dh=0 dv=0
PairPos2: "'kern' Horizontal Kerning in Latin lookup 0 per glyph data 2" Ytilde dx=0 dy=0 dh=-23 dv=0 dx=0 dy=0 dh=0 dv=0
PairPos2: "'kern' Horizontal Kerning in Latin lookup 0 per glyph data 2" Ygrave dx=0 dy=0 dh=-23 dv=0 dx=0 dy=0 dh=0 dv=0
PairPos2: "'kern' Horizontal Kerning in Latin lookup 0 per glyph data 2" Idotbelow dx=0 dy=0 dh=-11 dv=0 dx=0 dy=0 dh=0 dv=0
PairPos2: "'kern' Horizontal Kerning in Latin lookup 0 per glyph data 2" Etilde dx=0 dy=0 dh=-11 dv=0 dx=0 dy=0 dh=0 dv=0
PairPos2: "'kern' Horizontal Kerning in Latin lookup 0 per glyph data 2" Edotbelow dx=0 dy=0 dh=-11 dv=0 dx=0 dy=0 dh=0 dv=0
PairPos2: "'kern' Horizontal Kerning in Latin lookup 0 per glyph data 2" Wdieresis dx=0 dy=0 dh=-19 dv=0 dx=0 dy=0 dh=0 dv=0
PairPos2: "'kern' Horizontal Kerning in Latin lookup 0 per glyph data 2" Wacute dx=0 dy=0 dh=-19 dv=0 dx=0 dy=0 dh=0 dv=0
PairPos2: "'kern' Horizontal Kerning in Latin lookup 0 per glyph data 2" Wgrave dx=0 dy=0 dh=-19 dv=0 dx=0 dy=0 dh=0 dv=0
PairPos2: "'kern' Horizontal Kerning in Latin lookup 0 per glyph data 2" Tdotbelow dx=0 dy=0 dh=5 dv=0 dx=0 dy=0 dh=0 dv=0
PairPos2: "'kern' Horizontal Kerning in Latin lookup 0 per glyph data 2" Rdotbelow dx=0 dy=0 dh=-11 dv=0 dx=0 dy=0 dh=0 dv=0
PairPos2: "'kern' Horizontal Kerning in Latin lookup 0 per glyph data 2" Ndotaccent dx=0 dy=0 dh=-13 dv=0 dx=0 dy=0 dh=0 dv=0
PairPos2: "'kern' Horizontal Kerning in Latin lookup 0 per glyph data 2" Hdotbelow dx=0 dy=0 dh=-11 dv=0 dx=0 dy=0 dh=0 dv=0
PairPos2: "'kern' Horizontal Kerning in Latin lookup 0 per glyph data 2" Ddotbelow dx=0 dy=0 dh=-11 dv=0 dx=0 dy=0 dh=0 dv=0
PairPos2: "'kern' Horizontal Kerning in Latin lookup 0 per glyph data 2" uni021A dx=0 dy=0 dh=5 dv=0 dx=0 dy=0 dh=0 dv=0
PairPos2: "'kern' Horizontal Kerning in Latin lookup 0 per glyph data 2" AEacute dx=0 dy=0 dh=-67 dv=0 dx=0 dy=0 dh=0 dv=0
PairPos2: "'kern' Horizontal Kerning in Latin lookup 0 per glyph data 2" Aringacute dx=0 dy=0 dh=-68 dv=0 dx=0 dy=0 dh=0 dv=0
PairPos2: "'kern' Horizontal Kerning in Latin lookup 0 per glyph data 2" Ydieresis dx=0 dy=0 dh=-23 dv=0 dx=0 dy=0 dh=0 dv=0
PairPos2: "'kern' Horizontal Kerning in Latin lookup 0 per glyph data 2" Ycircumflex dx=0 dy=0 dh=-23 dv=0 dx=0 dy=0 dh=0 dv=0
PairPos2: "'kern' Horizontal Kerning in Latin lookup 0 per glyph data 2" Wcircumflex dx=0 dy=0 dh=-19 dv=0 dx=0 dy=0 dh=0 dv=0
PairPos2: "'kern' Horizontal Kerning in Latin lookup 0 per glyph data 2" Tbar dx=0 dy=0 dh=5 dv=0 dx=0 dy=0 dh=0 dv=0
PairPos2: "'kern' Horizontal Kerning in Latin lookup 0 per glyph data 2" Tcaron dx=0 dy=0 dh=5 dv=0 dx=0 dy=0 dh=0 dv=0
PairPos2: "'kern' Horizontal Kerning in Latin lookup 0 per glyph data 2" uni0162 dx=0 dy=0 dh=5 dv=0 dx=0 dy=0 dh=0 dv=0
PairPos2: "'kern' Horizontal Kerning in Latin lookup 0 per glyph data 2" Rcaron dx=0 dy=0 dh=-11 dv=0 dx=0 dy=0 dh=0 dv=0
PairPos2: "'kern' Horizontal Kerning in Latin lookup 0 per glyph data 2" Rcommaaccent dx=0 dy=0 dh=-11 dv=0 dx=0 dy=0 dh=0 dv=0
PairPos2: "'kern' Horizontal Kerning in Latin lookup 0 per glyph data 2" Racute dx=0 dy=0 dh=-11 dv=0 dx=0 dy=0 dh=0 dv=0
PairPos2: "'kern' Horizontal Kerning in Latin lookup 0 per glyph data 2" Eng dx=0 dy=0 dh=-13 dv=0 dx=0 dy=0 dh=0 dv=0
PairPos2: "'kern' Horizontal Kerning in Latin lookup 0 per glyph data 2" Ncaron dx=0 dy=0 dh=-13 dv=0 dx=0 dy=0 dh=0 dv=0
PairPos2: "'kern' Horizontal Kerning in Latin lookup 0 per glyph data 2" Ncommaaccent dx=0 dy=0 dh=-13 dv=0 dx=0 dy=0 dh=0 dv=0
PairPos2: "'kern' Horizontal Kerning in Latin lookup 0 per glyph data 2" Nacute dx=0 dy=0 dh=-13 dv=0 dx=0 dy=0 dh=0 dv=0
PairPos2: "'kern' Horizontal Kerning in Latin lookup 0 per glyph data 2" Lslash dx=0 dy=0 dh=-11 dv=0 dx=0 dy=0 dh=0 dv=0
PairPos2: "'kern' Horizontal Kerning in Latin lookup 0 per glyph data 2" Lcaron dx=0 dy=0 dh=-11 dv=0 dx=0 dy=0 dh=0 dv=0
PairPos2: "'kern' Horizontal Kerning in Latin lookup 0 per glyph data 2" Lcommaaccent dx=0 dy=0 dh=-11 dv=0 dx=0 dy=0 dh=0 dv=0
PairPos2: "'kern' Horizontal Kerning in Latin lookup 0 per glyph data 2" Lacute dx=0 dy=0 dh=-11 dv=0 dx=0 dy=0 dh=0 dv=0
PairPos2: "'kern' Horizontal Kerning in Latin lookup 0 per glyph data 2" Kcommaaccent dx=0 dy=0 dh=-11 dv=0 dx=0 dy=0 dh=0 dv=0
PairPos2: "'kern' Horizontal Kerning in Latin lookup 0 per glyph data 2" Jcircumflex dx=0 dy=0 dh=-32 dv=0 dx=0 dy=0 dh=0 dv=0
PairPos2: "'kern' Horizontal Kerning in Latin lookup 0 per glyph data 2" IJ dx=0 dy=0 dh=-11 dv=0 dx=0 dy=0 dh=0 dv=0
PairPos2: "'kern' Horizontal Kerning in Latin lookup 0 per glyph data 2" Idotaccent dx=0 dy=0 dh=-11 dv=0 dx=0 dy=0 dh=0 dv=0
PairPos2: "'kern' Horizontal Kerning in Latin lookup 0 per glyph data 2" Iogonek dx=0 dy=0 dh=-11 dv=0 dx=0 dy=0 dh=0 dv=0
PairPos2: "'kern' Horizontal Kerning in Latin lookup 0 per glyph data 2" Ibreve dx=0 dy=0 dh=-11 dv=0 dx=0 dy=0 dh=0 dv=0
PairPos2: "'kern' Horizontal Kerning in Latin lookup 0 per glyph data 2" Imacron dx=0 dy=0 dh=-11 dv=0 dx=0 dy=0 dh=0 dv=0
PairPos2: "'kern' Horizontal Kerning in Latin lookup 0 per glyph data 2" Itilde dx=0 dy=0 dh=-11 dv=0 dx=0 dy=0 dh=0 dv=0
PairPos2: "'kern' Horizontal Kerning in Latin lookup 0 per glyph data 2" Hbar dx=0 dy=0 dh=-11 dv=0 dx=0 dy=0 dh=0 dv=0
PairPos2: "'kern' Horizontal Kerning in Latin lookup 0 per glyph data 2" Hcircumflex dx=0 dy=0 dh=-11 dv=0 dx=0 dy=0 dh=0 dv=0
PairPos2: "'kern' Horizontal Kerning in Latin lookup 0 per glyph data 2" Ecaron dx=0 dy=0 dh=-11 dv=0 dx=0 dy=0 dh=0 dv=0
PairPos2: "'kern' Horizontal Kerning in Latin lookup 0 per glyph data 2" Eogonek dx=0 dy=0 dh=-11 dv=0 dx=0 dy=0 dh=0 dv=0
PairPos2: "'kern' Horizontal Kerning in Latin lookup 0 per glyph data 2" Edotaccent dx=0 dy=0 dh=-11 dv=0 dx=0 dy=0 dh=0 dv=0
PairPos2: "'kern' Horizontal Kerning in Latin lookup 0 per glyph data 2" Ebreve dx=0 dy=0 dh=-11 dv=0 dx=0 dy=0 dh=0 dv=0
PairPos2: "'kern' Horizontal Kerning in Latin lookup 0 per glyph data 2" Emacron dx=0 dy=0 dh=-11 dv=0 dx=0 dy=0 dh=0 dv=0
PairPos2: "'kern' Horizontal Kerning in Latin lookup 0 per glyph data 2" Dcroat dx=0 dy=0 dh=-11 dv=0 dx=0 dy=0 dh=0 dv=0
PairPos2: "'kern' Horizontal Kerning in Latin lookup 0 per glyph data 2" Dcaron dx=0 dy=0 dh=-11 dv=0 dx=0 dy=0 dh=0 dv=0
PairPos2: "'kern' Horizontal Kerning in Latin lookup 0 per glyph data 2" Aogonek dx=0 dy=0 dh=-68 dv=0 dx=0 dy=0 dh=0 dv=0
PairPos2: "'kern' Horizontal Kerning in Latin lookup 0 per glyph data 2" Abreve dx=0 dy=0 dh=-68 dv=0 dx=0 dy=0 dh=0 dv=0
PairPos2: "'kern' Horizontal Kerning in Latin lookup 0 per glyph data 2" Amacron dx=0 dy=0 dh=-68 dv=0 dx=0 dy=0 dh=0 dv=0
PairPos2: "'kern' Horizontal Kerning in Latin lookup 0 per glyph data 2" Thorn dx=0 dy=0 dh=-11 dv=0 dx=0 dy=0 dh=0 dv=0
PairPos2: "'kern' Horizontal Kerning in Latin lookup 0 per glyph data 2" Yacute dx=0 dy=0 dh=-23 dv=0 dx=0 dy=0 dh=0 dv=0
PairPos2: "'kern' Horizontal Kerning in Latin lookup 0 per glyph data 2" Ntilde dx=0 dy=0 dh=-13 dv=0 dx=0 dy=0 dh=0 dv=0
PairPos2: "'kern' Horizontal Kerning in Latin lookup 0 per glyph data 2" Eth dx=0 dy=0 dh=-11 dv=0 dx=0 dy=0 dh=0 dv=0
PairPos2: "'kern' Horizontal Kerning in Latin lookup 0 per glyph data 2" Idieresis dx=0 dy=0 dh=-11 dv=0 dx=0 dy=0 dh=0 dv=0
PairPos2: "'kern' Horizontal Kerning in Latin lookup 0 per glyph data 2" Icircumflex dx=0 dy=0 dh=-11 dv=0 dx=0 dy=0 dh=0 dv=0
PairPos2: "'kern' Horizontal Kerning in Latin lookup 0 per glyph data 2" Iacute dx=0 dy=0 dh=-11 dv=0 dx=0 dy=0 dh=0 dv=0
PairPos2: "'kern' Horizontal Kerning in Latin lookup 0 per glyph data 2" Igrave dx=0 dy=0 dh=-11 dv=0 dx=0 dy=0 dh=0 dv=0
PairPos2: "'kern' Horizontal Kerning in Latin lookup 0 per glyph data 2" Edieresis dx=0 dy=0 dh=-11 dv=0 dx=0 dy=0 dh=0 dv=0
PairPos2: "'kern' Horizontal Kerning in Latin lookup 0 per glyph data 2" Ecircumflex dx=0 dy=0 dh=-11 dv=0 dx=0 dy=0 dh=0 dv=0
PairPos2: "'kern' Horizontal Kerning in Latin lookup 0 per glyph data 2" Eacute dx=0 dy=0 dh=-11 dv=0 dx=0 dy=0 dh=0 dv=0
PairPos2: "'kern' Horizontal Kerning in Latin lookup 0 per glyph data 2" Egrave dx=0 dy=0 dh=-11 dv=0 dx=0 dy=0 dh=0 dv=0
PairPos2: "'kern' Horizontal Kerning in Latin lookup 0 per glyph data 2" AE dx=0 dy=0 dh=-67 dv=0 dx=0 dy=0 dh=0 dv=0
PairPos2: "'kern' Horizontal Kerning in Latin lookup 0 per glyph data 2" Aring dx=0 dy=0 dh=-68 dv=0 dx=0 dy=0 dh=0 dv=0
PairPos2: "'kern' Horizontal Kerning in Latin lookup 0 per glyph data 2" Adieresis dx=0 dy=0 dh=-68 dv=0 dx=0 dy=0 dh=0 dv=0
PairPos2: "'kern' Horizontal Kerning in Latin lookup 0 per glyph data 2" Atilde dx=0 dy=0 dh=-68 dv=0 dx=0 dy=0 dh=0 dv=0
PairPos2: "'kern' Horizontal Kerning in Latin lookup 0 per glyph data 2" Acircumflex dx=0 dy=0 dh=-68 dv=0 dx=0 dy=0 dh=0 dv=0
PairPos2: "'kern' Horizontal Kerning in Latin lookup 0 per glyph data 2" Aacute dx=0 dy=0 dh=-68 dv=0 dx=0 dy=0 dh=0 dv=0
PairPos2: "'kern' Horizontal Kerning in Latin lookup 0 per glyph data 2" Agrave dx=0 dy=0 dh=-68 dv=0 dx=0 dy=0 dh=0 dv=0
PairPos2: "'kern' Horizontal Kerning in Latin lookup 0 per glyph data 2" Y dx=0 dy=0 dh=-23 dv=0 dx=0 dy=0 dh=0 dv=0
PairPos2: "'kern' Horizontal Kerning in Latin lookup 0 per glyph data 2" X dx=0 dy=0 dh=-21 dv=0 dx=0 dy=0 dh=0 dv=0
PairPos2: "'kern' Horizontal Kerning in Latin lookup 0 per glyph data 2" W dx=0 dy=0 dh=-19 dv=0 dx=0 dy=0 dh=0 dv=0
PairPos2: "'kern' Horizontal Kerning in Latin lookup 0 per glyph data 2" V dx=0 dy=0 dh=-20 dv=0 dx=0 dy=0 dh=0 dv=0
PairPos2: "'kern' Horizontal Kerning in Latin lookup 0 per glyph data 2" T dx=0 dy=0 dh=5 dv=0 dx=0 dy=0 dh=0 dv=0
PairPos2: "'kern' Horizontal Kerning in Latin lookup 0 per glyph data 2" R dx=0 dy=0 dh=-11 dv=0 dx=0 dy=0 dh=0 dv=0
PairPos2: "'kern' Horizontal Kerning in Latin lookup 0 per glyph data 2" P dx=0 dy=0 dh=-11 dv=0 dx=0 dy=0 dh=0 dv=0
PairPos2: "'kern' Horizontal Kerning in Latin lookup 0 per glyph data 2" N dx=0 dy=0 dh=-13 dv=0 dx=0 dy=0 dh=0 dv=0
PairPos2: "'kern' Horizontal Kerning in Latin lookup 0 per glyph data 2" M dx=0 dy=0 dh=-11 dv=0 dx=0 dy=0 dh=0 dv=0
PairPos2: "'kern' Horizontal Kerning in Latin lookup 0 per glyph data 2" L dx=0 dy=0 dh=-11 dv=0 dx=0 dy=0 dh=0 dv=0
PairPos2: "'kern' Horizontal Kerning in Latin lookup 0 per glyph data 2" K dx=0 dy=0 dh=-11 dv=0 dx=0 dy=0 dh=0 dv=0
PairPos2: "'kern' Horizontal Kerning in Latin lookup 0 per glyph data 2" J dx=0 dy=0 dh=-32 dv=0 dx=0 dy=0 dh=0 dv=0
PairPos2: "'kern' Horizontal Kerning in Latin lookup 0 per glyph data 2" I dx=0 dy=0 dh=-11 dv=0 dx=0 dy=0 dh=0 dv=0
PairPos2: "'kern' Horizontal Kerning in Latin lookup 0 per glyph data 2" H dx=0 dy=0 dh=-11 dv=0 dx=0 dy=0 dh=0 dv=0
PairPos2: "'kern' Horizontal Kerning in Latin lookup 0 per glyph data 2" F dx=0 dy=0 dh=-11 dv=0 dx=0 dy=0 dh=0 dv=0
PairPos2: "'kern' Horizontal Kerning in Latin lookup 0 per glyph data 2" E dx=0 dy=0 dh=-11 dv=0 dx=0 dy=0 dh=0 dv=0
PairPos2: "'kern' Horizontal Kerning in Latin lookup 0 per glyph data 2" D dx=0 dy=0 dh=-11 dv=0 dx=0 dy=0 dh=0 dv=0
PairPos2: "'kern' Horizontal Kerning in Latin lookup 0 per glyph data 2" B dx=0 dy=0 dh=-11 dv=0 dx=0 dy=0 dh=0 dv=0
PairPos2: "'kern' Horizontal Kerning in Latin lookup 0 per glyph data 2" A dx=0 dy=0 dh=-68 dv=0 dx=0 dy=0 dh=0 dv=0
EndChar

StartChar: plus
Encoding: 43 43 13
Width: 521
GlyphClass: 2
Flags: MW
HStem: 283 45<50 237 50 237 284 472>
VStem: 237 47<94 283 94 283 328 516>
LayerCount: 2
Fore
SplineSet
237 94 m 1
 237 283 l 1
 50 283 l 1
 50 328 l 1
 237 328 l 1
 237 516 l 1
 284 516 l 1
 284 328 l 1
 472 328 l 1
 472 283 l 1
 284 283 l 1
 284 94 l 1
 237 94 l 1
EndSplineSet
Validated: 1
EndChar

StartChar: comma
Encoding: 44 44 14
Width: 239
GlyphClass: 2
Flags: MW
HStem: 0 117<37.5 70.5>
VStem: 64 61<-5.5 61.5>
LayerCount: 2
Fore
SplineSet
64 3 m 1
 57 1 50 0 45 0 c 0
 30 0 18 4 11 14 c 0
 3 24 -1 37 -1 52 c 0
 -1 70 5 85 17 98 c 0
 29 111 44 117 61 117 c 0
 80 117 95 111 107 98 c 0
 119 85 125 70 125 53 c 0
 125 20 113 -16 89 -53 c 0
 65 -90 31 -126 -14 -158 c 1
 -35 -129 l 1
 -3 -106 22 -83 39 -60 c 0
 56 -36 64 -14 64 3 c 1
EndSplineSet
Validated: 1
EndChar

StartChar: hyphen
Encoding: 45 45 15
Width: 419
GlyphClass: 2
Flags: MW
HStem: 204 75<54 354 75 333>
VStem: 54 300<204 279>
LayerCount: 2
Fore
SplineSet
54 204 m 1
 75 279 l 1
 354 279 l 1
 333 204 l 1
 54 204 l 1
EndSplineSet
Validated: 1
EndChar

StartChar: period
Encoding: 46 46 16
Width: 236
GlyphClass: 2
Flags: MW
HStem: -9 126<52.5 69.5>
VStem: -1 126<44.5 61>
LayerCount: 2
Fore
SplineSet
61 -9 m 0
 44 -9 30 -4 18 8 c 0
 5 20 -1 34 -1 52 c 0
 -1 70 5 85 17 98 c 0
 29 111 44 117 61 117 c 0
 80 117 95 111 107 98 c 0
 119 85 125 70 125 53 c 0
 125 36 120 21 107 9 c 0
 94 -3 78 -9 61 -9 c 0
EndSplineSet
Validated: 1
EndChar

StartChar: slash
Encoding: 47 47 17
Width: 352
GlyphClass: 2
Flags: MW
HStem: 0 21G<-26 36 -26 -26> 675 20G<357 412 412 412>
LayerCount: 2
Fore
SplineSet
36 0 m 1
 -26 0 l 1
 357 695 l 1
 412 695 l 1
 36 0 l 1
EndSplineSet
Validated: 1
Substitution2: "'c2sc' Capitals to Small Capitals in Latin lookup 1 subtable" slash.sc
Substitution2: "'smcp' Lowercase to Small Capitals in Latin lookup 0 subtable" slash.sc
PairPos2: "'kern' Horizontal Kerning in Latin lookup 0 per glyph data 2" c_t dx=0 dy=0 dh=-13 dv=0 dx=0 dy=0 dh=0 dv=0
PairPos2: "'kern' Horizontal Kerning in Latin lookup 0 per glyph data 2" A.ss01 dx=0 dy=0 dh=-28 dv=0 dx=0 dy=0 dh=0 dv=0
PairPos2: "'kern' Horizontal Kerning in Latin lookup 0 per glyph data 2" Ytilde dx=0 dy=0 dh=5 dv=0 dx=0 dy=0 dh=0 dv=0
PairPos2: "'kern' Horizontal Kerning in Latin lookup 0 per glyph data 2" Ygrave dx=0 dy=0 dh=5 dv=0 dx=0 dy=0 dh=0 dv=0
PairPos2: "'kern' Horizontal Kerning in Latin lookup 0 per glyph data 2" odotbelow dx=0 dy=0 dh=-11 dv=0 dx=0 dy=0 dh=0 dv=0
PairPos2: "'kern' Horizontal Kerning in Latin lookup 0 per glyph data 2" etilde dx=0 dy=0 dh=-13 dv=0 dx=0 dy=0 dh=0 dv=0
PairPos2: "'kern' Horizontal Kerning in Latin lookup 0 per glyph data 2" edotbelow dx=0 dy=0 dh=-13 dv=0 dx=0 dy=0 dh=0 dv=0
PairPos2: "'kern' Horizontal Kerning in Latin lookup 0 per glyph data 2" ddotbelow dx=0 dy=0 dh=-14 dv=0 dx=0 dy=0 dh=0 dv=0
PairPos2: "'kern' Horizontal Kerning in Latin lookup 0 per glyph data 2" oslashacute dx=0 dy=0 dh=-11 dv=0 dx=0 dy=0 dh=0 dv=0
PairPos2: "'kern' Horizontal Kerning in Latin lookup 0 per glyph data 2" aeacute dx=0 dy=0 dh=-13 dv=0 dx=0 dy=0 dh=0 dv=0
PairPos2: "'kern' Horizontal Kerning in Latin lookup 0 per glyph data 2" AEacute dx=0 dy=0 dh=-35 dv=0 dx=0 dy=0 dh=0 dv=0
PairPos2: "'kern' Horizontal Kerning in Latin lookup 0 per glyph data 2" aringacute dx=0 dy=0 dh=-13 dv=0 dx=0 dy=0 dh=0 dv=0
PairPos2: "'kern' Horizontal Kerning in Latin lookup 0 per glyph data 2" Aringacute dx=0 dy=0 dh=-37 dv=0 dx=0 dy=0 dh=0 dv=0
PairPos2: "'kern' Horizontal Kerning in Latin lookup 0 per glyph data 2" uni01F3 dx=0 dy=0 dh=-14 dv=0 dx=0 dy=0 dh=0 dv=0
PairPos2: "'kern' Horizontal Kerning in Latin lookup 0 per glyph data 2" uni01C6 dx=0 dy=0 dh=-14 dv=0 dx=0 dy=0 dh=0 dv=0
PairPos2: "'kern' Horizontal Kerning in Latin lookup 0 per glyph data 2" Ydieresis dx=0 dy=0 dh=5 dv=0 dx=0 dy=0 dh=0 dv=0
PairPos2: "'kern' Horizontal Kerning in Latin lookup 0 per glyph data 2" Ycircumflex dx=0 dy=0 dh=5 dv=0 dx=0 dy=0 dh=0 dv=0
PairPos2: "'kern' Horizontal Kerning in Latin lookup 0 per glyph data 2" oe dx=0 dy=0 dh=-11 dv=0 dx=0 dy=0 dh=0 dv=0
PairPos2: "'kern' Horizontal Kerning in Latin lookup 0 per glyph data 2" ohungarumlaut dx=0 dy=0 dh=-11 dv=0 dx=0 dy=0 dh=0 dv=0
PairPos2: "'kern' Horizontal Kerning in Latin lookup 0 per glyph data 2" obreve dx=0 dy=0 dh=-11 dv=0 dx=0 dy=0 dh=0 dv=0
PairPos2: "'kern' Horizontal Kerning in Latin lookup 0 per glyph data 2" omacron dx=0 dy=0 dh=-11 dv=0 dx=0 dy=0 dh=0 dv=0
PairPos2: "'kern' Horizontal Kerning in Latin lookup 0 per glyph data 2" Jcircumflex dx=0 dy=0 dh=-14 dv=0 dx=0 dy=0 dh=0 dv=0
PairPos2: "'kern' Horizontal Kerning in Latin lookup 0 per glyph data 2" gcommaaccent dx=0 dy=0 dh=-12 dv=0 dx=0 dy=0 dh=0 dv=0
PairPos2: "'kern' Horizontal Kerning in Latin lookup 0 per glyph data 2" gdotaccent dx=0 dy=0 dh=-12 dv=0 dx=0 dy=0 dh=0 dv=0
PairPos2: "'kern' Horizontal Kerning in Latin lookup 0 per glyph data 2" gbreve dx=0 dy=0 dh=-12 dv=0 dx=0 dy=0 dh=0 dv=0
PairPos2: "'kern' Horizontal Kerning in Latin lookup 0 per glyph data 2" gcircumflex dx=0 dy=0 dh=-12 dv=0 dx=0 dy=0 dh=0 dv=0
PairPos2: "'kern' Horizontal Kerning in Latin lookup 0 per glyph data 2" ecaron dx=0 dy=0 dh=-13 dv=0 dx=0 dy=0 dh=0 dv=0
PairPos2: "'kern' Horizontal Kerning in Latin lookup 0 per glyph data 2" eogonek dx=0 dy=0 dh=-13 dv=0 dx=0 dy=0 dh=0 dv=0
PairPos2: "'kern' Horizontal Kerning in Latin lookup 0 per glyph data 2" edotaccent dx=0 dy=0 dh=-13 dv=0 dx=0 dy=0 dh=0 dv=0
PairPos2: "'kern' Horizontal Kerning in Latin lookup 0 per glyph data 2" ebreve dx=0 dy=0 dh=-13 dv=0 dx=0 dy=0 dh=0 dv=0
PairPos2: "'kern' Horizontal Kerning in Latin lookup 0 per glyph data 2" emacron dx=0 dy=0 dh=-13 dv=0 dx=0 dy=0 dh=0 dv=0
PairPos2: "'kern' Horizontal Kerning in Latin lookup 0 per glyph data 2" dcroat dx=0 dy=0 dh=-14 dv=0 dx=0 dy=0 dh=0 dv=0
PairPos2: "'kern' Horizontal Kerning in Latin lookup 0 per glyph data 2" dcaron dx=0 dy=0 dh=-14 dv=0 dx=0 dy=0 dh=0 dv=0
PairPos2: "'kern' Horizontal Kerning in Latin lookup 0 per glyph data 2" ccaron dx=0 dy=0 dh=-13 dv=0 dx=0 dy=0 dh=0 dv=0
PairPos2: "'kern' Horizontal Kerning in Latin lookup 0 per glyph data 2" cdotaccent dx=0 dy=0 dh=-13 dv=0 dx=0 dy=0 dh=0 dv=0
PairPos2: "'kern' Horizontal Kerning in Latin lookup 0 per glyph data 2" ccircumflex dx=0 dy=0 dh=-13 dv=0 dx=0 dy=0 dh=0 dv=0
PairPos2: "'kern' Horizontal Kerning in Latin lookup 0 per glyph data 2" cacute dx=0 dy=0 dh=-13 dv=0 dx=0 dy=0 dh=0 dv=0
PairPos2: "'kern' Horizontal Kerning in Latin lookup 0 per glyph data 2" aogonek dx=0 dy=0 dh=-13 dv=0 dx=0 dy=0 dh=0 dv=0
PairPos2: "'kern' Horizontal Kerning in Latin lookup 0 per glyph data 2" Aogonek dx=0 dy=0 dh=-37 dv=0 dx=0 dy=0 dh=0 dv=0
PairPos2: "'kern' Horizontal Kerning in Latin lookup 0 per glyph data 2" abreve dx=0 dy=0 dh=-13 dv=0 dx=0 dy=0 dh=0 dv=0
PairPos2: "'kern' Horizontal Kerning in Latin lookup 0 per glyph data 2" Abreve dx=0 dy=0 dh=-37 dv=0 dx=0 dy=0 dh=0 dv=0
PairPos2: "'kern' Horizontal Kerning in Latin lookup 0 per glyph data 2" amacron dx=0 dy=0 dh=-13 dv=0 dx=0 dy=0 dh=0 dv=0
PairPos2: "'kern' Horizontal Kerning in Latin lookup 0 per glyph data 2" Amacron dx=0 dy=0 dh=-37 dv=0 dx=0 dy=0 dh=0 dv=0
PairPos2: "'kern' Horizontal Kerning in Latin lookup 0 per glyph data 2" oslash dx=0 dy=0 dh=-11 dv=0 dx=0 dy=0 dh=0 dv=0
PairPos2: "'kern' Horizontal Kerning in Latin lookup 0 per glyph data 2" odieresis dx=0 dy=0 dh=-11 dv=0 dx=0 dy=0 dh=0 dv=0
PairPos2: "'kern' Horizontal Kerning in Latin lookup 0 per glyph data 2" otilde dx=0 dy=0 dh=-11 dv=0 dx=0 dy=0 dh=0 dv=0
PairPos2: "'kern' Horizontal Kerning in Latin lookup 0 per glyph data 2" ocircumflex dx=0 dy=0 dh=-11 dv=0 dx=0 dy=0 dh=0 dv=0
PairPos2: "'kern' Horizontal Kerning in Latin lookup 0 per glyph data 2" oacute dx=0 dy=0 dh=-11 dv=0 dx=0 dy=0 dh=0 dv=0
PairPos2: "'kern' Horizontal Kerning in Latin lookup 0 per glyph data 2" ograve dx=0 dy=0 dh=-11 dv=0 dx=0 dy=0 dh=0 dv=0
PairPos2: "'kern' Horizontal Kerning in Latin lookup 0 per glyph data 2" eth dx=0 dy=0 dh=-9 dv=0 dx=0 dy=0 dh=0 dv=0
PairPos2: "'kern' Horizontal Kerning in Latin lookup 0 per glyph data 2" edieresis dx=0 dy=0 dh=-13 dv=0 dx=0 dy=0 dh=0 dv=0
PairPos2: "'kern' Horizontal Kerning in Latin lookup 0 per glyph data 2" ecircumflex dx=0 dy=0 dh=-13 dv=0 dx=0 dy=0 dh=0 dv=0
PairPos2: "'kern' Horizontal Kerning in Latin lookup 0 per glyph data 2" eacute dx=0 dy=0 dh=-13 dv=0 dx=0 dy=0 dh=0 dv=0
PairPos2: "'kern' Horizontal Kerning in Latin lookup 0 per glyph data 2" egrave dx=0 dy=0 dh=-13 dv=0 dx=0 dy=0 dh=0 dv=0
PairPos2: "'kern' Horizontal Kerning in Latin lookup 0 per glyph data 2" ccedilla dx=0 dy=0 dh=-13 dv=0 dx=0 dy=0 dh=0 dv=0
PairPos2: "'kern' Horizontal Kerning in Latin lookup 0 per glyph data 2" ae dx=0 dy=0 dh=-13 dv=0 dx=0 dy=0 dh=0 dv=0
PairPos2: "'kern' Horizontal Kerning in Latin lookup 0 per glyph data 2" aring dx=0 dy=0 dh=-13 dv=0 dx=0 dy=0 dh=0 dv=0
PairPos2: "'kern' Horizontal Kerning in Latin lookup 0 per glyph data 2" adieresis dx=0 dy=0 dh=-13 dv=0 dx=0 dy=0 dh=0 dv=0
PairPos2: "'kern' Horizontal Kerning in Latin lookup 0 per glyph data 2" atilde dx=0 dy=0 dh=-13 dv=0 dx=0 dy=0 dh=0 dv=0
PairPos2: "'kern' Horizontal Kerning in Latin lookup 0 per glyph data 2" acircumflex dx=0 dy=0 dh=-13 dv=0 dx=0 dy=0 dh=0 dv=0
PairPos2: "'kern' Horizontal Kerning in Latin lookup 0 per glyph data 2" aacute dx=0 dy=0 dh=-13 dv=0 dx=0 dy=0 dh=0 dv=0
PairPos2: "'kern' Horizontal Kerning in Latin lookup 0 per glyph data 2" agrave dx=0 dy=0 dh=-13 dv=0 dx=0 dy=0 dh=0 dv=0
PairPos2: "'kern' Horizontal Kerning in Latin lookup 0 per glyph data 2" Yacute dx=0 dy=0 dh=5 dv=0 dx=0 dy=0 dh=0 dv=0
PairPos2: "'kern' Horizontal Kerning in Latin lookup 0 per glyph data 2" AE dx=0 dy=0 dh=-35 dv=0 dx=0 dy=0 dh=0 dv=0
PairPos2: "'kern' Horizontal Kerning in Latin lookup 0 per glyph data 2" Aring dx=0 dy=0 dh=-37 dv=0 dx=0 dy=0 dh=0 dv=0
PairPos2: "'kern' Horizontal Kerning in Latin lookup 0 per glyph data 2" Adieresis dx=0 dy=0 dh=-37 dv=0 dx=0 dy=0 dh=0 dv=0
PairPos2: "'kern' Horizontal Kerning in Latin lookup 0 per glyph data 2" Atilde dx=0 dy=0 dh=-37 dv=0 dx=0 dy=0 dh=0 dv=0
PairPos2: "'kern' Horizontal Kerning in Latin lookup 0 per glyph data 2" Acircumflex dx=0 dy=0 dh=-37 dv=0 dx=0 dy=0 dh=0 dv=0
PairPos2: "'kern' Horizontal Kerning in Latin lookup 0 per glyph data 2" Aacute dx=0 dy=0 dh=-37 dv=0 dx=0 dy=0 dh=0 dv=0
PairPos2: "'kern' Horizontal Kerning in Latin lookup 0 per glyph data 2" Agrave dx=0 dy=0 dh=-37 dv=0 dx=0 dy=0 dh=0 dv=0
PairPos2: "'kern' Horizontal Kerning in Latin lookup 0 per glyph data 2" q dx=0 dy=0 dh=-12 dv=0 dx=0 dy=0 dh=0 dv=0
PairPos2: "'kern' Horizontal Kerning in Latin lookup 0 per glyph data 2" o dx=0 dy=0 dh=-11 dv=0 dx=0 dy=0 dh=0 dv=0
PairPos2: "'kern' Horizontal Kerning in Latin lookup 0 per glyph data 2" g dx=0 dy=0 dh=-12 dv=0 dx=0 dy=0 dh=0 dv=0
PairPos2: "'kern' Horizontal Kerning in Latin lookup 0 per glyph data 2" e dx=0 dy=0 dh=-13 dv=0 dx=0 dy=0 dh=0 dv=0
PairPos2: "'kern' Horizontal Kerning in Latin lookup 0 per glyph data 2" d dx=0 dy=0 dh=-14 dv=0 dx=0 dy=0 dh=0 dv=0
PairPos2: "'kern' Horizontal Kerning in Latin lookup 0 per glyph data 2" c dx=0 dy=0 dh=-13 dv=0 dx=0 dy=0 dh=0 dv=0
PairPos2: "'kern' Horizontal Kerning in Latin lookup 0 per glyph data 2" a dx=0 dy=0 dh=-13 dv=0 dx=0 dy=0 dh=0 dv=0
PairPos2: "'kern' Horizontal Kerning in Latin lookup 0 per glyph data 2" Y dx=0 dy=0 dh=5 dv=0 dx=0 dy=0 dh=0 dv=0
PairPos2: "'kern' Horizontal Kerning in Latin lookup 0 per glyph data 2" J dx=0 dy=0 dh=-14 dv=0 dx=0 dy=0 dh=0 dv=0
PairPos2: "'kern' Horizontal Kerning in Latin lookup 0 per glyph data 2" A dx=0 dy=0 dh=-37 dv=0 dx=0 dy=0 dh=0 dv=0
PairPos2: "'kern' Horizontal Kerning in Latin lookup 0 per glyph data 2" four dx=0 dy=0 dh=-10 dv=0 dx=0 dy=0 dh=0 dv=0
PairPos2: "'kern' Horizontal Kerning in Latin lookup 0 per glyph data 2" slash dx=0 dy=0 dh=-115 dv=0 dx=0 dy=0 dh=0 dv=0
EndChar

StartChar: zero
Encoding: 48 48 18
Width: 560
GlyphClass: 2
Flags: MW
HStem: -9 22<210 248> 682 22<373.5 419.5>
VStem: 77 83<128.5 296.5> 467 81<431.5 572.5>
LayerCount: 2
Fore
SplineSet
235 -9 m 0
 176 -9 135 19 110 58 c 0
 83 100 77 162 77 233 c 0
 77 360 131 477 178 555 c 0
 206 601 234 636 274 663 c 0
 313 691 353 704 394 704 c 0
 485 704 514 641 535 568 c 0
 543 540 548 508 548 474 c 0
 548 389 529 309 503 247 c 0
 474 179 440 112 391 65 c 0
 367 42 340 25 314 11 c 0
 288 -3 261 -9 235 -9 c 0
467 540 m 0
 467 605 454 682 385 682 c 0
 244 682 186 400 165 278 c 0
 160 239 160 201 160 162 c 0
 160 95 174 13 246 13 c 0
 361 13 415 216 441 305 c 0
 459 373 467 456 467 540 c 0
EndSplineSet
Validated: 1
Substitution2: "'pnum' Proportional Numbers in Latin lookup 13 subtable" zero.prop
Substitution2: "'onum' Oldstyle Figures lookup 11 subtable" zero.oldstyle
Substitution2: "'dnom' Denominators in Latin lookup 10 subtable" zero.denominator
Substitution2: "'sinf' Scientific Inferiors in Latin lookup 9 subtable" zeroinferior
Substitution2: "'sups' Superscript in Latin lookup 8 subtable" zero.superior
PairPos2: "'kern' Horizontal Kerning in Latin lookup 0 per glyph data 2" W.ss01 dx=0 dy=0 dh=-20 dv=0 dx=0 dy=0 dh=0 dv=0
PairPos2: "'kern' Horizontal Kerning in Latin lookup 0 per glyph data 2" V.ss01 dx=0 dy=0 dh=-20 dv=0 dx=0 dy=0 dh=0 dv=0
PairPos2: "'kern' Horizontal Kerning in Latin lookup 0 per glyph data 2" A.ss01 dx=0 dy=0 dh=-11 dv=0 dx=0 dy=0 dh=0 dv=0
PairPos2: "'kern' Horizontal Kerning in Latin lookup 0 per glyph data 2" Ytilde dx=0 dy=0 dh=-32 dv=0 dx=0 dy=0 dh=0 dv=0
PairPos2: "'kern' Horizontal Kerning in Latin lookup 0 per glyph data 2" Ygrave dx=0 dy=0 dh=-32 dv=0 dx=0 dy=0 dh=0 dv=0
PairPos2: "'kern' Horizontal Kerning in Latin lookup 0 per glyph data 2" Wdieresis dx=0 dy=0 dh=-23 dv=0 dx=0 dy=0 dh=0 dv=0
PairPos2: "'kern' Horizontal Kerning in Latin lookup 0 per glyph data 2" Wacute dx=0 dy=0 dh=-23 dv=0 dx=0 dy=0 dh=0 dv=0
PairPos2: "'kern' Horizontal Kerning in Latin lookup 0 per glyph data 2" Wgrave dx=0 dy=0 dh=-23 dv=0 dx=0 dy=0 dh=0 dv=0
PairPos2: "'kern' Horizontal Kerning in Latin lookup 0 per glyph data 2" Ndotaccent dx=0 dy=0 dh=-11 dv=0 dx=0 dy=0 dh=0 dv=0
PairPos2: "'kern' Horizontal Kerning in Latin lookup 0 per glyph data 2" AEacute dx=0 dy=0 dh=-17 dv=0 dx=0 dy=0 dh=0 dv=0
PairPos2: "'kern' Horizontal Kerning in Latin lookup 0 per glyph data 2" Aringacute dx=0 dy=0 dh=-30 dv=0 dx=0 dy=0 dh=0 dv=0
PairPos2: "'kern' Horizontal Kerning in Latin lookup 0 per glyph data 2" Ydieresis dx=0 dy=0 dh=-32 dv=0 dx=0 dy=0 dh=0 dv=0
PairPos2: "'kern' Horizontal Kerning in Latin lookup 0 per glyph data 2" Ycircumflex dx=0 dy=0 dh=-32 dv=0 dx=0 dy=0 dh=0 dv=0
PairPos2: "'kern' Horizontal Kerning in Latin lookup 0 per glyph data 2" Wcircumflex dx=0 dy=0 dh=-23 dv=0 dx=0 dy=0 dh=0 dv=0
PairPos2: "'kern' Horizontal Kerning in Latin lookup 0 per glyph data 2" Eng dx=0 dy=0 dh=-11 dv=0 dx=0 dy=0 dh=0 dv=0
PairPos2: "'kern' Horizontal Kerning in Latin lookup 0 per glyph data 2" Ncaron dx=0 dy=0 dh=-11 dv=0 dx=0 dy=0 dh=0 dv=0
PairPos2: "'kern' Horizontal Kerning in Latin lookup 0 per glyph data 2" Ncommaaccent dx=0 dy=0 dh=-11 dv=0 dx=0 dy=0 dh=0 dv=0
PairPos2: "'kern' Horizontal Kerning in Latin lookup 0 per glyph data 2" Nacute dx=0 dy=0 dh=-11 dv=0 dx=0 dy=0 dh=0 dv=0
PairPos2: "'kern' Horizontal Kerning in Latin lookup 0 per glyph data 2" Aogonek dx=0 dy=0 dh=-30 dv=0 dx=0 dy=0 dh=0 dv=0
PairPos2: "'kern' Horizontal Kerning in Latin lookup 0 per glyph data 2" Abreve dx=0 dy=0 dh=-30 dv=0 dx=0 dy=0 dh=0 dv=0
PairPos2: "'kern' Horizontal Kerning in Latin lookup 0 per glyph data 2" Amacron dx=0 dy=0 dh=-30 dv=0 dx=0 dy=0 dh=0 dv=0
PairPos2: "'kern' Horizontal Kerning in Latin lookup 0 per glyph data 2" Yacute dx=0 dy=0 dh=-32 dv=0 dx=0 dy=0 dh=0 dv=0
PairPos2: "'kern' Horizontal Kerning in Latin lookup 0 per glyph data 2" Ntilde dx=0 dy=0 dh=-11 dv=0 dx=0 dy=0 dh=0 dv=0
PairPos2: "'kern' Horizontal Kerning in Latin lookup 0 per glyph data 2" AE dx=0 dy=0 dh=-17 dv=0 dx=0 dy=0 dh=0 dv=0
PairPos2: "'kern' Horizontal Kerning in Latin lookup 0 per glyph data 2" Aring dx=0 dy=0 dh=-30 dv=0 dx=0 dy=0 dh=0 dv=0
PairPos2: "'kern' Horizontal Kerning in Latin lookup 0 per glyph data 2" Adieresis dx=0 dy=0 dh=-30 dv=0 dx=0 dy=0 dh=0 dv=0
PairPos2: "'kern' Horizontal Kerning in Latin lookup 0 per glyph data 2" Atilde dx=0 dy=0 dh=-30 dv=0 dx=0 dy=0 dh=0 dv=0
PairPos2: "'kern' Horizontal Kerning in Latin lookup 0 per glyph data 2" Acircumflex dx=0 dy=0 dh=-30 dv=0 dx=0 dy=0 dh=0 dv=0
PairPos2: "'kern' Horizontal Kerning in Latin lookup 0 per glyph data 2" Aacute dx=0 dy=0 dh=-30 dv=0 dx=0 dy=0 dh=0 dv=0
PairPos2: "'kern' Horizontal Kerning in Latin lookup 0 per glyph data 2" Agrave dx=0 dy=0 dh=-30 dv=0 dx=0 dy=0 dh=0 dv=0
PairPos2: "'kern' Horizontal Kerning in Latin lookup 0 per glyph data 2" braceright dx=0 dy=0 dh=-10 dv=0 dx=0 dy=0 dh=0 dv=0
PairPos2: "'kern' Horizontal Kerning in Latin lookup 0 per glyph data 2" bracketright dx=0 dy=0 dh=-22 dv=0 dx=0 dy=0 dh=0 dv=0
PairPos2: "'kern' Horizontal Kerning in Latin lookup 0 per glyph data 2" Y dx=0 dy=0 dh=-32 dv=0 dx=0 dy=0 dh=0 dv=0
PairPos2: "'kern' Horizontal Kerning in Latin lookup 0 per glyph data 2" X dx=0 dy=0 dh=-15 dv=0 dx=0 dy=0 dh=0 dv=0
PairPos2: "'kern' Horizontal Kerning in Latin lookup 0 per glyph data 2" W dx=0 dy=0 dh=-23 dv=0 dx=0 dy=0 dh=0 dv=0
PairPos2: "'kern' Horizontal Kerning in Latin lookup 0 per glyph data 2" V dx=0 dy=0 dh=-24 dv=0 dx=0 dy=0 dh=0 dv=0
PairPos2: "'kern' Horizontal Kerning in Latin lookup 0 per glyph data 2" N dx=0 dy=0 dh=-11 dv=0 dx=0 dy=0 dh=0 dv=0
PairPos2: "'kern' Horizontal Kerning in Latin lookup 0 per glyph data 2" A dx=0 dy=0 dh=-30 dv=0 dx=0 dy=0 dh=0 dv=0
PairPos2: "'kern' Horizontal Kerning in Latin lookup 0 per glyph data 2" parenright dx=0 dy=0 dh=-22 dv=0 dx=0 dy=0 dh=0 dv=0
EndChar

StartChar: one
Encoding: 49 49 19
Width: 560
GlyphClass: 2
Flags: MW
HStem: 0 14<69 89 433 460 66 89> 546 16<154 171.5> 684 20G<451 485 485 485>
LayerCount: 2
Fore
SplineSet
361 220 m 2
 351 181 332 136 332 93 c 0
 332 34 403 14 463 14 c 1
 460 0 l 1
 66 0 l 1
 69 14 l 1
 109 14 175 20 196 39 c 0
 225 62 236 96 248 140 c 2
 353 535 l 2
 354 538 354 540 355 543 c 2
 355 549 l 2
 355 557 351 561 342 561 c 0
 332 561 316 558 294 553 c 0
 273 548 189 546 154 546 c 1
 154 562 l 1
 239 562 353 619 401 658 c 0
 418 672 435 688 451 704 c 1
 485 704 l 1
 361 220 l 2
EndSplineSet
Validated: 1
Substitution2: "'pnum' Proportional Numbers in Latin lookup 13 subtable" one.prop
Substitution2: "'onum' Oldstyle Figures lookup 11 subtable" one.oldstyle
Substitution2: "'dnom' Denominators in Latin lookup 10 subtable" one.denominator
Substitution2: "'sinf' Scientific Inferiors in Latin lookup 9 subtable" oneinferior
Substitution2: "'sups' Superscript in Latin lookup 8 subtable" one.superior
PairPos2: "'kern' Horizontal Kerning in Latin lookup 0 per glyph data 2" W.ss01 dx=0 dy=0 dh=-19 dv=0 dx=0 dy=0 dh=0 dv=0
PairPos2: "'kern' Horizontal Kerning in Latin lookup 0 per glyph data 2" V.ss01 dx=0 dy=0 dh=-18 dv=0 dx=0 dy=0 dh=0 dv=0
PairPos2: "'kern' Horizontal Kerning in Latin lookup 0 per glyph data 2" A.ss01 dx=0 dy=0 dh=14 dv=0 dx=0 dy=0 dh=0 dv=0
PairPos2: "'kern' Horizontal Kerning in Latin lookup 0 per glyph data 2" minus dx=0 dy=0 dh=-14 dv=0 dx=0 dy=0 dh=0 dv=0
PairPos2: "'kern' Horizontal Kerning in Latin lookup 0 per glyph data 2" emdash dx=0 dy=0 dh=-15 dv=0 dx=0 dy=0 dh=0 dv=0
PairPos2: "'kern' Horizontal Kerning in Latin lookup 0 per glyph data 2" endash dx=0 dy=0 dh=-15 dv=0 dx=0 dy=0 dh=0 dv=0
PairPos2: "'kern' Horizontal Kerning in Latin lookup 0 per glyph data 2" Ytilde dx=0 dy=0 dh=-23 dv=0 dx=0 dy=0 dh=0 dv=0
PairPos2: "'kern' Horizontal Kerning in Latin lookup 0 per glyph data 2" Ygrave dx=0 dy=0 dh=-23 dv=0 dx=0 dy=0 dh=0 dv=0
PairPos2: "'kern' Horizontal Kerning in Latin lookup 0 per glyph data 2" Udotbelow dx=0 dy=0 dh=-14 dv=0 dx=0 dy=0 dh=0 dv=0
PairPos2: "'kern' Horizontal Kerning in Latin lookup 0 per glyph data 2" Odotbelow dx=0 dy=0 dh=-14 dv=0 dx=0 dy=0 dh=0 dv=0
PairPos2: "'kern' Horizontal Kerning in Latin lookup 0 per glyph data 2" Wdieresis dx=0 dy=0 dh=-25 dv=0 dx=0 dy=0 dh=0 dv=0
PairPos2: "'kern' Horizontal Kerning in Latin lookup 0 per glyph data 2" Wacute dx=0 dy=0 dh=-25 dv=0 dx=0 dy=0 dh=0 dv=0
PairPos2: "'kern' Horizontal Kerning in Latin lookup 0 per glyph data 2" Wgrave dx=0 dy=0 dh=-25 dv=0 dx=0 dy=0 dh=0 dv=0
PairPos2: "'kern' Horizontal Kerning in Latin lookup 0 per glyph data 2" Tdotbelow dx=0 dy=0 dh=-15 dv=0 dx=0 dy=0 dh=0 dv=0
PairPos2: "'kern' Horizontal Kerning in Latin lookup 0 per glyph data 2" uni021A dx=0 dy=0 dh=-15 dv=0 dx=0 dy=0 dh=0 dv=0
PairPos2: "'kern' Horizontal Kerning in Latin lookup 0 per glyph data 2" Oslashacute dx=0 dy=0 dh=-14 dv=0 dx=0 dy=0 dh=0 dv=0
PairPos2: "'kern' Horizontal Kerning in Latin lookup 0 per glyph data 2" AEacute dx=0 dy=0 dh=15 dv=0 dx=0 dy=0 dh=0 dv=0
PairPos2: "'kern' Horizontal Kerning in Latin lookup 0 per glyph data 2" Aringacute dx=0 dy=0 dh=36 dv=0 dx=0 dy=0 dh=0 dv=0
PairPos2: "'kern' Horizontal Kerning in Latin lookup 0 per glyph data 2" Ydieresis dx=0 dy=0 dh=-23 dv=0 dx=0 dy=0 dh=0 dv=0
PairPos2: "'kern' Horizontal Kerning in Latin lookup 0 per glyph data 2" Ycircumflex dx=0 dy=0 dh=-23 dv=0 dx=0 dy=0 dh=0 dv=0
PairPos2: "'kern' Horizontal Kerning in Latin lookup 0 per glyph data 2" Wcircumflex dx=0 dy=0 dh=-25 dv=0 dx=0 dy=0 dh=0 dv=0
PairPos2: "'kern' Horizontal Kerning in Latin lookup 0 per glyph data 2" Uogonek dx=0 dy=0 dh=-14 dv=0 dx=0 dy=0 dh=0 dv=0
PairPos2: "'kern' Horizontal Kerning in Latin lookup 0 per glyph data 2" Uhungarumlaut dx=0 dy=0 dh=-14 dv=0 dx=0 dy=0 dh=0 dv=0
PairPos2: "'kern' Horizontal Kerning in Latin lookup 0 per glyph data 2" Uring dx=0 dy=0 dh=-14 dv=0 dx=0 dy=0 dh=0 dv=0
PairPos2: "'kern' Horizontal Kerning in Latin lookup 0 per glyph data 2" Ubreve dx=0 dy=0 dh=-14 dv=0 dx=0 dy=0 dh=0 dv=0
PairPos2: "'kern' Horizontal Kerning in Latin lookup 0 per glyph data 2" Umacron dx=0 dy=0 dh=-14 dv=0 dx=0 dy=0 dh=0 dv=0
PairPos2: "'kern' Horizontal Kerning in Latin lookup 0 per glyph data 2" Utilde dx=0 dy=0 dh=-14 dv=0 dx=0 dy=0 dh=0 dv=0
PairPos2: "'kern' Horizontal Kerning in Latin lookup 0 per glyph data 2" Tbar dx=0 dy=0 dh=-15 dv=0 dx=0 dy=0 dh=0 dv=0
PairPos2: "'kern' Horizontal Kerning in Latin lookup 0 per glyph data 2" Tcaron dx=0 dy=0 dh=-15 dv=0 dx=0 dy=0 dh=0 dv=0
PairPos2: "'kern' Horizontal Kerning in Latin lookup 0 per glyph data 2" uni0162 dx=0 dy=0 dh=-15 dv=0 dx=0 dy=0 dh=0 dv=0
PairPos2: "'kern' Horizontal Kerning in Latin lookup 0 per glyph data 2" OE dx=0 dy=0 dh=-14 dv=0 dx=0 dy=0 dh=0 dv=0
PairPos2: "'kern' Horizontal Kerning in Latin lookup 0 per glyph data 2" Ohungarumlaut dx=0 dy=0 dh=-14 dv=0 dx=0 dy=0 dh=0 dv=0
PairPos2: "'kern' Horizontal Kerning in Latin lookup 0 per glyph data 2" Obreve dx=0 dy=0 dh=-14 dv=0 dx=0 dy=0 dh=0 dv=0
PairPos2: "'kern' Horizontal Kerning in Latin lookup 0 per glyph data 2" Omacron dx=0 dy=0 dh=-14 dv=0 dx=0 dy=0 dh=0 dv=0
PairPos2: "'kern' Horizontal Kerning in Latin lookup 0 per glyph data 2" Gcommaaccent dx=0 dy=0 dh=-14 dv=0 dx=0 dy=0 dh=0 dv=0
PairPos2: "'kern' Horizontal Kerning in Latin lookup 0 per glyph data 2" Gdotaccent dx=0 dy=0 dh=-14 dv=0 dx=0 dy=0 dh=0 dv=0
PairPos2: "'kern' Horizontal Kerning in Latin lookup 0 per glyph data 2" Gbreve dx=0 dy=0 dh=-14 dv=0 dx=0 dy=0 dh=0 dv=0
PairPos2: "'kern' Horizontal Kerning in Latin lookup 0 per glyph data 2" Gcircumflex dx=0 dy=0 dh=-14 dv=0 dx=0 dy=0 dh=0 dv=0
PairPos2: "'kern' Horizontal Kerning in Latin lookup 0 per glyph data 2" Ccaron dx=0 dy=0 dh=-14 dv=0 dx=0 dy=0 dh=0 dv=0
PairPos2: "'kern' Horizontal Kerning in Latin lookup 0 per glyph data 2" Cdotaccent dx=0 dy=0 dh=-14 dv=0 dx=0 dy=0 dh=0 dv=0
PairPos2: "'kern' Horizontal Kerning in Latin lookup 0 per glyph data 2" Ccircumflex dx=0 dy=0 dh=-14 dv=0 dx=0 dy=0 dh=0 dv=0
PairPos2: "'kern' Horizontal Kerning in Latin lookup 0 per glyph data 2" Cacute dx=0 dy=0 dh=-14 dv=0 dx=0 dy=0 dh=0 dv=0
PairPos2: "'kern' Horizontal Kerning in Latin lookup 0 per glyph data 2" Aogonek dx=0 dy=0 dh=36 dv=0 dx=0 dy=0 dh=0 dv=0
PairPos2: "'kern' Horizontal Kerning in Latin lookup 0 per glyph data 2" Abreve dx=0 dy=0 dh=36 dv=0 dx=0 dy=0 dh=0 dv=0
PairPos2: "'kern' Horizontal Kerning in Latin lookup 0 per glyph data 2" Amacron dx=0 dy=0 dh=36 dv=0 dx=0 dy=0 dh=0 dv=0
PairPos2: "'kern' Horizontal Kerning in Latin lookup 0 per glyph data 2" divide dx=0 dy=0 dh=-21 dv=0 dx=0 dy=0 dh=0 dv=0
PairPos2: "'kern' Horizontal Kerning in Latin lookup 0 per glyph data 2" Yacute dx=0 dy=0 dh=-23 dv=0 dx=0 dy=0 dh=0 dv=0
PairPos2: "'kern' Horizontal Kerning in Latin lookup 0 per glyph data 2" Udieresis dx=0 dy=0 dh=-14 dv=0 dx=0 dy=0 dh=0 dv=0
PairPos2: "'kern' Horizontal Kerning in Latin lookup 0 per glyph data 2" Ucircumflex dx=0 dy=0 dh=-14 dv=0 dx=0 dy=0 dh=0 dv=0
PairPos2: "'kern' Horizontal Kerning in Latin lookup 0 per glyph data 2" Uacute dx=0 dy=0 dh=-14 dv=0 dx=0 dy=0 dh=0 dv=0
PairPos2: "'kern' Horizontal Kerning in Latin lookup 0 per glyph data 2" Ugrave dx=0 dy=0 dh=-14 dv=0 dx=0 dy=0 dh=0 dv=0
PairPos2: "'kern' Horizontal Kerning in Latin lookup 0 per glyph data 2" Oslash dx=0 dy=0 dh=-14 dv=0 dx=0 dy=0 dh=0 dv=0
PairPos2: "'kern' Horizontal Kerning in Latin lookup 0 per glyph data 2" Odieresis dx=0 dy=0 dh=-14 dv=0 dx=0 dy=0 dh=0 dv=0
PairPos2: "'kern' Horizontal Kerning in Latin lookup 0 per glyph data 2" Otilde dx=0 dy=0 dh=-14 dv=0 dx=0 dy=0 dh=0 dv=0
PairPos2: "'kern' Horizontal Kerning in Latin lookup 0 per glyph data 2" Ocircumflex dx=0 dy=0 dh=-14 dv=0 dx=0 dy=0 dh=0 dv=0
PairPos2: "'kern' Horizontal Kerning in Latin lookup 0 per glyph data 2" Oacute dx=0 dy=0 dh=-14 dv=0 dx=0 dy=0 dh=0 dv=0
PairPos2: "'kern' Horizontal Kerning in Latin lookup 0 per glyph data 2" Ograve dx=0 dy=0 dh=-14 dv=0 dx=0 dy=0 dh=0 dv=0
PairPos2: "'kern' Horizontal Kerning in Latin lookup 0 per glyph data 2" Ccedilla dx=0 dy=0 dh=-14 dv=0 dx=0 dy=0 dh=0 dv=0
PairPos2: "'kern' Horizontal Kerning in Latin lookup 0 per glyph data 2" AE dx=0 dy=0 dh=15 dv=0 dx=0 dy=0 dh=0 dv=0
PairPos2: "'kern' Horizontal Kerning in Latin lookup 0 per glyph data 2" Aring dx=0 dy=0 dh=36 dv=0 dx=0 dy=0 dh=0 dv=0
PairPos2: "'kern' Horizontal Kerning in Latin lookup 0 per glyph data 2" Adieresis dx=0 dy=0 dh=36 dv=0 dx=0 dy=0 dh=0 dv=0
PairPos2: "'kern' Horizontal Kerning in Latin lookup 0 per glyph data 2" Atilde dx=0 dy=0 dh=36 dv=0 dx=0 dy=0 dh=0 dv=0
PairPos2: "'kern' Horizontal Kerning in Latin lookup 0 per glyph data 2" Acircumflex dx=0 dy=0 dh=36 dv=0 dx=0 dy=0 dh=0 dv=0
PairPos2: "'kern' Horizontal Kerning in Latin lookup 0 per glyph data 2" Aacute dx=0 dy=0 dh=36 dv=0 dx=0 dy=0 dh=0 dv=0
PairPos2: "'kern' Horizontal Kerning in Latin lookup 0 per glyph data 2" Agrave dx=0 dy=0 dh=36 dv=0 dx=0 dy=0 dh=0 dv=0
PairPos2: "'kern' Horizontal Kerning in Latin lookup 0 per glyph data 2" periodcentered dx=0 dy=0 dh=-19 dv=0 dx=0 dy=0 dh=0 dv=0
PairPos2: "'kern' Horizontal Kerning in Latin lookup 0 per glyph data 2" plusminus dx=0 dy=0 dh=-9 dv=0 dx=0 dy=0 dh=0 dv=0
PairPos2: "'kern' Horizontal Kerning in Latin lookup 0 per glyph data 2" degree dx=0 dy=0 dh=-12 dv=0 dx=0 dy=0 dh=0 dv=0
PairPos2: "'kern' Horizontal Kerning in Latin lookup 0 per glyph data 2" uni00AD dx=0 dy=0 dh=-15 dv=0 dx=0 dy=0 dh=0 dv=0
PairPos2: "'kern' Horizontal Kerning in Latin lookup 0 per glyph data 2" bracketright dx=0 dy=0 dh=-16 dv=0 dx=0 dy=0 dh=0 dv=0
PairPos2: "'kern' Horizontal Kerning in Latin lookup 0 per glyph data 2" Y dx=0 dy=0 dh=-23 dv=0 dx=0 dy=0 dh=0 dv=0
PairPos2: "'kern' Horizontal Kerning in Latin lookup 0 per glyph data 2" W dx=0 dy=0 dh=-25 dv=0 dx=0 dy=0 dh=0 dv=0
PairPos2: "'kern' Horizontal Kerning in Latin lookup 0 per glyph data 2" V dx=0 dy=0 dh=-26 dv=0 dx=0 dy=0 dh=0 dv=0
PairPos2: "'kern' Horizontal Kerning in Latin lookup 0 per glyph data 2" U dx=0 dy=0 dh=-14 dv=0 dx=0 dy=0 dh=0 dv=0
PairPos2: "'kern' Horizontal Kerning in Latin lookup 0 per glyph data 2" T dx=0 dy=0 dh=-15 dv=0 dx=0 dy=0 dh=0 dv=0
PairPos2: "'kern' Horizontal Kerning in Latin lookup 0 per glyph data 2" O dx=0 dy=0 dh=-14 dv=0 dx=0 dy=0 dh=0 dv=0
PairPos2: "'kern' Horizontal Kerning in Latin lookup 0 per glyph data 2" G dx=0 dy=0 dh=-14 dv=0 dx=0 dy=0 dh=0 dv=0
PairPos2: "'kern' Horizontal Kerning in Latin lookup 0 per glyph data 2" C dx=0 dy=0 dh=-14 dv=0 dx=0 dy=0 dh=0 dv=0
PairPos2: "'kern' Horizontal Kerning in Latin lookup 0 per glyph data 2" A dx=0 dy=0 dh=36 dv=0 dx=0 dy=0 dh=0 dv=0
PairPos2: "'kern' Horizontal Kerning in Latin lookup 0 per glyph data 2" less dx=0 dy=0 dh=-14 dv=0 dx=0 dy=0 dh=0 dv=0
PairPos2: "'kern' Horizontal Kerning in Latin lookup 0 per glyph data 2" six dx=0 dy=0 dh=-11 dv=0 dx=0 dy=0 dh=0 dv=0
PairPos2: "'kern' Horizontal Kerning in Latin lookup 0 per glyph data 2" four dx=0 dy=0 dh=-14 dv=0 dx=0 dy=0 dh=0 dv=0
PairPos2: "'kern' Horizontal Kerning in Latin lookup 0 per glyph data 2" zero dx=0 dy=0 dh=-10 dv=0 dx=0 dy=0 dh=0 dv=0
PairPos2: "'kern' Horizontal Kerning in Latin lookup 0 per glyph data 2" hyphen dx=0 dy=0 dh=-15 dv=0 dx=0 dy=0 dh=0 dv=0
PairPos2: "'kern' Horizontal Kerning in Latin lookup 0 per glyph data 2" quotesingle dx=0 dy=0 dh=-13 dv=0 dx=0 dy=0 dh=0 dv=0
PairPos2: "'kern' Horizontal Kerning in Latin lookup 0 per glyph data 2" numbersign dx=0 dy=0 dh=-11 dv=0 dx=0 dy=0 dh=0 dv=0
PairPos2: "'kern' Horizontal Kerning in Latin lookup 0 per glyph data 2" quotedbl dx=0 dy=0 dh=-13 dv=0 dx=0 dy=0 dh=0 dv=0
PairPos2: "'kern' Horizontal Kerning in Latin lookup 0 per glyph data 2" Q dx=0 dy=0 dh=-15 dv=0 dx=0 dy=0 dh=0 dv=0
EndChar

StartChar: two
Encoding: 50 50 20
Width: 560
GlyphClass: 2
Flags: MW
HStem: 0 78<159 363 363 394.5 159 459> 400 48<221 313> 683 22<357 387 357 401>
VStem: 137 75<505.5 524.5> 476 87
LayerCount: 2
Fore
SplineSet
159 78 m 1
 363 78 l 2
 426 78 460 104 484 146 c 1
 510 146 l 1
 459 0 l 1
 40 0 l 1
 53 48 l 1
 128 108 187 161 239 209 c 0
 335 297 474 400 476 542 c 0
 477 609 444 683 358 683 c 0
 266 683 212 605 212 533 c 0
 212 478 259 448 313 448 c 1
 308 433 299 420 285 412 c 0
 271 404 255 400 236 400 c 0
 206 400 182 410 164 431 c 0
 146 452 137 478 137 511 c 0
 137 538 143 564 156 587 c 0
 168 610 185 631 207 648 c 0
 228 665 253 680 281 690 c 0
 310 700 341 705 373 705 c 0
 401 705 428 701 451 693 c 0
 474 685 494 674 510 660 c 0
 527 646 540 628 549 607 c 0
 558 586 563 564 563 539 c 0
 563 508 555 477 541 445 c 0
 527 413 495 379 464 344 c 0
 433 309 384 270 335 229 c 0
 287 187 229 143 159 93 c 1
 159 78 l 1
EndSplineSet
Validated: 33
Substitution2: "'pnum' Proportional Numbers in Latin lookup 13 subtable" two.prop
Substitution2: "'onum' Oldstyle Figures lookup 11 subtable" two.oldstyle
Substitution2: "'dnom' Denominators in Latin lookup 10 subtable" two.denominator
Substitution2: "'sinf' Scientific Inferiors in Latin lookup 9 subtable" twoinferior
Substitution2: "'sups' Superscript in Latin lookup 8 subtable" two.superior
PairPos2: "'kern' Horizontal Kerning in Latin lookup 0 per glyph data 2" W.ss01 dx=0 dy=0 dh=-20 dv=0 dx=0 dy=0 dh=0 dv=0
PairPos2: "'kern' Horizontal Kerning in Latin lookup 0 per glyph data 2" V.ss01 dx=0 dy=0 dh=-19 dv=0 dx=0 dy=0 dh=0 dv=0
PairPos2: "'kern' Horizontal Kerning in Latin lookup 0 per glyph data 2" Ytilde dx=0 dy=0 dh=-26 dv=0 dx=0 dy=0 dh=0 dv=0
PairPos2: "'kern' Horizontal Kerning in Latin lookup 0 per glyph data 2" Ygrave dx=0 dy=0 dh=-26 dv=0 dx=0 dy=0 dh=0 dv=0
PairPos2: "'kern' Horizontal Kerning in Latin lookup 0 per glyph data 2" Udotbelow dx=0 dy=0 dh=-9 dv=0 dx=0 dy=0 dh=0 dv=0
PairPos2: "'kern' Horizontal Kerning in Latin lookup 0 per glyph data 2" Wdieresis dx=0 dy=0 dh=-22 dv=0 dx=0 dy=0 dh=0 dv=0
PairPos2: "'kern' Horizontal Kerning in Latin lookup 0 per glyph data 2" Wacute dx=0 dy=0 dh=-22 dv=0 dx=0 dy=0 dh=0 dv=0
PairPos2: "'kern' Horizontal Kerning in Latin lookup 0 per glyph data 2" Wgrave dx=0 dy=0 dh=-22 dv=0 dx=0 dy=0 dh=0 dv=0
PairPos2: "'kern' Horizontal Kerning in Latin lookup 0 per glyph data 2" Ydieresis dx=0 dy=0 dh=-26 dv=0 dx=0 dy=0 dh=0 dv=0
PairPos2: "'kern' Horizontal Kerning in Latin lookup 0 per glyph data 2" Ycircumflex dx=0 dy=0 dh=-26 dv=0 dx=0 dy=0 dh=0 dv=0
PairPos2: "'kern' Horizontal Kerning in Latin lookup 0 per glyph data 2" Wcircumflex dx=0 dy=0 dh=-22 dv=0 dx=0 dy=0 dh=0 dv=0
PairPos2: "'kern' Horizontal Kerning in Latin lookup 0 per glyph data 2" Uogonek dx=0 dy=0 dh=-9 dv=0 dx=0 dy=0 dh=0 dv=0
PairPos2: "'kern' Horizontal Kerning in Latin lookup 0 per glyph data 2" Uhungarumlaut dx=0 dy=0 dh=-9 dv=0 dx=0 dy=0 dh=0 dv=0
PairPos2: "'kern' Horizontal Kerning in Latin lookup 0 per glyph data 2" Uring dx=0 dy=0 dh=-9 dv=0 dx=0 dy=0 dh=0 dv=0
PairPos2: "'kern' Horizontal Kerning in Latin lookup 0 per glyph data 2" Ubreve dx=0 dy=0 dh=-9 dv=0 dx=0 dy=0 dh=0 dv=0
PairPos2: "'kern' Horizontal Kerning in Latin lookup 0 per glyph data 2" Umacron dx=0 dy=0 dh=-9 dv=0 dx=0 dy=0 dh=0 dv=0
PairPos2: "'kern' Horizontal Kerning in Latin lookup 0 per glyph data 2" Utilde dx=0 dy=0 dh=-9 dv=0 dx=0 dy=0 dh=0 dv=0
PairPos2: "'kern' Horizontal Kerning in Latin lookup 0 per glyph data 2" Yacute dx=0 dy=0 dh=-26 dv=0 dx=0 dy=0 dh=0 dv=0
PairPos2: "'kern' Horizontal Kerning in Latin lookup 0 per glyph data 2" Udieresis dx=0 dy=0 dh=-9 dv=0 dx=0 dy=0 dh=0 dv=0
PairPos2: "'kern' Horizontal Kerning in Latin lookup 0 per glyph data 2" Ucircumflex dx=0 dy=0 dh=-9 dv=0 dx=0 dy=0 dh=0 dv=0
PairPos2: "'kern' Horizontal Kerning in Latin lookup 0 per glyph data 2" Uacute dx=0 dy=0 dh=-9 dv=0 dx=0 dy=0 dh=0 dv=0
PairPos2: "'kern' Horizontal Kerning in Latin lookup 0 per glyph data 2" Ugrave dx=0 dy=0 dh=-9 dv=0 dx=0 dy=0 dh=0 dv=0
PairPos2: "'kern' Horizontal Kerning in Latin lookup 0 per glyph data 2" bracketright dx=0 dy=0 dh=-18 dv=0 dx=0 dy=0 dh=0 dv=0
PairPos2: "'kern' Horizontal Kerning in Latin lookup 0 per glyph data 2" Y dx=0 dy=0 dh=-26 dv=0 dx=0 dy=0 dh=0 dv=0
PairPos2: "'kern' Horizontal Kerning in Latin lookup 0 per glyph data 2" W dx=0 dy=0 dh=-22 dv=0 dx=0 dy=0 dh=0 dv=0
PairPos2: "'kern' Horizontal Kerning in Latin lookup 0 per glyph data 2" V dx=0 dy=0 dh=-23 dv=0 dx=0 dy=0 dh=0 dv=0
PairPos2: "'kern' Horizontal Kerning in Latin lookup 0 per glyph data 2" U dx=0 dy=0 dh=-9 dv=0 dx=0 dy=0 dh=0 dv=0
PairPos2: "'kern' Horizontal Kerning in Latin lookup 0 per glyph data 2" parenright dx=0 dy=0 dh=-10 dv=0 dx=0 dy=0 dh=0 dv=0
EndChar

StartChar: three
Encoding: 51 51 21
Width: 560
GlyphClass: 2
Flags: MW
HStem: -9 22<201 268> 335 46 472 34<213 298> 682 22<328.5 384.5>
VStem: 42 85<120.5 135 92.5 150> 160 75<546.5 581> 411 86<175.5 228> 450 80<541 590.5>
LayerCount: 2
Fore
SplineSet
127 121 m 0xfe
 127 64 166 13 236 13 c 0
 339 13 411 107 411 198 c 0xfe
 411 258 367 310 330 332 c 0
 317 339 304 342 290 342 c 0
 270 342 237 335 219 335 c 0
 200 335 190 337 190 349 c 0
 190 374 228 375 253 381 c 0
 270 385 289 389 311 394 c 0
 382 412 450 466 450 558 c 0
 450 623 420 682 349 682 c 0
 270 682 235 622 235 565 c 0
 235 528 263 506 298 506 c 1
 288 486 265 472 237 472 c 0
 189 472 160 508 160 556 c 0
 160 606 186 637 216 662 c 0
 248 688 300 704 357 704 c 0
 453 704 530 657 530 565 c 0xfd
 530 517 507 476 482 448 c 0
 457 415 414 386 367 376 c 1
 367 371 l 1
 440 352 497 299 497 212 c 0
 497 139 460 92 419 56 c 0
 373 19 307 -9 229 -9 c 0
 149 -9 82 21 55 74 c 0
 46 91 42 110 42 131 c 0
 42 169 58 197 74 219 c 0
 92 239 118 256 153 256 c 0
 184 256 208 242 214 217 c 1
 189 217 165 207 153 192 c 0
 139 178 127 149 127 121 c 0xfe
EndSplineSet
Validated: 1
Substitution2: "'pnum' Proportional Numbers in Latin lookup 13 subtable" three.prop
Substitution2: "'onum' Oldstyle Figures lookup 11 subtable" three.oldstyle
Substitution2: "'dnom' Denominators in Latin lookup 10 subtable" three.denominator
Substitution2: "'sinf' Scientific Inferiors in Latin lookup 9 subtable" threeinferior
Substitution2: "'sups' Superscript in Latin lookup 8 subtable" three.superior
PairPos2: "'kern' Horizontal Kerning in Latin lookup 0 per glyph data 2" W.ss01 dx=0 dy=0 dh=-22 dv=0 dx=0 dy=0 dh=0 dv=0
PairPos2: "'kern' Horizontal Kerning in Latin lookup 0 per glyph data 2" V.ss01 dx=0 dy=0 dh=-21 dv=0 dx=0 dy=0 dh=0 dv=0
PairPos2: "'kern' Horizontal Kerning in Latin lookup 0 per glyph data 2" Ytilde dx=0 dy=0 dh=-30 dv=0 dx=0 dy=0 dh=0 dv=0
PairPos2: "'kern' Horizontal Kerning in Latin lookup 0 per glyph data 2" Ygrave dx=0 dy=0 dh=-30 dv=0 dx=0 dy=0 dh=0 dv=0
PairPos2: "'kern' Horizontal Kerning in Latin lookup 0 per glyph data 2" Udotbelow dx=0 dy=0 dh=-10 dv=0 dx=0 dy=0 dh=0 dv=0
PairPos2: "'kern' Horizontal Kerning in Latin lookup 0 per glyph data 2" Wdieresis dx=0 dy=0 dh=-23 dv=0 dx=0 dy=0 dh=0 dv=0
PairPos2: "'kern' Horizontal Kerning in Latin lookup 0 per glyph data 2" Wacute dx=0 dy=0 dh=-23 dv=0 dx=0 dy=0 dh=0 dv=0
PairPos2: "'kern' Horizontal Kerning in Latin lookup 0 per glyph data 2" Wgrave dx=0 dy=0 dh=-23 dv=0 dx=0 dy=0 dh=0 dv=0
PairPos2: "'kern' Horizontal Kerning in Latin lookup 0 per glyph data 2" Aringacute dx=0 dy=0 dh=-14 dv=0 dx=0 dy=0 dh=0 dv=0
PairPos2: "'kern' Horizontal Kerning in Latin lookup 0 per glyph data 2" Ydieresis dx=0 dy=0 dh=-30 dv=0 dx=0 dy=0 dh=0 dv=0
PairPos2: "'kern' Horizontal Kerning in Latin lookup 0 per glyph data 2" Ycircumflex dx=0 dy=0 dh=-30 dv=0 dx=0 dy=0 dh=0 dv=0
PairPos2: "'kern' Horizontal Kerning in Latin lookup 0 per glyph data 2" Wcircumflex dx=0 dy=0 dh=-23 dv=0 dx=0 dy=0 dh=0 dv=0
PairPos2: "'kern' Horizontal Kerning in Latin lookup 0 per glyph data 2" Uogonek dx=0 dy=0 dh=-10 dv=0 dx=0 dy=0 dh=0 dv=0
PairPos2: "'kern' Horizontal Kerning in Latin lookup 0 per glyph data 2" Uhungarumlaut dx=0 dy=0 dh=-10 dv=0 dx=0 dy=0 dh=0 dv=0
PairPos2: "'kern' Horizontal Kerning in Latin lookup 0 per glyph data 2" Uring dx=0 dy=0 dh=-10 dv=0 dx=0 dy=0 dh=0 dv=0
PairPos2: "'kern' Horizontal Kerning in Latin lookup 0 per glyph data 2" Ubreve dx=0 dy=0 dh=-10 dv=0 dx=0 dy=0 dh=0 dv=0
PairPos2: "'kern' Horizontal Kerning in Latin lookup 0 per glyph data 2" Umacron dx=0 dy=0 dh=-10 dv=0 dx=0 dy=0 dh=0 dv=0
PairPos2: "'kern' Horizontal Kerning in Latin lookup 0 per glyph data 2" Utilde dx=0 dy=0 dh=-10 dv=0 dx=0 dy=0 dh=0 dv=0
PairPos2: "'kern' Horizontal Kerning in Latin lookup 0 per glyph data 2" Aogonek dx=0 dy=0 dh=-14 dv=0 dx=0 dy=0 dh=0 dv=0
PairPos2: "'kern' Horizontal Kerning in Latin lookup 0 per glyph data 2" Abreve dx=0 dy=0 dh=-14 dv=0 dx=0 dy=0 dh=0 dv=0
PairPos2: "'kern' Horizontal Kerning in Latin lookup 0 per glyph data 2" Amacron dx=0 dy=0 dh=-14 dv=0 dx=0 dy=0 dh=0 dv=0
PairPos2: "'kern' Horizontal Kerning in Latin lookup 0 per glyph data 2" Yacute dx=0 dy=0 dh=-30 dv=0 dx=0 dy=0 dh=0 dv=0
PairPos2: "'kern' Horizontal Kerning in Latin lookup 0 per glyph data 2" Udieresis dx=0 dy=0 dh=-10 dv=0 dx=0 dy=0 dh=0 dv=0
PairPos2: "'kern' Horizontal Kerning in Latin lookup 0 per glyph data 2" Ucircumflex dx=0 dy=0 dh=-10 dv=0 dx=0 dy=0 dh=0 dv=0
PairPos2: "'kern' Horizontal Kerning in Latin lookup 0 per glyph data 2" Uacute dx=0 dy=0 dh=-10 dv=0 dx=0 dy=0 dh=0 dv=0
PairPos2: "'kern' Horizontal Kerning in Latin lookup 0 per glyph data 2" Ugrave dx=0 dy=0 dh=-10 dv=0 dx=0 dy=0 dh=0 dv=0
PairPos2: "'kern' Horizontal Kerning in Latin lookup 0 per glyph data 2" Aring dx=0 dy=0 dh=-14 dv=0 dx=0 dy=0 dh=0 dv=0
PairPos2: "'kern' Horizontal Kerning in Latin lookup 0 per glyph data 2" Adieresis dx=0 dy=0 dh=-14 dv=0 dx=0 dy=0 dh=0 dv=0
PairPos2: "'kern' Horizontal Kerning in Latin lookup 0 per glyph data 2" Atilde dx=0 dy=0 dh=-14 dv=0 dx=0 dy=0 dh=0 dv=0
PairPos2: "'kern' Horizontal Kerning in Latin lookup 0 per glyph data 2" Acircumflex dx=0 dy=0 dh=-14 dv=0 dx=0 dy=0 dh=0 dv=0
PairPos2: "'kern' Horizontal Kerning in Latin lookup 0 per glyph data 2" Aacute dx=0 dy=0 dh=-14 dv=0 dx=0 dy=0 dh=0 dv=0
PairPos2: "'kern' Horizontal Kerning in Latin lookup 0 per glyph data 2" Agrave dx=0 dy=0 dh=-14 dv=0 dx=0 dy=0 dh=0 dv=0
PairPos2: "'kern' Horizontal Kerning in Latin lookup 0 per glyph data 2" degree dx=0 dy=0 dh=-9 dv=0 dx=0 dy=0 dh=0 dv=0
PairPos2: "'kern' Horizontal Kerning in Latin lookup 0 per glyph data 2" braceright dx=0 dy=0 dh=-10 dv=0 dx=0 dy=0 dh=0 dv=0
PairPos2: "'kern' Horizontal Kerning in Latin lookup 0 per glyph data 2" bracketright dx=0 dy=0 dh=-22 dv=0 dx=0 dy=0 dh=0 dv=0
PairPos2: "'kern' Horizontal Kerning in Latin lookup 0 per glyph data 2" Y dx=0 dy=0 dh=-30 dv=0 dx=0 dy=0 dh=0 dv=0
PairPos2: "'kern' Horizontal Kerning in Latin lookup 0 per glyph data 2" W dx=0 dy=0 dh=-23 dv=0 dx=0 dy=0 dh=0 dv=0
PairPos2: "'kern' Horizontal Kerning in Latin lookup 0 per glyph data 2" V dx=0 dy=0 dh=-24 dv=0 dx=0 dy=0 dh=0 dv=0
PairPos2: "'kern' Horizontal Kerning in Latin lookup 0 per glyph data 2" U dx=0 dy=0 dh=-10 dv=0 dx=0 dy=0 dh=0 dv=0
PairPos2: "'kern' Horizontal Kerning in Latin lookup 0 per glyph data 2" A dx=0 dy=0 dh=-14 dv=0 dx=0 dy=0 dh=0 dv=0
PairPos2: "'kern' Horizontal Kerning in Latin lookup 0 per glyph data 2" parenright dx=0 dy=0 dh=-18 dv=0 dx=0 dy=0 dh=0 dv=0
PairPos2: "'kern' Horizontal Kerning in Latin lookup 0 per glyph data 2" quotesingle dx=0 dy=0 dh=-11 dv=0 dx=0 dy=0 dh=0 dv=0
PairPos2: "'kern' Horizontal Kerning in Latin lookup 0 per glyph data 2" quotedbl dx=0 dy=0 dh=-11 dv=0 dx=0 dy=0 dh=0 dv=0
EndChar

StartChar: four
Encoding: 52 52 22
Width: 560
GlyphClass: 2
Flags: MW
HStem: 0 21G<273 357 273 273> 257 35<114 343 436 537> 684 20G<503 543 543 543>
VStem: 273 84<0 0>
LayerCount: 2
Fore
SplineSet
436 292 m 1
 547 292 l 1
 537 257 l 1
 426 257 l 1
 357 0 l 1
 273 0 l 1
 343 257 l 1
 71 257 l 1
 83 303 l 1
 503 704 l 1
 543 704 l 1
 436 292 l 1
351 292 m 1
 418 549 l 1
 429 591 l 1
 114 292 l 1
 351 292 l 1
EndSplineSet
Validated: 1
Substitution2: "'pnum' Proportional Numbers in Latin lookup 13 subtable" four.prop
Substitution2: "'onum' Oldstyle Figures lookup 11 subtable" four.oldstyle
Substitution2: "'dnom' Denominators in Latin lookup 10 subtable" four.denominator
Substitution2: "'sinf' Scientific Inferiors in Latin lookup 9 subtable" fourinferior
Substitution2: "'sups' Superscript in Latin lookup 8 subtable" four.superior
PairPos2: "'kern' Horizontal Kerning in Latin lookup 0 per glyph data 2" W.ss01 dx=0 dy=0 dh=-14 dv=0 dx=0 dy=0 dh=0 dv=0
PairPos2: "'kern' Horizontal Kerning in Latin lookup 0 per glyph data 2" V.ss01 dx=0 dy=0 dh=-14 dv=0 dx=0 dy=0 dh=0 dv=0
PairPos2: "'kern' Horizontal Kerning in Latin lookup 0 per glyph data 2" A.ss01 dx=0 dy=0 dh=-9 dv=0 dx=0 dy=0 dh=0 dv=0
PairPos2: "'kern' Horizontal Kerning in Latin lookup 0 per glyph data 2" Ytilde dx=0 dy=0 dh=-23 dv=0 dx=0 dy=0 dh=0 dv=0
PairPos2: "'kern' Horizontal Kerning in Latin lookup 0 per glyph data 2" Ygrave dx=0 dy=0 dh=-23 dv=0 dx=0 dy=0 dh=0 dv=0
PairPos2: "'kern' Horizontal Kerning in Latin lookup 0 per glyph data 2" Wdieresis dx=0 dy=0 dh=-21 dv=0 dx=0 dy=0 dh=0 dv=0
PairPos2: "'kern' Horizontal Kerning in Latin lookup 0 per glyph data 2" Wacute dx=0 dy=0 dh=-21 dv=0 dx=0 dy=0 dh=0 dv=0
PairPos2: "'kern' Horizontal Kerning in Latin lookup 0 per glyph data 2" Wgrave dx=0 dy=0 dh=-21 dv=0 dx=0 dy=0 dh=0 dv=0
PairPos2: "'kern' Horizontal Kerning in Latin lookup 0 per glyph data 2" Tdotbelow dx=0 dy=0 dh=-14 dv=0 dx=0 dy=0 dh=0 dv=0
PairPos2: "'kern' Horizontal Kerning in Latin lookup 0 per glyph data 2" uni021A dx=0 dy=0 dh=-14 dv=0 dx=0 dy=0 dh=0 dv=0
PairPos2: "'kern' Horizontal Kerning in Latin lookup 0 per glyph data 2" AEacute dx=0 dy=0 dh=-14 dv=0 dx=0 dy=0 dh=0 dv=0
PairPos2: "'kern' Horizontal Kerning in Latin lookup 0 per glyph data 2" Aringacute dx=0 dy=0 dh=-12 dv=0 dx=0 dy=0 dh=0 dv=0
PairPos2: "'kern' Horizontal Kerning in Latin lookup 0 per glyph data 2" Ydieresis dx=0 dy=0 dh=-23 dv=0 dx=0 dy=0 dh=0 dv=0
PairPos2: "'kern' Horizontal Kerning in Latin lookup 0 per glyph data 2" Ycircumflex dx=0 dy=0 dh=-23 dv=0 dx=0 dy=0 dh=0 dv=0
PairPos2: "'kern' Horizontal Kerning in Latin lookup 0 per glyph data 2" Wcircumflex dx=0 dy=0 dh=-21 dv=0 dx=0 dy=0 dh=0 dv=0
PairPos2: "'kern' Horizontal Kerning in Latin lookup 0 per glyph data 2" Tbar dx=0 dy=0 dh=-14 dv=0 dx=0 dy=0 dh=0 dv=0
PairPos2: "'kern' Horizontal Kerning in Latin lookup 0 per glyph data 2" Tcaron dx=0 dy=0 dh=-14 dv=0 dx=0 dy=0 dh=0 dv=0
PairPos2: "'kern' Horizontal Kerning in Latin lookup 0 per glyph data 2" uni0162 dx=0 dy=0 dh=-14 dv=0 dx=0 dy=0 dh=0 dv=0
PairPos2: "'kern' Horizontal Kerning in Latin lookup 0 per glyph data 2" Aogonek dx=0 dy=0 dh=-12 dv=0 dx=0 dy=0 dh=0 dv=0
PairPos2: "'kern' Horizontal Kerning in Latin lookup 0 per glyph data 2" Abreve dx=0 dy=0 dh=-12 dv=0 dx=0 dy=0 dh=0 dv=0
PairPos2: "'kern' Horizontal Kerning in Latin lookup 0 per glyph data 2" Amacron dx=0 dy=0 dh=-12 dv=0 dx=0 dy=0 dh=0 dv=0
PairPos2: "'kern' Horizontal Kerning in Latin lookup 0 per glyph data 2" Yacute dx=0 dy=0 dh=-23 dv=0 dx=0 dy=0 dh=0 dv=0
PairPos2: "'kern' Horizontal Kerning in Latin lookup 0 per glyph data 2" AE dx=0 dy=0 dh=-14 dv=0 dx=0 dy=0 dh=0 dv=0
PairPos2: "'kern' Horizontal Kerning in Latin lookup 0 per glyph data 2" Aring dx=0 dy=0 dh=-12 dv=0 dx=0 dy=0 dh=0 dv=0
PairPos2: "'kern' Horizontal Kerning in Latin lookup 0 per glyph data 2" Adieresis dx=0 dy=0 dh=-12 dv=0 dx=0 dy=0 dh=0 dv=0
PairPos2: "'kern' Horizontal Kerning in Latin lookup 0 per glyph data 2" Atilde dx=0 dy=0 dh=-12 dv=0 dx=0 dy=0 dh=0 dv=0
PairPos2: "'kern' Horizontal Kerning in Latin lookup 0 per glyph data 2" Acircumflex dx=0 dy=0 dh=-12 dv=0 dx=0 dy=0 dh=0 dv=0
PairPos2: "'kern' Horizontal Kerning in Latin lookup 0 per glyph data 2" Aacute dx=0 dy=0 dh=-12 dv=0 dx=0 dy=0 dh=0 dv=0
PairPos2: "'kern' Horizontal Kerning in Latin lookup 0 per glyph data 2" Agrave dx=0 dy=0 dh=-12 dv=0 dx=0 dy=0 dh=0 dv=0
PairPos2: "'kern' Horizontal Kerning in Latin lookup 0 per glyph data 2" degree dx=0 dy=0 dh=-11 dv=0 dx=0 dy=0 dh=0 dv=0
PairPos2: "'kern' Horizontal Kerning in Latin lookup 0 per glyph data 2" braceright dx=0 dy=0 dh=-9 dv=0 dx=0 dy=0 dh=0 dv=0
PairPos2: "'kern' Horizontal Kerning in Latin lookup 0 per glyph data 2" bracketright dx=0 dy=0 dh=-17 dv=0 dx=0 dy=0 dh=0 dv=0
PairPos2: "'kern' Horizontal Kerning in Latin lookup 0 per glyph data 2" Y dx=0 dy=0 dh=-23 dv=0 dx=0 dy=0 dh=0 dv=0
PairPos2: "'kern' Horizontal Kerning in Latin lookup 0 per glyph data 2" X dx=0 dy=0 dh=-11 dv=0 dx=0 dy=0 dh=0 dv=0
PairPos2: "'kern' Horizontal Kerning in Latin lookup 0 per glyph data 2" W dx=0 dy=0 dh=-21 dv=0 dx=0 dy=0 dh=0 dv=0
PairPos2: "'kern' Horizontal Kerning in Latin lookup 0 per glyph data 2" V dx=0 dy=0 dh=-22 dv=0 dx=0 dy=0 dh=0 dv=0
PairPos2: "'kern' Horizontal Kerning in Latin lookup 0 per glyph data 2" T dx=0 dy=0 dh=-14 dv=0 dx=0 dy=0 dh=0 dv=0
PairPos2: "'kern' Horizontal Kerning in Latin lookup 0 per glyph data 2" A dx=0 dy=0 dh=-12 dv=0 dx=0 dy=0 dh=0 dv=0
PairPos2: "'kern' Horizontal Kerning in Latin lookup 0 per glyph data 2" seven dx=0 dy=0 dh=-10 dv=0 dx=0 dy=0 dh=0 dv=0
PairPos2: "'kern' Horizontal Kerning in Latin lookup 0 per glyph data 2" two dx=0 dy=0 dh=-9 dv=0 dx=0 dy=0 dh=0 dv=0
PairPos2: "'kern' Horizontal Kerning in Latin lookup 0 per glyph data 2" one dx=0 dy=0 dh=-9 dv=0 dx=0 dy=0 dh=0 dv=0
PairPos2: "'kern' Horizontal Kerning in Latin lookup 0 per glyph data 2" parenright dx=0 dy=0 dh=-18 dv=0 dx=0 dy=0 dh=0 dv=0
PairPos2: "'kern' Horizontal Kerning in Latin lookup 0 per glyph data 2" quotesingle dx=0 dy=0 dh=-12 dv=0 dx=0 dy=0 dh=0 dv=0
PairPos2: "'kern' Horizontal Kerning in Latin lookup 0 per glyph data 2" quotedbl dx=0 dy=0 dh=-12 dv=0 dx=0 dy=0 dh=0 dv=0
EndChar

StartChar: five
Encoding: 53 53 23
Width: 560
GlyphClass: 2
Flags: MW
HStem: -9 22<226 296> 217 39<149 222> 418 25<310.5 357.5> 606 82<408.5 445.5 390 458.5> 606 98
VStem: 68 76<110.5 152> 446 93<203 256.5 203 298.5>
LayerCount: 2
Fore
SplineSet
234 430 m 2xf6
 258 440 294 443 327 443 c 0
 428 443 492 392 524 322 c 0
 534 298 539 271 539 242 c 0
 539 164 500 103 455 65 c 0
 408 23 338 -9 254 -9 c 0
 198 -9 150 6 119 31 c 0
 90 52 68 87 68 134 c 0
 68 170 81 198 96 220 c 0
 111 238 134 256 164 256 c 0
 193 256 216 241 222 217 c 1
 181 217 144 174 144 131 c 0
 144 71 178 13 259 13 c 0
 380 13 446 147 446 253 c 0
 446 344 401 418 314 418 c 0
 259 418 225 397 196 373 c 0
 189 368 182 365 177 365 c 0
 173 365 171 366 167 368 c 0
 165 372 164 375 164 380 c 0
 164 385 164 388 165 392 c 2
 270 704 l 1xee
 306 691 363 688 417 688 c 0xf6
 474 688 530 692 568 705 c 1
 573 704 l 1xee
 548 633 498 606 419 606 c 0
 398 606 378 608 357 610 c 0
 337 614 297 625 277 631 c 1
 204 416 l 1
 234 430 l 2xf6
EndSplineSet
Validated: 1
Substitution2: "'pnum' Proportional Numbers in Latin lookup 13 subtable" five.prop
Substitution2: "'onum' Oldstyle Figures lookup 11 subtable" five.oldstyle
Substitution2: "'dnom' Denominators in Latin lookup 10 subtable" five.denominator
Substitution2: "'sinf' Scientific Inferiors in Latin lookup 9 subtable" fiveinferior
Substitution2: "'sups' Superscript in Latin lookup 8 subtable" five.superior
PairPos2: "'kern' Horizontal Kerning in Latin lookup 0 per glyph data 2" W.ss01 dx=0 dy=0 dh=-11 dv=0 dx=0 dy=0 dh=0 dv=0
PairPos2: "'kern' Horizontal Kerning in Latin lookup 0 per glyph data 2" V.ss01 dx=0 dy=0 dh=-11 dv=0 dx=0 dy=0 dh=0 dv=0
PairPos2: "'kern' Horizontal Kerning in Latin lookup 0 per glyph data 2" Ytilde dx=0 dy=0 dh=-24 dv=0 dx=0 dy=0 dh=0 dv=0
PairPos2: "'kern' Horizontal Kerning in Latin lookup 0 per glyph data 2" Ygrave dx=0 dy=0 dh=-24 dv=0 dx=0 dy=0 dh=0 dv=0
PairPos2: "'kern' Horizontal Kerning in Latin lookup 0 per glyph data 2" Wdieresis dx=0 dy=0 dh=-18 dv=0 dx=0 dy=0 dh=0 dv=0
PairPos2: "'kern' Horizontal Kerning in Latin lookup 0 per glyph data 2" Wacute dx=0 dy=0 dh=-18 dv=0 dx=0 dy=0 dh=0 dv=0
PairPos2: "'kern' Horizontal Kerning in Latin lookup 0 per glyph data 2" Wgrave dx=0 dy=0 dh=-18 dv=0 dx=0 dy=0 dh=0 dv=0
PairPos2: "'kern' Horizontal Kerning in Latin lookup 0 per glyph data 2" Tdotbelow dx=0 dy=0 dh=-18 dv=0 dx=0 dy=0 dh=0 dv=0
PairPos2: "'kern' Horizontal Kerning in Latin lookup 0 per glyph data 2" uni021A dx=0 dy=0 dh=-18 dv=0 dx=0 dy=0 dh=0 dv=0
PairPos2: "'kern' Horizontal Kerning in Latin lookup 0 per glyph data 2" Aringacute dx=0 dy=0 dh=-14 dv=0 dx=0 dy=0 dh=0 dv=0
PairPos2: "'kern' Horizontal Kerning in Latin lookup 0 per glyph data 2" Ydieresis dx=0 dy=0 dh=-24 dv=0 dx=0 dy=0 dh=0 dv=0
PairPos2: "'kern' Horizontal Kerning in Latin lookup 0 per glyph data 2" Ycircumflex dx=0 dy=0 dh=-24 dv=0 dx=0 dy=0 dh=0 dv=0
PairPos2: "'kern' Horizontal Kerning in Latin lookup 0 per glyph data 2" Wcircumflex dx=0 dy=0 dh=-18 dv=0 dx=0 dy=0 dh=0 dv=0
PairPos2: "'kern' Horizontal Kerning in Latin lookup 0 per glyph data 2" Tbar dx=0 dy=0 dh=-18 dv=0 dx=0 dy=0 dh=0 dv=0
PairPos2: "'kern' Horizontal Kerning in Latin lookup 0 per glyph data 2" Tcaron dx=0 dy=0 dh=-18 dv=0 dx=0 dy=0 dh=0 dv=0
PairPos2: "'kern' Horizontal Kerning in Latin lookup 0 per glyph data 2" uni0162 dx=0 dy=0 dh=-18 dv=0 dx=0 dy=0 dh=0 dv=0
PairPos2: "'kern' Horizontal Kerning in Latin lookup 0 per glyph data 2" Aogonek dx=0 dy=0 dh=-14 dv=0 dx=0 dy=0 dh=0 dv=0
PairPos2: "'kern' Horizontal Kerning in Latin lookup 0 per glyph data 2" Abreve dx=0 dy=0 dh=-14 dv=0 dx=0 dy=0 dh=0 dv=0
PairPos2: "'kern' Horizontal Kerning in Latin lookup 0 per glyph data 2" Amacron dx=0 dy=0 dh=-14 dv=0 dx=0 dy=0 dh=0 dv=0
PairPos2: "'kern' Horizontal Kerning in Latin lookup 0 per glyph data 2" Yacute dx=0 dy=0 dh=-24 dv=0 dx=0 dy=0 dh=0 dv=0
PairPos2: "'kern' Horizontal Kerning in Latin lookup 0 per glyph data 2" Aring dx=0 dy=0 dh=-14 dv=0 dx=0 dy=0 dh=0 dv=0
PairPos2: "'kern' Horizontal Kerning in Latin lookup 0 per glyph data 2" Adieresis dx=0 dy=0 dh=-14 dv=0 dx=0 dy=0 dh=0 dv=0
PairPos2: "'kern' Horizontal Kerning in Latin lookup 0 per glyph data 2" Atilde dx=0 dy=0 dh=-14 dv=0 dx=0 dy=0 dh=0 dv=0
PairPos2: "'kern' Horizontal Kerning in Latin lookup 0 per glyph data 2" Acircumflex dx=0 dy=0 dh=-14 dv=0 dx=0 dy=0 dh=0 dv=0
PairPos2: "'kern' Horizontal Kerning in Latin lookup 0 per glyph data 2" Aacute dx=0 dy=0 dh=-14 dv=0 dx=0 dy=0 dh=0 dv=0
PairPos2: "'kern' Horizontal Kerning in Latin lookup 0 per glyph data 2" Agrave dx=0 dy=0 dh=-14 dv=0 dx=0 dy=0 dh=0 dv=0
PairPos2: "'kern' Horizontal Kerning in Latin lookup 0 per glyph data 2" degree dx=0 dy=0 dh=-11 dv=0 dx=0 dy=0 dh=0 dv=0
PairPos2: "'kern' Horizontal Kerning in Latin lookup 0 per glyph data 2" bracketright dx=0 dy=0 dh=-13 dv=0 dx=0 dy=0 dh=0 dv=0
PairPos2: "'kern' Horizontal Kerning in Latin lookup 0 per glyph data 2" Y dx=0 dy=0 dh=-24 dv=0 dx=0 dy=0 dh=0 dv=0
PairPos2: "'kern' Horizontal Kerning in Latin lookup 0 per glyph data 2" W dx=0 dy=0 dh=-18 dv=0 dx=0 dy=0 dh=0 dv=0
PairPos2: "'kern' Horizontal Kerning in Latin lookup 0 per glyph data 2" V dx=0 dy=0 dh=-19 dv=0 dx=0 dy=0 dh=0 dv=0
PairPos2: "'kern' Horizontal Kerning in Latin lookup 0 per glyph data 2" T dx=0 dy=0 dh=-18 dv=0 dx=0 dy=0 dh=0 dv=0
PairPos2: "'kern' Horizontal Kerning in Latin lookup 0 per glyph data 2" A dx=0 dy=0 dh=-14 dv=0 dx=0 dy=0 dh=0 dv=0
PairPos2: "'kern' Horizontal Kerning in Latin lookup 0 per glyph data 2" parenright dx=0 dy=0 dh=-11 dv=0 dx=0 dy=0 dh=0 dv=0
PairPos2: "'kern' Horizontal Kerning in Latin lookup 0 per glyph data 2" quotesingle dx=0 dy=0 dh=-9 dv=0 dx=0 dy=0 dh=0 dv=0
PairPos2: "'kern' Horizontal Kerning in Latin lookup 0 per glyph data 2" quotedbl dx=0 dy=0 dh=-9 dv=0 dx=0 dy=0 dh=0 dv=0
EndChar

StartChar: six
Encoding: 54 54 24
Width: 560
GlyphClass: 2
Flags: MW
HStem: -9 22<223.5 303> 418 22<304.5 342.5> 682 22<409 451>
VStem: 78 77<131.5 309> 417 98<214 266 214 303.5> 480 93<591 614 591 625>
LayerCount: 2
Fore
SplineSet
480 606 m 0xf4
 480 644 470 682 432 682 c 0
 298 682 220 502 191 391 c 1
 202 399 l 2
 238 430 283 440 326 440 c 0
 417 440 475 396 501 329 c 0
 510 306 515 280 515 252 c 0xf8
 515 176 480 111 440 69 c 0
 401 30 340 -9 266 -9 c 0
 165 -9 112 58 89 139 c 0
 80 170 78 205 78 244 c 0
 78 374 125 486 183 563 c 0
 217 605 256 640 299 666 c 0
 341 691 386 704 432 704 c 0
 492 704 539 683 562 646 c 0
 569 633 573 621 573 607 c 0
 573 575 555 556 524 556 c 0
 497 556 480 576 480 606 c 0xf4
155 172 m 0
 155 91 186 13 261 13 c 0
 374 13 417 151 417 257 c 0
 417 350 375 418 310 418 c 0
 260 418 209 375 199 358 c 0
 176 318 155 235 155 172 c 0
EndSplineSet
Validated: 1
Substitution2: "'pnum' Proportional Numbers in Latin lookup 13 subtable" six.prop
Substitution2: "'onum' Oldstyle Figures lookup 11 subtable" six.oldstyle
Substitution2: "'dnom' Denominators in Latin lookup 10 subtable" six.denominator
Substitution2: "'sinf' Scientific Inferiors in Latin lookup 9 subtable" sixinferior
Substitution2: "'sups' Superscript in Latin lookup 8 subtable" six.superior
PairPos2: "'kern' Horizontal Kerning in Latin lookup 0 per glyph data 2" W.ss01 dx=0 dy=0 dh=-9 dv=0 dx=0 dy=0 dh=0 dv=0
PairPos2: "'kern' Horizontal Kerning in Latin lookup 0 per glyph data 2" Ytilde dx=0 dy=0 dh=-23 dv=0 dx=0 dy=0 dh=0 dv=0
PairPos2: "'kern' Horizontal Kerning in Latin lookup 0 per glyph data 2" Ygrave dx=0 dy=0 dh=-23 dv=0 dx=0 dy=0 dh=0 dv=0
PairPos2: "'kern' Horizontal Kerning in Latin lookup 0 per glyph data 2" Wdieresis dx=0 dy=0 dh=-17 dv=0 dx=0 dy=0 dh=0 dv=0
PairPos2: "'kern' Horizontal Kerning in Latin lookup 0 per glyph data 2" Wacute dx=0 dy=0 dh=-17 dv=0 dx=0 dy=0 dh=0 dv=0
PairPos2: "'kern' Horizontal Kerning in Latin lookup 0 per glyph data 2" Wgrave dx=0 dy=0 dh=-17 dv=0 dx=0 dy=0 dh=0 dv=0
PairPos2: "'kern' Horizontal Kerning in Latin lookup 0 per glyph data 2" Aringacute dx=0 dy=0 dh=-18 dv=0 dx=0 dy=0 dh=0 dv=0
PairPos2: "'kern' Horizontal Kerning in Latin lookup 0 per glyph data 2" Ydieresis dx=0 dy=0 dh=-23 dv=0 dx=0 dy=0 dh=0 dv=0
PairPos2: "'kern' Horizontal Kerning in Latin lookup 0 per glyph data 2" Ycircumflex dx=0 dy=0 dh=-23 dv=0 dx=0 dy=0 dh=0 dv=0
PairPos2: "'kern' Horizontal Kerning in Latin lookup 0 per glyph data 2" Wcircumflex dx=0 dy=0 dh=-17 dv=0 dx=0 dy=0 dh=0 dv=0
PairPos2: "'kern' Horizontal Kerning in Latin lookup 0 per glyph data 2" Aogonek dx=0 dy=0 dh=-18 dv=0 dx=0 dy=0 dh=0 dv=0
PairPos2: "'kern' Horizontal Kerning in Latin lookup 0 per glyph data 2" Abreve dx=0 dy=0 dh=-18 dv=0 dx=0 dy=0 dh=0 dv=0
PairPos2: "'kern' Horizontal Kerning in Latin lookup 0 per glyph data 2" Amacron dx=0 dy=0 dh=-18 dv=0 dx=0 dy=0 dh=0 dv=0
PairPos2: "'kern' Horizontal Kerning in Latin lookup 0 per glyph data 2" Yacute dx=0 dy=0 dh=-23 dv=0 dx=0 dy=0 dh=0 dv=0
PairPos2: "'kern' Horizontal Kerning in Latin lookup 0 per glyph data 2" Aring dx=0 dy=0 dh=-18 dv=0 dx=0 dy=0 dh=0 dv=0
PairPos2: "'kern' Horizontal Kerning in Latin lookup 0 per glyph data 2" Adieresis dx=0 dy=0 dh=-18 dv=0 dx=0 dy=0 dh=0 dv=0
PairPos2: "'kern' Horizontal Kerning in Latin lookup 0 per glyph data 2" Atilde dx=0 dy=0 dh=-18 dv=0 dx=0 dy=0 dh=0 dv=0
PairPos2: "'kern' Horizontal Kerning in Latin lookup 0 per glyph data 2" Acircumflex dx=0 dy=0 dh=-18 dv=0 dx=0 dy=0 dh=0 dv=0
PairPos2: "'kern' Horizontal Kerning in Latin lookup 0 per glyph data 2" Aacute dx=0 dy=0 dh=-18 dv=0 dx=0 dy=0 dh=0 dv=0
PairPos2: "'kern' Horizontal Kerning in Latin lookup 0 per glyph data 2" Agrave dx=0 dy=0 dh=-18 dv=0 dx=0 dy=0 dh=0 dv=0
PairPos2: "'kern' Horizontal Kerning in Latin lookup 0 per glyph data 2" bracketright dx=0 dy=0 dh=-16 dv=0 dx=0 dy=0 dh=0 dv=0
PairPos2: "'kern' Horizontal Kerning in Latin lookup 0 per glyph data 2" Y dx=0 dy=0 dh=-23 dv=0 dx=0 dy=0 dh=0 dv=0
PairPos2: "'kern' Horizontal Kerning in Latin lookup 0 per glyph data 2" W dx=0 dy=0 dh=-17 dv=0 dx=0 dy=0 dh=0 dv=0
PairPos2: "'kern' Horizontal Kerning in Latin lookup 0 per glyph data 2" V dx=0 dy=0 dh=-19 dv=0 dx=0 dy=0 dh=0 dv=0
PairPos2: "'kern' Horizontal Kerning in Latin lookup 0 per glyph data 2" A dx=0 dy=0 dh=-18 dv=0 dx=0 dy=0 dh=0 dv=0
PairPos2: "'kern' Horizontal Kerning in Latin lookup 0 per glyph data 2" parenright dx=0 dy=0 dh=-14 dv=0 dx=0 dy=0 dh=0 dv=0
EndChar

StartChar: seven
Encoding: 55 55 25
Width: 560
GlyphClass: 2
Flags: MW
HStem: -9 21G<152.5 163.5> 614 81<327 335 335 530>
LayerCount: 2
Fore
SplineSet
335 614 m 2
 313 614 295 613 281 612 c 0
 267 611 256 608 247 603 c 0
 237 599 229 592 223 584 c 0
 217 576 209 564 201 549 c 2
 180 514 l 1
 151 514 l 1
 235 727 l 1
 254 727 l 1
 254 724 253 724 253 720 c 0
 253 711 258 705 269 700 c 0
 278 696 303 695 327 695 c 2
 601 695 l 1
 598 677 l 1
 580 651 560 620 539 585 c 0
 518 550 495 510 469 464 c 0
 443 419 415 368 383 311 c 0
 351 254 317 193 278 123 c 0
 264 97 252 75 241 58 c 0
 230 42 220 27 211 18 c 0
 202 7 194 1 185 -4 c 0
 178 -8 168 -9 159 -9 c 0
 146 -9 136 -5 129 1 c 0
 120 7 116 16 116 28 c 0
 116 34 117 41 121 49 c 0
 124 57 130 69 141 84 c 0
 151 99 170 121 188 148 c 0
 207 174 226 202 257 245 c 2
 530 614 l 1
 335 614 l 2
EndSplineSet
Validated: 1
Substitution2: "'pnum' Proportional Numbers in Latin lookup 13 subtable" seven.prop
Substitution2: "'onum' Oldstyle Figures lookup 11 subtable" seven.oldstyle
Substitution2: "'dnom' Denominators in Latin lookup 10 subtable" seven.denominator
Substitution2: "'sinf' Scientific Inferiors in Latin lookup 9 subtable" seveninferior
Substitution2: "'sups' Superscript in Latin lookup 8 subtable" seven.superior
PairPos2: "'kern' Horizontal Kerning in Latin lookup 0 per glyph data 2" W.ss01 dx=0 dy=0 dh=6 dv=0 dx=0 dy=0 dh=0 dv=0
PairPos2: "'kern' Horizontal Kerning in Latin lookup 0 per glyph data 2" V.ss01 dx=0 dy=0 dh=5 dv=0 dx=0 dy=0 dh=0 dv=0
PairPos2: "'kern' Horizontal Kerning in Latin lookup 0 per glyph data 2" A.ss01 dx=0 dy=0 dh=-30 dv=0 dx=0 dy=0 dh=0 dv=0
PairPos2: "'kern' Horizontal Kerning in Latin lookup 0 per glyph data 2" ellipsis dx=0 dy=0 dh=-42 dv=0 dx=0 dy=0 dh=0 dv=0
PairPos2: "'kern' Horizontal Kerning in Latin lookup 0 per glyph data 2" quotedblbase dx=0 dy=0 dh=-42 dv=0 dx=0 dy=0 dh=0 dv=0
PairPos2: "'kern' Horizontal Kerning in Latin lookup 0 per glyph data 2" quotesinglbase dx=0 dy=0 dh=-42 dv=0 dx=0 dy=0 dh=0 dv=0
PairPos2: "'kern' Horizontal Kerning in Latin lookup 0 per glyph data 2" emdash dx=0 dy=0 dh=-13 dv=0 dx=0 dy=0 dh=0 dv=0
PairPos2: "'kern' Horizontal Kerning in Latin lookup 0 per glyph data 2" endash dx=0 dy=0 dh=-13 dv=0 dx=0 dy=0 dh=0 dv=0
PairPos2: "'kern' Horizontal Kerning in Latin lookup 0 per glyph data 2" Ytilde dx=0 dy=0 dh=14 dv=0 dx=0 dy=0 dh=0 dv=0
PairPos2: "'kern' Horizontal Kerning in Latin lookup 0 per glyph data 2" Ygrave dx=0 dy=0 dh=14 dv=0 dx=0 dy=0 dh=0 dv=0
PairPos2: "'kern' Horizontal Kerning in Latin lookup 0 per glyph data 2" AEacute dx=0 dy=0 dh=-38 dv=0 dx=0 dy=0 dh=0 dv=0
PairPos2: "'kern' Horizontal Kerning in Latin lookup 0 per glyph data 2" Aringacute dx=0 dy=0 dh=-40 dv=0 dx=0 dy=0 dh=0 dv=0
PairPos2: "'kern' Horizontal Kerning in Latin lookup 0 per glyph data 2" Ydieresis dx=0 dy=0 dh=14 dv=0 dx=0 dy=0 dh=0 dv=0
PairPos2: "'kern' Horizontal Kerning in Latin lookup 0 per glyph data 2" Ycircumflex dx=0 dy=0 dh=14 dv=0 dx=0 dy=0 dh=0 dv=0
PairPos2: "'kern' Horizontal Kerning in Latin lookup 0 per glyph data 2" Jcircumflex dx=0 dy=0 dh=-15 dv=0 dx=0 dy=0 dh=0 dv=0
PairPos2: "'kern' Horizontal Kerning in Latin lookup 0 per glyph data 2" Aogonek dx=0 dy=0 dh=-40 dv=0 dx=0 dy=0 dh=0 dv=0
PairPos2: "'kern' Horizontal Kerning in Latin lookup 0 per glyph data 2" Abreve dx=0 dy=0 dh=-40 dv=0 dx=0 dy=0 dh=0 dv=0
PairPos2: "'kern' Horizontal Kerning in Latin lookup 0 per glyph data 2" Amacron dx=0 dy=0 dh=-40 dv=0 dx=0 dy=0 dh=0 dv=0
PairPos2: "'kern' Horizontal Kerning in Latin lookup 0 per glyph data 2" divide dx=0 dy=0 dh=-9 dv=0 dx=0 dy=0 dh=0 dv=0
PairPos2: "'kern' Horizontal Kerning in Latin lookup 0 per glyph data 2" Yacute dx=0 dy=0 dh=14 dv=0 dx=0 dy=0 dh=0 dv=0
PairPos2: "'kern' Horizontal Kerning in Latin lookup 0 per glyph data 2" AE dx=0 dy=0 dh=-38 dv=0 dx=0 dy=0 dh=0 dv=0
PairPos2: "'kern' Horizontal Kerning in Latin lookup 0 per glyph data 2" Aring dx=0 dy=0 dh=-40 dv=0 dx=0 dy=0 dh=0 dv=0
PairPos2: "'kern' Horizontal Kerning in Latin lookup 0 per glyph data 2" Adieresis dx=0 dy=0 dh=-40 dv=0 dx=0 dy=0 dh=0 dv=0
PairPos2: "'kern' Horizontal Kerning in Latin lookup 0 per glyph data 2" Atilde dx=0 dy=0 dh=-40 dv=0 dx=0 dy=0 dh=0 dv=0
PairPos2: "'kern' Horizontal Kerning in Latin lookup 0 per glyph data 2" Acircumflex dx=0 dy=0 dh=-40 dv=0 dx=0 dy=0 dh=0 dv=0
PairPos2: "'kern' Horizontal Kerning in Latin lookup 0 per glyph data 2" Aacute dx=0 dy=0 dh=-40 dv=0 dx=0 dy=0 dh=0 dv=0
PairPos2: "'kern' Horizontal Kerning in Latin lookup 0 per glyph data 2" Agrave dx=0 dy=0 dh=-40 dv=0 dx=0 dy=0 dh=0 dv=0
PairPos2: "'kern' Horizontal Kerning in Latin lookup 0 per glyph data 2" periodcentered dx=0 dy=0 dh=-16 dv=0 dx=0 dy=0 dh=0 dv=0
PairPos2: "'kern' Horizontal Kerning in Latin lookup 0 per glyph data 2" uni00AD dx=0 dy=0 dh=-13 dv=0 dx=0 dy=0 dh=0 dv=0
PairPos2: "'kern' Horizontal Kerning in Latin lookup 0 per glyph data 2" cent dx=0 dy=0 dh=-12 dv=0 dx=0 dy=0 dh=0 dv=0
PairPos2: "'kern' Horizontal Kerning in Latin lookup 0 per glyph data 2" Y dx=0 dy=0 dh=14 dv=0 dx=0 dy=0 dh=0 dv=0
PairPos2: "'kern' Horizontal Kerning in Latin lookup 0 per glyph data 2" J dx=0 dy=0 dh=-15 dv=0 dx=0 dy=0 dh=0 dv=0
PairPos2: "'kern' Horizontal Kerning in Latin lookup 0 per glyph data 2" A dx=0 dy=0 dh=-40 dv=0 dx=0 dy=0 dh=0 dv=0
PairPos2: "'kern' Horizontal Kerning in Latin lookup 0 per glyph data 2" four dx=0 dy=0 dh=-11 dv=0 dx=0 dy=0 dh=0 dv=0
PairPos2: "'kern' Horizontal Kerning in Latin lookup 0 per glyph data 2" slash dx=0 dy=0 dh=-15 dv=0 dx=0 dy=0 dh=0 dv=0
PairPos2: "'kern' Horizontal Kerning in Latin lookup 0 per glyph data 2" period dx=0 dy=0 dh=-42 dv=0 dx=0 dy=0 dh=0 dv=0
PairPos2: "'kern' Horizontal Kerning in Latin lookup 0 per glyph data 2" hyphen dx=0 dy=0 dh=-13 dv=0 dx=0 dy=0 dh=0 dv=0
PairPos2: "'kern' Horizontal Kerning in Latin lookup 0 per glyph data 2" comma dx=0 dy=0 dh=-42 dv=0 dx=0 dy=0 dh=0 dv=0
EndChar

StartChar: eight
Encoding: 56 56 26
Width: 560
GlyphClass: 2
Flags: MW
HStem: -9 22<217.5 288> 682 22<315 401.5>
VStem: 49 83<119.5 201 119.5 212.5> 142 86<540.5 577.5> 414 86<167 188> 471 78<539 569.5 536.5 586.5>
LayerCount: 2
Fore
SplineSet
250 -9 m 0xf8
 130 -9 49 48 49 164 c 0
 49 261 112 329 238 365 c 1
 206 386 183 410 167 437 c 0
 150 463 142 491 142 521 c 0
 142 634 250 704 364 704 c 0
 447 704 505 669 535 616 c 0
 544 599 549 580 549 559 c 0xf4
 549 514 518 476 495 449 c 0
 468 418 422 398 375 388 c 1
 416 363 455 334 473 302 c 0
 491 270 500 237 500 200 c 0
 500 134 470 82 430 51 c 0
 387 15 326 -9 250 -9 c 0xf8
132 158 m 0
 132 81 179 13 256 13 c 0
 351 13 414 88 414 173 c 0xf8
 414 203 407 229 392 251 c 0
 378 274 349 297 319 315 c 2
 262 349 l 1
 174 309 132 244 132 158 c 0
471 555 m 0xf4
 471 618 446 682 357 682 c 0
 273 682 228 614 228 551 c 0
 228 530 234 510 248 488 c 0
 261 466 288 447 314 430 c 2
 351 406 l 1
 387 425 423 448 442 471 c 0
 461 496 471 523 471 555 c 0xf4
EndSplineSet
Validated: 1
Substitution2: "'pnum' Proportional Numbers in Latin lookup 13 subtable" eight.prop
Substitution2: "'onum' Oldstyle Figures lookup 11 subtable" eight.oldstyle
Substitution2: "'dnom' Denominators in Latin lookup 10 subtable" eight.denominator
Substitution2: "'sinf' Scientific Inferiors in Latin lookup 9 subtable" eightinferior
Substitution2: "'sups' Superscript in Latin lookup 8 subtable" eight.superior
PairPos2: "'kern' Horizontal Kerning in Latin lookup 0 per glyph data 2" W.ss01 dx=0 dy=0 dh=-20 dv=0 dx=0 dy=0 dh=0 dv=0
PairPos2: "'kern' Horizontal Kerning in Latin lookup 0 per glyph data 2" V.ss01 dx=0 dy=0 dh=-20 dv=0 dx=0 dy=0 dh=0 dv=0
PairPos2: "'kern' Horizontal Kerning in Latin lookup 0 per glyph data 2" Ytilde dx=0 dy=0 dh=-29 dv=0 dx=0 dy=0 dh=0 dv=0
PairPos2: "'kern' Horizontal Kerning in Latin lookup 0 per glyph data 2" Ygrave dx=0 dy=0 dh=-29 dv=0 dx=0 dy=0 dh=0 dv=0
PairPos2: "'kern' Horizontal Kerning in Latin lookup 0 per glyph data 2" Udotbelow dx=0 dy=0 dh=-10 dv=0 dx=0 dy=0 dh=0 dv=0
PairPos2: "'kern' Horizontal Kerning in Latin lookup 0 per glyph data 2" Wdieresis dx=0 dy=0 dh=-23 dv=0 dx=0 dy=0 dh=0 dv=0
PairPos2: "'kern' Horizontal Kerning in Latin lookup 0 per glyph data 2" Wacute dx=0 dy=0 dh=-23 dv=0 dx=0 dy=0 dh=0 dv=0
PairPos2: "'kern' Horizontal Kerning in Latin lookup 0 per glyph data 2" Wgrave dx=0 dy=0 dh=-23 dv=0 dx=0 dy=0 dh=0 dv=0
PairPos2: "'kern' Horizontal Kerning in Latin lookup 0 per glyph data 2" Ydieresis dx=0 dy=0 dh=-29 dv=0 dx=0 dy=0 dh=0 dv=0
PairPos2: "'kern' Horizontal Kerning in Latin lookup 0 per glyph data 2" Ycircumflex dx=0 dy=0 dh=-29 dv=0 dx=0 dy=0 dh=0 dv=0
PairPos2: "'kern' Horizontal Kerning in Latin lookup 0 per glyph data 2" Wcircumflex dx=0 dy=0 dh=-23 dv=0 dx=0 dy=0 dh=0 dv=0
PairPos2: "'kern' Horizontal Kerning in Latin lookup 0 per glyph data 2" Uogonek dx=0 dy=0 dh=-10 dv=0 dx=0 dy=0 dh=0 dv=0
PairPos2: "'kern' Horizontal Kerning in Latin lookup 0 per glyph data 2" Uhungarumlaut dx=0 dy=0 dh=-10 dv=0 dx=0 dy=0 dh=0 dv=0
PairPos2: "'kern' Horizontal Kerning in Latin lookup 0 per glyph data 2" Uring dx=0 dy=0 dh=-10 dv=0 dx=0 dy=0 dh=0 dv=0
PairPos2: "'kern' Horizontal Kerning in Latin lookup 0 per glyph data 2" Ubreve dx=0 dy=0 dh=-10 dv=0 dx=0 dy=0 dh=0 dv=0
PairPos2: "'kern' Horizontal Kerning in Latin lookup 0 per glyph data 2" Umacron dx=0 dy=0 dh=-10 dv=0 dx=0 dy=0 dh=0 dv=0
PairPos2: "'kern' Horizontal Kerning in Latin lookup 0 per glyph data 2" Utilde dx=0 dy=0 dh=-10 dv=0 dx=0 dy=0 dh=0 dv=0
PairPos2: "'kern' Horizontal Kerning in Latin lookup 0 per glyph data 2" Yacute dx=0 dy=0 dh=-29 dv=0 dx=0 dy=0 dh=0 dv=0
PairPos2: "'kern' Horizontal Kerning in Latin lookup 0 per glyph data 2" Udieresis dx=0 dy=0 dh=-10 dv=0 dx=0 dy=0 dh=0 dv=0
PairPos2: "'kern' Horizontal Kerning in Latin lookup 0 per glyph data 2" Ucircumflex dx=0 dy=0 dh=-10 dv=0 dx=0 dy=0 dh=0 dv=0
PairPos2: "'kern' Horizontal Kerning in Latin lookup 0 per glyph data 2" Uacute dx=0 dy=0 dh=-10 dv=0 dx=0 dy=0 dh=0 dv=0
PairPos2: "'kern' Horizontal Kerning in Latin lookup 0 per glyph data 2" Ugrave dx=0 dy=0 dh=-10 dv=0 dx=0 dy=0 dh=0 dv=0
PairPos2: "'kern' Horizontal Kerning in Latin lookup 0 per glyph data 2" braceright dx=0 dy=0 dh=-9 dv=0 dx=0 dy=0 dh=0 dv=0
PairPos2: "'kern' Horizontal Kerning in Latin lookup 0 per glyph data 2" bracketright dx=0 dy=0 dh=-21 dv=0 dx=0 dy=0 dh=0 dv=0
PairPos2: "'kern' Horizontal Kerning in Latin lookup 0 per glyph data 2" Y dx=0 dy=0 dh=-29 dv=0 dx=0 dy=0 dh=0 dv=0
PairPos2: "'kern' Horizontal Kerning in Latin lookup 0 per glyph data 2" W dx=0 dy=0 dh=-23 dv=0 dx=0 dy=0 dh=0 dv=0
PairPos2: "'kern' Horizontal Kerning in Latin lookup 0 per glyph data 2" V dx=0 dy=0 dh=-24 dv=0 dx=0 dy=0 dh=0 dv=0
PairPos2: "'kern' Horizontal Kerning in Latin lookup 0 per glyph data 2" U dx=0 dy=0 dh=-10 dv=0 dx=0 dy=0 dh=0 dv=0
PairPos2: "'kern' Horizontal Kerning in Latin lookup 0 per glyph data 2" parenright dx=0 dy=0 dh=-17 dv=0 dx=0 dy=0 dh=0 dv=0
PairPos2: "'kern' Horizontal Kerning in Latin lookup 0 per glyph data 2" quotesingle dx=0 dy=0 dh=-9 dv=0 dx=0 dy=0 dh=0 dv=0
PairPos2: "'kern' Horizontal Kerning in Latin lookup 0 per glyph data 2" quotedbl dx=0 dy=0 dh=-9 dv=0 dx=0 dy=0 dh=0 dv=0
EndChar

StartChar: nine
Encoding: 57 57 27
Width: 560
GlyphClass: 2
Flags: MW
HStem: -9 22<186 228> 255 22<294.5 332.5> 682 22<334 413.5>
VStem: 64 93<81 104> 122 98<429 481> 481 78<386 563.5>
LayerCount: 2
Fore
SplineSet
157 89 m 0xf4
 157 51 167 13 205 13 c 0
 339 13 418 185 447 296 c 1
 441 298 l 1
 402 265 354 255 311 255 c 0
 220 255 162 299 136 366 c 0
 127 389 122 415 122 443 c 0xec
 122 519 157 584 197 626 c 0
 236 665 297 704 371 704 c 0
 472 704 526 637 549 556 c 0
 558 525 559 490 559 451 c 0
 559 321 512 209 454 132 c 0
 420 90 381 55 338 29 c 0
 296 4 251 -9 205 -9 c 0
 145 -9 98 12 75 49 c 0
 68 62 64 74 64 88 c 0
 64 120 82 139 113 139 c 0
 140 139 157 119 157 89 c 0xf4
481 523 m 0
 481 604 451 682 376 682 c 0
 263 682 220 544 220 438 c 0
 220 345 262 277 327 277 c 0
 377 277 422 304 444 337 c 0
 470 375 481 460 481 523 c 0
EndSplineSet
Validated: 1
Substitution2: "'pnum' Proportional Numbers in Latin lookup 13 subtable" nine.prop
Substitution2: "'onum' Oldstyle Figures lookup 11 subtable" nine.oldstyle
Substitution2: "'dnom' Denominators in Latin lookup 10 subtable" nine.denominator
Substitution2: "'sinf' Scientific Inferiors in Latin lookup 9 subtable" nineinferior
Substitution2: "'sups' Superscript in Latin lookup 8 subtable" nine.superior
PairPos2: "'kern' Horizontal Kerning in Latin lookup 0 per glyph data 2" W.ss01 dx=0 dy=0 dh=23 dv=0 dx=0 dy=0 dh=0 dv=0
PairPos2: "'kern' Horizontal Kerning in Latin lookup 0 per glyph data 2" V.ss01 dx=0 dy=0 dh=22 dv=0 dx=0 dy=0 dh=0 dv=0
PairPos2: "'kern' Horizontal Kerning in Latin lookup 0 per glyph data 2" A.ss01 dx=0 dy=0 dh=11 dv=0 dx=0 dy=0 dh=0 dv=0
PairPos2: "'kern' Horizontal Kerning in Latin lookup 0 per glyph data 2" Ytilde dx=0 dy=0 dh=34 dv=0 dx=0 dy=0 dh=0 dv=0
PairPos2: "'kern' Horizontal Kerning in Latin lookup 0 per glyph data 2" Ygrave dx=0 dy=0 dh=34 dv=0 dx=0 dy=0 dh=0 dv=0
PairPos2: "'kern' Horizontal Kerning in Latin lookup 0 per glyph data 2" Wdieresis dx=0 dy=0 dh=24 dv=0 dx=0 dy=0 dh=0 dv=0
PairPos2: "'kern' Horizontal Kerning in Latin lookup 0 per glyph data 2" Wacute dx=0 dy=0 dh=24 dv=0 dx=0 dy=0 dh=0 dv=0
PairPos2: "'kern' Horizontal Kerning in Latin lookup 0 per glyph data 2" Wgrave dx=0 dy=0 dh=24 dv=0 dx=0 dy=0 dh=0 dv=0
PairPos2: "'kern' Horizontal Kerning in Latin lookup 0 per glyph data 2" Ndotaccent dx=0 dy=0 dh=13 dv=0 dx=0 dy=0 dh=0 dv=0
PairPos2: "'kern' Horizontal Kerning in Latin lookup 0 per glyph data 2" AEacute dx=0 dy=0 dh=17 dv=0 dx=0 dy=0 dh=0 dv=0
PairPos2: "'kern' Horizontal Kerning in Latin lookup 0 per glyph data 2" Aringacute dx=0 dy=0 dh=32 dv=0 dx=0 dy=0 dh=0 dv=0
PairPos2: "'kern' Horizontal Kerning in Latin lookup 0 per glyph data 2" Ydieresis dx=0 dy=0 dh=34 dv=0 dx=0 dy=0 dh=0 dv=0
PairPos2: "'kern' Horizontal Kerning in Latin lookup 0 per glyph data 2" Ycircumflex dx=0 dy=0 dh=34 dv=0 dx=0 dy=0 dh=0 dv=0
PairPos2: "'kern' Horizontal Kerning in Latin lookup 0 per glyph data 2" Wcircumflex dx=0 dy=0 dh=24 dv=0 dx=0 dy=0 dh=0 dv=0
PairPos2: "'kern' Horizontal Kerning in Latin lookup 0 per glyph data 2" Eng dx=0 dy=0 dh=13 dv=0 dx=0 dy=0 dh=0 dv=0
PairPos2: "'kern' Horizontal Kerning in Latin lookup 0 per glyph data 2" Ncaron dx=0 dy=0 dh=13 dv=0 dx=0 dy=0 dh=0 dv=0
PairPos2: "'kern' Horizontal Kerning in Latin lookup 0 per glyph data 2" Ncommaaccent dx=0 dy=0 dh=13 dv=0 dx=0 dy=0 dh=0 dv=0
PairPos2: "'kern' Horizontal Kerning in Latin lookup 0 per glyph data 2" Nacute dx=0 dy=0 dh=13 dv=0 dx=0 dy=0 dh=0 dv=0
PairPos2: "'kern' Horizontal Kerning in Latin lookup 0 per glyph data 2" Aogonek dx=0 dy=0 dh=32 dv=0 dx=0 dy=0 dh=0 dv=0
PairPos2: "'kern' Horizontal Kerning in Latin lookup 0 per glyph data 2" Abreve dx=0 dy=0 dh=32 dv=0 dx=0 dy=0 dh=0 dv=0
PairPos2: "'kern' Horizontal Kerning in Latin lookup 0 per glyph data 2" Amacron dx=0 dy=0 dh=32 dv=0 dx=0 dy=0 dh=0 dv=0
PairPos2: "'kern' Horizontal Kerning in Latin lookup 0 per glyph data 2" Yacute dx=0 dy=0 dh=34 dv=0 dx=0 dy=0 dh=0 dv=0
PairPos2: "'kern' Horizontal Kerning in Latin lookup 0 per glyph data 2" Ntilde dx=0 dy=0 dh=13 dv=0 dx=0 dy=0 dh=0 dv=0
PairPos2: "'kern' Horizontal Kerning in Latin lookup 0 per glyph data 2" AE dx=0 dy=0 dh=17 dv=0 dx=0 dy=0 dh=0 dv=0
PairPos2: "'kern' Horizontal Kerning in Latin lookup 0 per glyph data 2" Aring dx=0 dy=0 dh=32 dv=0 dx=0 dy=0 dh=0 dv=0
PairPos2: "'kern' Horizontal Kerning in Latin lookup 0 per glyph data 2" Adieresis dx=0 dy=0 dh=32 dv=0 dx=0 dy=0 dh=0 dv=0
PairPos2: "'kern' Horizontal Kerning in Latin lookup 0 per glyph data 2" Atilde dx=0 dy=0 dh=32 dv=0 dx=0 dy=0 dh=0 dv=0
PairPos2: "'kern' Horizontal Kerning in Latin lookup 0 per glyph data 2" Acircumflex dx=0 dy=0 dh=32 dv=0 dx=0 dy=0 dh=0 dv=0
PairPos2: "'kern' Horizontal Kerning in Latin lookup 0 per glyph data 2" Aacute dx=0 dy=0 dh=32 dv=0 dx=0 dy=0 dh=0 dv=0
PairPos2: "'kern' Horizontal Kerning in Latin lookup 0 per glyph data 2" Agrave dx=0 dy=0 dh=32 dv=0 dx=0 dy=0 dh=0 dv=0
PairPos2: "'kern' Horizontal Kerning in Latin lookup 0 per glyph data 2" braceright dx=0 dy=0 dh=11 dv=0 dx=0 dy=0 dh=0 dv=0
PairPos2: "'kern' Horizontal Kerning in Latin lookup 0 per glyph data 2" bracketright dx=0 dy=0 dh=23 dv=0 dx=0 dy=0 dh=0 dv=0
PairPos2: "'kern' Horizontal Kerning in Latin lookup 0 per glyph data 2" Y dx=0 dy=0 dh=34 dv=0 dx=0 dy=0 dh=0 dv=0
PairPos2: "'kern' Horizontal Kerning in Latin lookup 0 per glyph data 2" X dx=0 dy=0 dh=16 dv=0 dx=0 dy=0 dh=0 dv=0
PairPos2: "'kern' Horizontal Kerning in Latin lookup 0 per glyph data 2" W dx=0 dy=0 dh=24 dv=0 dx=0 dy=0 dh=0 dv=0
PairPos2: "'kern' Horizontal Kerning in Latin lookup 0 per glyph data 2" V dx=0 dy=0 dh=25 dv=0 dx=0 dy=0 dh=0 dv=0
PairPos2: "'kern' Horizontal Kerning in Latin lookup 0 per glyph data 2" N dx=0 dy=0 dh=13 dv=0 dx=0 dy=0 dh=0 dv=0
PairPos2: "'kern' Horizontal Kerning in Latin lookup 0 per glyph data 2" A dx=0 dy=0 dh=32 dv=0 dx=0 dy=0 dh=0 dv=0
PairPos2: "'kern' Horizontal Kerning in Latin lookup 0 per glyph data 2" parenright dx=0 dy=0 dh=23 dv=0 dx=0 dy=0 dh=0 dv=0
EndChar

StartChar: colon
Encoding: 58 58 28
Width: 274
GlyphClass: 2
Flags: MW
HStem: -9 126<67.5 84.5> 271 126<141.5 158.5>
VStem: 14 126<44.5 61> 88 126<324.5 341>
LayerCount: 2
Fore
SplineSet
76 -9 m 0xe0
 59 -9 44 -4 32 8 c 0
 19 20 14 34 14 52 c 0
 14 70 20 85 32 98 c 0
 44 111 59 117 76 117 c 0
 95 117 110 111 122 98 c 0
 134 85 140 70 140 53 c 0
 140 36 134 21 121 9 c 0
 108 -3 93 -9 76 -9 c 0xe0
150 271 m 0
 133 271 119 276 107 288 c 0
 94 300 88 314 88 332 c 0
 88 350 94 365 106 378 c 0
 118 391 133 397 150 397 c 0
 169 397 184 391 196 378 c 0
 208 365 214 350 214 333 c 0xd0
 214 316 208 301 195 289 c 0
 182 277 167 271 150 271 c 0
EndSplineSet
Validated: 1
Substitution2: "'salt' Stylistic Alternatives lookup 14 subtable" colon.up
EndChar

StartChar: semicolon
Encoding: 59 59 29
Width: 276
GlyphClass: 2
Flags: MW
HStem: 0 117<52.5 85.5> 271 126<141.5 158.5>
VStem: 79 61<-5.5 61.5> 88 126<324.5 341>
LayerCount: 2
Fore
SplineSet
150 271 m 0xd0
 133 271 119 276 107 288 c 0
 94 300 88 314 88 332 c 0
 88 350 94 365 106 378 c 0
 118 391 133 397 150 397 c 0
 169 397 184 391 196 378 c 0
 208 365 214 350 214 333 c 0
 214 316 208 301 195 289 c 0
 182 277 167 271 150 271 c 0xd0
79 3 m 1xe0
 72 1 65 0 60 0 c 0
 45 0 32 4 25 14 c 0
 17 24 14 37 14 52 c 0
 14 70 20 85 32 98 c 0
 44 111 59 117 76 117 c 0
 95 117 110 111 122 98 c 0
 134 85 140 70 140 53 c 0
 140 20 128 -16 104 -53 c 0
 80 -90 45 -126 0 -158 c 1
 -21 -129 l 1
 11 -106 36 -83 53 -60 c 0
 70 -36 79 -14 79 3 c 1xe0
EndSplineSet
Validated: 1
Substitution2: "'salt' Stylistic Alternatives lookup 14 subtable" semicolon.up
EndChar

StartChar: less
Encoding: 60 60 30
Width: 557
GlyphClass: 2
Flags: MW
HStem: 522 20G<464 464>
LayerCount: 2
Fore
SplineSet
464 114 m 1
 464 65 l 1
 51 274 l 1
 51 332 l 1
 464 542 l 1
 464 491 l 1
 91 303 l 1
 464 114 l 1
EndSplineSet
Validated: 1
EndChar

StartChar: equal
Encoding: 61 61 31
Width: 574
GlyphClass: 2
Flags: MW
HStem: 227 46<88 498 88 498> 381 45<88 498 88 498>
LayerCount: 2
Fore
SplineSet
498 227 m 1
 88 227 l 1
 88 273 l 1
 498 273 l 1
 498 227 l 1
498 381 m 1
 88 381 l 1
 88 426 l 1
 498 426 l 1
 498 381 l 1
EndSplineSet
Validated: 1
EndChar

StartChar: greater
Encoding: 62 62 32
Width: 560
GlyphClass: 2
Flags: MW
HStem: 522 20G<110 110>
LayerCount: 2
Fore
SplineSet
483 303 m 1
 110 491 l 1
 110 542 l 1
 524 332 l 1
 524 274 l 1
 110 65 l 1
 110 114 l 1
 483 303 l 1
EndSplineSet
Validated: 1
EndChar

StartChar: question
Encoding: 63 63 33
Width: 422
GlyphClass: 2
Flags: MW
HStem: -9 114<161.5 192> 172 22<204 231> 481 21G<183 222.5> 683 22<263.5 320>
VStem: 120 114<31.5 62 31.5 62.5> 121 73<572.5 593.5> 128 49<235 247 235 293.5> 381 58
LayerCount: 2
Fore
SplineSet
234 47 m 0xf9
 234 16 208 -9 176 -9 c 0
 145 -9 120 16 120 47 c 0xf9
 120 78 146 105 177 105 c 0xf3
 208 105 234 77 234 47 c 0xf9
209 172 m 0
 155 172 128 207 128 262 c 0xf3
 128 325 160 352 193 382 c 0
 249 426 381 483 381 576 c 0
 381 629 357 683 283 683 c 0
 228 683 194 638 194 596 c 0
 194 549 257 574 257 525 c 0
 257 497 237 481 208 481 c 0
 158 481 121 521 121 572 c 0xf5
 121 615 144 646 170 666 c 0
 198 688 239 705 288 705 c 0
 360 705 408 671 428 619 c 0
 435 602 438 583 439 561 c 0
 445 387 178 343 177 247 c 0xf3
 177 223 190 194 218 194 c 0
 246 194 278 222 295 253 c 1
 310 243 l 1
 287 196 253 172 209 172 c 0
EndSplineSet
Validated: 33
Substitution2: "'salt' Stylistic Alternatives lookup 14 subtable" question.up
EndChar

StartChar: at
Encoding: 64 64 34
Width: 929
GlyphClass: 2
Flags: MW
HStem: -121 43<481.5 525.5> 70 40<397.5 418> 449 38<506 523 494 527> 458 20G<638 725 725 725> 663 41<501 550 490.5 551>
VStem: 60 82<244.5 297.5 244.5 301> 269 88<212.5 220.5 173.5 240.5> 844 41<363 399.5>
LayerCount: 2
Fore
SplineSet
638 478 m 1xdf
 725 478 l 1xdf
 664 264 l 2
 658 240 652 218 648 197 c 0
 643 175 641 160 641 151 c 0
 641 139 645 130 652 125 c 0
 659 118 669 115 681 115 c 0
 701 115 720 123 740 137 c 0
 759 153 776 174 792 199 c 0
 807 223 819 251 829 283 c 0
 839 314 844 347 844 379 c 0
 844 420 836 458 820 493 c 0
 805 527 782 557 755 582 c 0
 726 607 693 628 654 642 c 0
 615 656 574 663 528 663 c 0
 474 663 423 654 375 634 c 0
 328 613 288 586 253 551 c 0
 219 516 191 473 171 425 c 0
 151 377 142 325 142 270 c 0
 142 219 151 170 168 128 c 0
 186 86 212 49 244 18 c 0
 276 -12 314 -35 359 -52 c 0
 404 -69 454 -78 509 -78 c 0
 611 -78 704 -47 792 13 c 1
 811 -15 l 1
 758 -52 707 -79 657 -96 c 0
 607 -113 554 -121 497 -121 c 0
 433 -121 373 -111 320 -92 c 0
 267 -73 221 -46 182 -11 c 0
 143 23 114 65 92 113 c 0
 70 161 60 214 60 271 c 0
 60 331 72 388 96 441 c 0
 119 494 151 540 193 579 c 0
 235 618 284 648 341 671 c 0
 397 694 458 704 523 704 c 0
 577 704 627 696 670 681 c 0
 715 666 752 643 784 615 c 0
 816 587 841 553 858 513 c 0
 875 473 885 429 885 381 c 0
 885 339 878 300 866 262 c 0
 853 225 837 191 816 162 c 0
 795 134 771 112 743 95 c 0
 715 78 686 70 655 70 c 0
 596 70 564 103 559 172 c 1
 556 173 l 1
 537 141 514 117 487 97 c 0
 459 79 432 70 404 70 c 0
 385 70 367 73 350 81 c 0
 334 89 320 100 308 114 c 0
 296 127 286 142 280 162 c 0
 273 180 269 201 269 224 c 0
 269 257 276 289 290 321 c 0
 304 352 322 381 345 405 c 0
 367 429 393 450 421 465 c 0
 450 480 479 487 509 487 c 0xef
 537 487 560 480 577 466 c 0
 594 452 607 430 615 399 c 1
 617 398 l 1
 638 478 l 1xdf
516 449 m 0xef
 496 449 477 442 459 428 c 0
 439 414 422 396 407 373 c 0
 392 350 380 324 371 294 c 0
 362 265 357 236 357 205 c 0
 357 142 377 110 418 110 c 0
 437 110 457 118 477 132 c 0
 497 147 515 167 531 190 c 0
 546 213 560 239 570 269 c 0
 580 298 585 327 585 356 c 0
 585 386 579 408 567 424 c 0
 555 441 538 449 516 449 c 0xef
EndSplineSet
Validated: 1
Substitution2: "'sups' Superscript in Latin lookup 8 subtable" at.superior
Substitution2: "'c2sc' Capitals to Small Capitals in Latin lookup 1 subtable" at.sc
Substitution2: "'smcp' Lowercase to Small Capitals in Latin lookup 0 subtable" at.sc
PairPos2: "'kern' Horizontal Kerning in Latin lookup 0 per glyph data 3" W.ss01 dx=0 dy=0 dh=-31 dv=0 dx=0 dy=0 dh=0 dv=0
PairPos2: "'kern' Horizontal Kerning in Latin lookup 0 per glyph data 3" V.ss01 dx=0 dy=0 dh=-31 dv=0 dx=0 dy=0 dh=0 dv=0
PairPos2: "'kern' Horizontal Kerning in Latin lookup 0 per glyph data 3" A.ss01 dx=0 dy=0 dh=-14 dv=0 dx=0 dy=0 dh=0 dv=0
PairPos2: "'kern' Horizontal Kerning in Latin lookup 0 per glyph data 3" quotedblright dx=0 dy=0 dh=-14 dv=0 dx=0 dy=0 dh=0 dv=0
PairPos2: "'kern' Horizontal Kerning in Latin lookup 0 per glyph data 3" quoteright dx=0 dy=0 dh=-14 dv=0 dx=0 dy=0 dh=0 dv=0
PairPos2: "'kern' Horizontal Kerning in Latin lookup 0 per glyph data 3" Ytilde dx=0 dy=0 dh=-50 dv=0 dx=0 dy=0 dh=0 dv=0
PairPos2: "'kern' Horizontal Kerning in Latin lookup 0 per glyph data 3" Ygrave dx=0 dy=0 dh=-50 dv=0 dx=0 dy=0 dh=0 dv=0
PairPos2: "'kern' Horizontal Kerning in Latin lookup 0 per glyph data 3" Udotbelow dx=0 dy=0 dh=-11 dv=0 dx=0 dy=0 dh=0 dv=0
PairPos2: "'kern' Horizontal Kerning in Latin lookup 0 per glyph data 3" Idotbelow dx=0 dy=0 dh=-13 dv=0 dx=0 dy=0 dh=0 dv=0
PairPos2: "'kern' Horizontal Kerning in Latin lookup 0 per glyph data 3" Etilde dx=0 dy=0 dh=-13 dv=0 dx=0 dy=0 dh=0 dv=0
PairPos2: "'kern' Horizontal Kerning in Latin lookup 0 per glyph data 3" Edotbelow dx=0 dy=0 dh=-13 dv=0 dx=0 dy=0 dh=0 dv=0
PairPos2: "'kern' Horizontal Kerning in Latin lookup 0 per glyph data 3" Zdotbelow dx=0 dy=0 dh=-9 dv=0 dx=0 dy=0 dh=0 dv=0
PairPos2: "'kern' Horizontal Kerning in Latin lookup 0 per glyph data 3" Wdieresis dx=0 dy=0 dh=-28 dv=0 dx=0 dy=0 dh=0 dv=0
PairPos2: "'kern' Horizontal Kerning in Latin lookup 0 per glyph data 3" Wacute dx=0 dy=0 dh=-28 dv=0 dx=0 dy=0 dh=0 dv=0
PairPos2: "'kern' Horizontal Kerning in Latin lookup 0 per glyph data 3" Wgrave dx=0 dy=0 dh=-28 dv=0 dx=0 dy=0 dh=0 dv=0
PairPos2: "'kern' Horizontal Kerning in Latin lookup 0 per glyph data 3" Tdotbelow dx=0 dy=0 dh=-14 dv=0 dx=0 dy=0 dh=0 dv=0
PairPos2: "'kern' Horizontal Kerning in Latin lookup 0 per glyph data 3" Rdotbelow dx=0 dy=0 dh=-13 dv=0 dx=0 dy=0 dh=0 dv=0
PairPos2: "'kern' Horizontal Kerning in Latin lookup 0 per glyph data 3" Ndotaccent dx=0 dy=0 dh=-19 dv=0 dx=0 dy=0 dh=0 dv=0
PairPos2: "'kern' Horizontal Kerning in Latin lookup 0 per glyph data 3" Hdotbelow dx=0 dy=0 dh=-13 dv=0 dx=0 dy=0 dh=0 dv=0
PairPos2: "'kern' Horizontal Kerning in Latin lookup 0 per glyph data 3" Ddotbelow dx=0 dy=0 dh=-13 dv=0 dx=0 dy=0 dh=0 dv=0
PairPos2: "'kern' Horizontal Kerning in Latin lookup 0 per glyph data 3" uni021A dx=0 dy=0 dh=-14 dv=0 dx=0 dy=0 dh=0 dv=0
PairPos2: "'kern' Horizontal Kerning in Latin lookup 0 per glyph data 3" AEacute dx=0 dy=0 dh=-16 dv=0 dx=0 dy=0 dh=0 dv=0
PairPos2: "'kern' Horizontal Kerning in Latin lookup 0 per glyph data 3" Aringacute dx=0 dy=0 dh=5 dv=0 dx=0 dy=0 dh=0 dv=0
PairPos2: "'kern' Horizontal Kerning in Latin lookup 0 per glyph data 3" Zcaron dx=0 dy=0 dh=-9 dv=0 dx=0 dy=0 dh=0 dv=0
PairPos2: "'kern' Horizontal Kerning in Latin lookup 0 per glyph data 3" Zdotaccent dx=0 dy=0 dh=-9 dv=0 dx=0 dy=0 dh=0 dv=0
PairPos2: "'kern' Horizontal Kerning in Latin lookup 0 per glyph data 3" Zacute dx=0 dy=0 dh=-9 dv=0 dx=0 dy=0 dh=0 dv=0
PairPos2: "'kern' Horizontal Kerning in Latin lookup 0 per glyph data 3" Ydieresis dx=0 dy=0 dh=-50 dv=0 dx=0 dy=0 dh=0 dv=0
PairPos2: "'kern' Horizontal Kerning in Latin lookup 0 per glyph data 3" Ycircumflex dx=0 dy=0 dh=-50 dv=0 dx=0 dy=0 dh=0 dv=0
PairPos2: "'kern' Horizontal Kerning in Latin lookup 0 per glyph data 3" Wcircumflex dx=0 dy=0 dh=-28 dv=0 dx=0 dy=0 dh=0 dv=0
PairPos2: "'kern' Horizontal Kerning in Latin lookup 0 per glyph data 3" Uogonek dx=0 dy=0 dh=-11 dv=0 dx=0 dy=0 dh=0 dv=0
PairPos2: "'kern' Horizontal Kerning in Latin lookup 0 per glyph data 3" Uhungarumlaut dx=0 dy=0 dh=-11 dv=0 dx=0 dy=0 dh=0 dv=0
PairPos2: "'kern' Horizontal Kerning in Latin lookup 0 per glyph data 3" Uring dx=0 dy=0 dh=-11 dv=0 dx=0 dy=0 dh=0 dv=0
PairPos2: "'kern' Horizontal Kerning in Latin lookup 0 per glyph data 3" Ubreve dx=0 dy=0 dh=-11 dv=0 dx=0 dy=0 dh=0 dv=0
PairPos2: "'kern' Horizontal Kerning in Latin lookup 0 per glyph data 3" Umacron dx=0 dy=0 dh=-11 dv=0 dx=0 dy=0 dh=0 dv=0
PairPos2: "'kern' Horizontal Kerning in Latin lookup 0 per glyph data 3" Utilde dx=0 dy=0 dh=-11 dv=0 dx=0 dy=0 dh=0 dv=0
PairPos2: "'kern' Horizontal Kerning in Latin lookup 0 per glyph data 3" Tbar dx=0 dy=0 dh=-14 dv=0 dx=0 dy=0 dh=0 dv=0
PairPos2: "'kern' Horizontal Kerning in Latin lookup 0 per glyph data 3" Tcaron dx=0 dy=0 dh=-14 dv=0 dx=0 dy=0 dh=0 dv=0
PairPos2: "'kern' Horizontal Kerning in Latin lookup 0 per glyph data 3" uni0162 dx=0 dy=0 dh=-14 dv=0 dx=0 dy=0 dh=0 dv=0
PairPos2: "'kern' Horizontal Kerning in Latin lookup 0 per glyph data 3" Rcaron dx=0 dy=0 dh=-13 dv=0 dx=0 dy=0 dh=0 dv=0
PairPos2: "'kern' Horizontal Kerning in Latin lookup 0 per glyph data 3" Rcommaaccent dx=0 dy=0 dh=-13 dv=0 dx=0 dy=0 dh=0 dv=0
PairPos2: "'kern' Horizontal Kerning in Latin lookup 0 per glyph data 3" Racute dx=0 dy=0 dh=-13 dv=0 dx=0 dy=0 dh=0 dv=0
PairPos2: "'kern' Horizontal Kerning in Latin lookup 0 per glyph data 3" Eng dx=0 dy=0 dh=-19 dv=0 dx=0 dy=0 dh=0 dv=0
PairPos2: "'kern' Horizontal Kerning in Latin lookup 0 per glyph data 3" Ncaron dx=0 dy=0 dh=-19 dv=0 dx=0 dy=0 dh=0 dv=0
PairPos2: "'kern' Horizontal Kerning in Latin lookup 0 per glyph data 3" Ncommaaccent dx=0 dy=0 dh=-19 dv=0 dx=0 dy=0 dh=0 dv=0
PairPos2: "'kern' Horizontal Kerning in Latin lookup 0 per glyph data 3" Nacute dx=0 dy=0 dh=-19 dv=0 dx=0 dy=0 dh=0 dv=0
PairPos2: "'kern' Horizontal Kerning in Latin lookup 0 per glyph data 3" Lslash dx=0 dy=0 dh=-13 dv=0 dx=0 dy=0 dh=0 dv=0
PairPos2: "'kern' Horizontal Kerning in Latin lookup 0 per glyph data 3" Lcaron dx=0 dy=0 dh=-13 dv=0 dx=0 dy=0 dh=0 dv=0
PairPos2: "'kern' Horizontal Kerning in Latin lookup 0 per glyph data 3" Lcommaaccent dx=0 dy=0 dh=-13 dv=0 dx=0 dy=0 dh=0 dv=0
PairPos2: "'kern' Horizontal Kerning in Latin lookup 0 per glyph data 3" Lacute dx=0 dy=0 dh=-13 dv=0 dx=0 dy=0 dh=0 dv=0
PairPos2: "'kern' Horizontal Kerning in Latin lookup 0 per glyph data 3" Kcommaaccent dx=0 dy=0 dh=-13 dv=0 dx=0 dy=0 dh=0 dv=0
PairPos2: "'kern' Horizontal Kerning in Latin lookup 0 per glyph data 3" IJ dx=0 dy=0 dh=-13 dv=0 dx=0 dy=0 dh=0 dv=0
PairPos2: "'kern' Horizontal Kerning in Latin lookup 0 per glyph data 3" Idotaccent dx=0 dy=0 dh=-13 dv=0 dx=0 dy=0 dh=0 dv=0
PairPos2: "'kern' Horizontal Kerning in Latin lookup 0 per glyph data 3" Iogonek dx=0 dy=0 dh=-13 dv=0 dx=0 dy=0 dh=0 dv=0
PairPos2: "'kern' Horizontal Kerning in Latin lookup 0 per glyph data 3" Ibreve dx=0 dy=0 dh=-13 dv=0 dx=0 dy=0 dh=0 dv=0
PairPos2: "'kern' Horizontal Kerning in Latin lookup 0 per glyph data 3" Imacron dx=0 dy=0 dh=-13 dv=0 dx=0 dy=0 dh=0 dv=0
PairPos2: "'kern' Horizontal Kerning in Latin lookup 0 per glyph data 3" Itilde dx=0 dy=0 dh=-13 dv=0 dx=0 dy=0 dh=0 dv=0
PairPos2: "'kern' Horizontal Kerning in Latin lookup 0 per glyph data 3" Hbar dx=0 dy=0 dh=-13 dv=0 dx=0 dy=0 dh=0 dv=0
PairPos2: "'kern' Horizontal Kerning in Latin lookup 0 per glyph data 3" Hcircumflex dx=0 dy=0 dh=-13 dv=0 dx=0 dy=0 dh=0 dv=0
PairPos2: "'kern' Horizontal Kerning in Latin lookup 0 per glyph data 3" Ecaron dx=0 dy=0 dh=-13 dv=0 dx=0 dy=0 dh=0 dv=0
PairPos2: "'kern' Horizontal Kerning in Latin lookup 0 per glyph data 3" Eogonek dx=0 dy=0 dh=-13 dv=0 dx=0 dy=0 dh=0 dv=0
PairPos2: "'kern' Horizontal Kerning in Latin lookup 0 per glyph data 3" Edotaccent dx=0 dy=0 dh=-13 dv=0 dx=0 dy=0 dh=0 dv=0
PairPos2: "'kern' Horizontal Kerning in Latin lookup 0 per glyph data 3" Ebreve dx=0 dy=0 dh=-13 dv=0 dx=0 dy=0 dh=0 dv=0
PairPos2: "'kern' Horizontal Kerning in Latin lookup 0 per glyph data 3" Emacron dx=0 dy=0 dh=-13 dv=0 dx=0 dy=0 dh=0 dv=0
PairPos2: "'kern' Horizontal Kerning in Latin lookup 0 per glyph data 3" Dcroat dx=0 dy=0 dh=-13 dv=0 dx=0 dy=0 dh=0 dv=0
PairPos2: "'kern' Horizontal Kerning in Latin lookup 0 per glyph data 3" Dcaron dx=0 dy=0 dh=-13 dv=0 dx=0 dy=0 dh=0 dv=0
PairPos2: "'kern' Horizontal Kerning in Latin lookup 0 per glyph data 3" Aogonek dx=0 dy=0 dh=5 dv=0 dx=0 dy=0 dh=0 dv=0
PairPos2: "'kern' Horizontal Kerning in Latin lookup 0 per glyph data 3" Abreve dx=0 dy=0 dh=5 dv=0 dx=0 dy=0 dh=0 dv=0
PairPos2: "'kern' Horizontal Kerning in Latin lookup 0 per glyph data 3" Amacron dx=0 dy=0 dh=5 dv=0 dx=0 dy=0 dh=0 dv=0
PairPos2: "'kern' Horizontal Kerning in Latin lookup 0 per glyph data 3" Thorn dx=0 dy=0 dh=-13 dv=0 dx=0 dy=0 dh=0 dv=0
PairPos2: "'kern' Horizontal Kerning in Latin lookup 0 per glyph data 3" Yacute dx=0 dy=0 dh=-50 dv=0 dx=0 dy=0 dh=0 dv=0
PairPos2: "'kern' Horizontal Kerning in Latin lookup 0 per glyph data 3" Udieresis dx=0 dy=0 dh=-11 dv=0 dx=0 dy=0 dh=0 dv=0
PairPos2: "'kern' Horizontal Kerning in Latin lookup 0 per glyph data 3" Ucircumflex dx=0 dy=0 dh=-11 dv=0 dx=0 dy=0 dh=0 dv=0
PairPos2: "'kern' Horizontal Kerning in Latin lookup 0 per glyph data 3" Uacute dx=0 dy=0 dh=-11 dv=0 dx=0 dy=0 dh=0 dv=0
PairPos2: "'kern' Horizontal Kerning in Latin lookup 0 per glyph data 3" Ugrave dx=0 dy=0 dh=-11 dv=0 dx=0 dy=0 dh=0 dv=0
PairPos2: "'kern' Horizontal Kerning in Latin lookup 0 per glyph data 3" Ntilde dx=0 dy=0 dh=-19 dv=0 dx=0 dy=0 dh=0 dv=0
PairPos2: "'kern' Horizontal Kerning in Latin lookup 0 per glyph data 3" Eth dx=0 dy=0 dh=-13 dv=0 dx=0 dy=0 dh=0 dv=0
PairPos2: "'kern' Horizontal Kerning in Latin lookup 0 per glyph data 3" Idieresis dx=0 dy=0 dh=-13 dv=0 dx=0 dy=0 dh=0 dv=0
PairPos2: "'kern' Horizontal Kerning in Latin lookup 0 per glyph data 3" Icircumflex dx=0 dy=0 dh=-13 dv=0 dx=0 dy=0 dh=0 dv=0
PairPos2: "'kern' Horizontal Kerning in Latin lookup 0 per glyph data 3" Iacute dx=0 dy=0 dh=-13 dv=0 dx=0 dy=0 dh=0 dv=0
PairPos2: "'kern' Horizontal Kerning in Latin lookup 0 per glyph data 3" Igrave dx=0 dy=0 dh=-13 dv=0 dx=0 dy=0 dh=0 dv=0
PairPos2: "'kern' Horizontal Kerning in Latin lookup 0 per glyph data 3" Edieresis dx=0 dy=0 dh=-13 dv=0 dx=0 dy=0 dh=0 dv=0
PairPos2: "'kern' Horizontal Kerning in Latin lookup 0 per glyph data 3" Ecircumflex dx=0 dy=0 dh=-13 dv=0 dx=0 dy=0 dh=0 dv=0
PairPos2: "'kern' Horizontal Kerning in Latin lookup 0 per glyph data 3" Eacute dx=0 dy=0 dh=-13 dv=0 dx=0 dy=0 dh=0 dv=0
PairPos2: "'kern' Horizontal Kerning in Latin lookup 0 per glyph data 3" Egrave dx=0 dy=0 dh=-13 dv=0 dx=0 dy=0 dh=0 dv=0
PairPos2: "'kern' Horizontal Kerning in Latin lookup 0 per glyph data 3" AE dx=0 dy=0 dh=-16 dv=0 dx=0 dy=0 dh=0 dv=0
PairPos2: "'kern' Horizontal Kerning in Latin lookup 0 per glyph data 3" Aring dx=0 dy=0 dh=5 dv=0 dx=0 dy=0 dh=0 dv=0
PairPos2: "'kern' Horizontal Kerning in Latin lookup 0 per glyph data 3" Adieresis dx=0 dy=0 dh=5 dv=0 dx=0 dy=0 dh=0 dv=0
PairPos2: "'kern' Horizontal Kerning in Latin lookup 0 per glyph data 3" Atilde dx=0 dy=0 dh=5 dv=0 dx=0 dy=0 dh=0 dv=0
PairPos2: "'kern' Horizontal Kerning in Latin lookup 0 per glyph data 3" Acircumflex dx=0 dy=0 dh=5 dv=0 dx=0 dy=0 dh=0 dv=0
PairPos2: "'kern' Horizontal Kerning in Latin lookup 0 per glyph data 3" Aacute dx=0 dy=0 dh=5 dv=0 dx=0 dy=0 dh=0 dv=0
PairPos2: "'kern' Horizontal Kerning in Latin lookup 0 per glyph data 3" Agrave dx=0 dy=0 dh=5 dv=0 dx=0 dy=0 dh=0 dv=0
PairPos2: "'kern' Horizontal Kerning in Latin lookup 0 per glyph data 3" Z dx=0 dy=0 dh=-9 dv=0 dx=0 dy=0 dh=0 dv=0
PairPos2: "'kern' Horizontal Kerning in Latin lookup 0 per glyph data 3" Y dx=0 dy=0 dh=-50 dv=0 dx=0 dy=0 dh=0 dv=0
PairPos2: "'kern' Horizontal Kerning in Latin lookup 0 per glyph data 3" X dx=0 dy=0 dh=-25 dv=0 dx=0 dy=0 dh=0 dv=0
PairPos2: "'kern' Horizontal Kerning in Latin lookup 0 per glyph data 3" W dx=0 dy=0 dh=-28 dv=0 dx=0 dy=0 dh=0 dv=0
PairPos2: "'kern' Horizontal Kerning in Latin lookup 0 per glyph data 3" V dx=0 dy=0 dh=-29 dv=0 dx=0 dy=0 dh=0 dv=0
PairPos2: "'kern' Horizontal Kerning in Latin lookup 0 per glyph data 3" U dx=0 dy=0 dh=-11 dv=0 dx=0 dy=0 dh=0 dv=0
PairPos2: "'kern' Horizontal Kerning in Latin lookup 0 per glyph data 3" T dx=0 dy=0 dh=-14 dv=0 dx=0 dy=0 dh=0 dv=0
PairPos2: "'kern' Horizontal Kerning in Latin lookup 0 per glyph data 3" R dx=0 dy=0 dh=-13 dv=0 dx=0 dy=0 dh=0 dv=0
PairPos2: "'kern' Horizontal Kerning in Latin lookup 0 per glyph data 3" P dx=0 dy=0 dh=-13 dv=0 dx=0 dy=0 dh=0 dv=0
PairPos2: "'kern' Horizontal Kerning in Latin lookup 0 per glyph data 3" N dx=0 dy=0 dh=-19 dv=0 dx=0 dy=0 dh=0 dv=0
PairPos2: "'kern' Horizontal Kerning in Latin lookup 0 per glyph data 3" M dx=0 dy=0 dh=-13 dv=0 dx=0 dy=0 dh=0 dv=0
PairPos2: "'kern' Horizontal Kerning in Latin lookup 0 per glyph data 3" L dx=0 dy=0 dh=-13 dv=0 dx=0 dy=0 dh=0 dv=0
PairPos2: "'kern' Horizontal Kerning in Latin lookup 0 per glyph data 3" K dx=0 dy=0 dh=-13 dv=0 dx=0 dy=0 dh=0 dv=0
PairPos2: "'kern' Horizontal Kerning in Latin lookup 0 per glyph data 3" I dx=0 dy=0 dh=-13 dv=0 dx=0 dy=0 dh=0 dv=0
PairPos2: "'kern' Horizontal Kerning in Latin lookup 0 per glyph data 3" H dx=0 dy=0 dh=-13 dv=0 dx=0 dy=0 dh=0 dv=0
PairPos2: "'kern' Horizontal Kerning in Latin lookup 0 per glyph data 3" F dx=0 dy=0 dh=-13 dv=0 dx=0 dy=0 dh=0 dv=0
PairPos2: "'kern' Horizontal Kerning in Latin lookup 0 per glyph data 3" E dx=0 dy=0 dh=-13 dv=0 dx=0 dy=0 dh=0 dv=0
PairPos2: "'kern' Horizontal Kerning in Latin lookup 0 per glyph data 3" D dx=0 dy=0 dh=-13 dv=0 dx=0 dy=0 dh=0 dv=0
PairPos2: "'kern' Horizontal Kerning in Latin lookup 0 per glyph data 3" B dx=0 dy=0 dh=-13 dv=0 dx=0 dy=0 dh=0 dv=0
PairPos2: "'kern' Horizontal Kerning in Latin lookup 0 per glyph data 3" A dx=0 dy=0 dh=5 dv=0 dx=0 dy=0 dh=0 dv=0
PairPos2: "'kern' Horizontal Kerning in Latin lookup 0 per glyph data 3" quotesingle dx=0 dy=0 dh=-16 dv=0 dx=0 dy=0 dh=0 dv=0
PairPos2: "'kern' Horizontal Kerning in Latin lookup 0 per glyph data 3" quotedbl dx=0 dy=0 dh=-16 dv=0 dx=0 dy=0 dh=0 dv=0
EndChar

StartChar: A
Encoding: 65 65 35
Width: 688
GlyphClass: 2
Flags: MW
HStem: 0 14<-92 -85 126.5 136 -97 -85 299 307.5 549.5 561> 274 24<245 439 226 445> 684 20G<549 623 623 623>
LayerCount: 2
Fore
SplineSet
493 136 m 2
 486 104 483 80 483 66 c 0
 483 49 490 40 500 31 c 0
 512 21 533 14 566 14 c 1
 561 0 l 1
 294 0 l 1
 299 14 l 1
 316 14 331 16 343 18 c 0
 355 22 363 27 371 34 c 0
 378 43 385 54 390 69 c 0
 395 84 402 105 407 129 c 2
 439 274 l 1
 226 274 l 1
 151 180 l 2
 121 141 99 113 70 79 c 0
 59 66 59 61 59 45 c 0
 59 33 72 25 81 21 c 0
 92 16 114 14 139 14 c 1
 136 0 l 1
 -97 0 l 1
 -92 14 l 1
 -78 14 -63 16 -49 25 c 0
 -36 33 -15 45 3 59 c 0
 19 73 39 89 59 112 c 0
 81 134 104 162 132 195 c 2
 549 704 l 1
 623 704 l 1
 493 136 l 2
445 298 m 1
 468 403 496 525 518 631 c 1
 245 298 l 1
 445 298 l 1
EndSplineSet
Validated: 1
Substitution2: "'sups' Superscript in Latin lookup 19 subtable" A.superior
Substitution2: "Single Substitution lookup 18 subtable" ordfeminine
Substitution2: "'ss01' Style Set 1 in Latin lookup 17 subtable" A.ss01
Substitution2: "'c2sc' Capitals to Small Capitals in Latin lookup 15 subtable" a.sc
EndChar

StartChar: B
Encoding: 66 66 36
Width: 664
GlyphClass: 2
Flags: MW
HStem: 0 14<-22 -13 -22 304 -26 -13> 0 21<247 304> 358 24<261 305 255 328> 674 21<359 391 391 404 149 430> 681 14<149 161>
VStem: 485 105<203.5 221 183.5 265.5> 524 95<531.5 555 524 591.5>
LayerCount: 2
Fore
SplineSet
209 187 m 2x64
 204 161 188 121 188 88 c 0
 188 40 222 21 272 21 c 0
 379 21 438 73 471 146 c 0
 480 167 485 191 485 216 c 0
 485 315 410 358 305 358 c 2
 255 358 l 1
 209 187 l 2x64
-22 14 m 1xa4
 -4 14 15 18 27 24 c 0
 53 37 72 52 83 78 c 0
 89 92 97 112 103 135 c 2
 212 542 l 2
 218 568 222 589 222 604 c 0
 222 625 219 646 208 656 c 0
 195 667 176 681 146 681 c 1
 149 695 l 1xac
 391 695 l 2
 417 695 443 693 470 688 c 0
 497 684 521 675 543 664 c 0
 566 652 584 637 598 616 c 0
 612 596 619 571 619 539 c 0x32
 619 509 613 485 601 465 c 0
 589 445 574 429 555 415 c 0
 536 402 516 392 493 386 c 0
 471 379 449 374 428 371 c 1
 428 367 l 1
 481 356 521 337 549 309 c 0
 577 280 590 243 590 199 c 0
 590 168 583 140 569 116 c 0
 555 92 534 70 509 54 c 0
 484 36 454 23 419 14 c 0xb4
 384 4 346 0 304 0 c 2x64
 -26 0 l 1
 -22 14 l 1xa4
261 382 m 1
 328 382 l 2
 407 382 482 428 509 482 c 0
 519 501 524 520 524 543 c 0
 524 640 481 674 379 674 c 0x32
 339 674 324 642 315 602 c 2
 261 382 l 1
EndSplineSet
Validated: 1
Substitution2: "'sups' Superscript in Latin lookup 8 subtable" B.superior
Substitution2: "'c2sc' Capitals to Small Capitals in Latin lookup 1 subtable" b.sc
PairPos2: "'kern' Horizontal Kerning in Latin lookup 0 per glyph data 2" s_p dx=0 dy=0 dh=-5 dv=0 dx=0 dy=0 dh=0 dv=0
PairPos2: "'kern' Horizontal Kerning in Latin lookup 0 per glyph data 2" c_t dx=0 dy=0 dh=-5 dv=0 dx=0 dy=0 dh=0 dv=0
PairPos2: "'kern' Horizontal Kerning in Latin lookup 0 per glyph data 2" f_f_t dx=0 dy=0 dh=-23 dv=0 dx=0 dy=0 dh=0 dv=0
PairPos2: "'kern' Horizontal Kerning in Latin lookup 0 per glyph data 2" f_t dx=0 dy=0 dh=-23 dv=0 dx=0 dy=0 dh=0 dv=0
PairPos2: "'kern' Horizontal Kerning in Latin lookup 0 per glyph data 2" f_f_j dx=0 dy=0 dh=-23 dv=0 dx=0 dy=0 dh=0 dv=0
PairPos2: "'kern' Horizontal Kerning in Latin lookup 0 per glyph data 2" f_j dx=0 dy=0 dh=-23 dv=0 dx=0 dy=0 dh=0 dv=0
PairPos2: "'kern' Horizontal Kerning in Latin lookup 0 per glyph data 2" f_f_k dx=0 dy=0 dh=-23 dv=0 dx=0 dy=0 dh=0 dv=0
PairPos2: "'kern' Horizontal Kerning in Latin lookup 0 per glyph data 2" f_k dx=0 dy=0 dh=-23 dv=0 dx=0 dy=0 dh=0 dv=0
PairPos2: "'kern' Horizontal Kerning in Latin lookup 0 per glyph data 2" f_f_h dx=0 dy=0 dh=-23 dv=0 dx=0 dy=0 dh=0 dv=0
PairPos2: "'kern' Horizontal Kerning in Latin lookup 0 per glyph data 2" f_h dx=0 dy=0 dh=-23 dv=0 dx=0 dy=0 dh=0 dv=0
PairPos2: "'kern' Horizontal Kerning in Latin lookup 0 per glyph data 2" f_f_b dx=0 dy=0 dh=-23 dv=0 dx=0 dy=0 dh=0 dv=0
PairPos2: "'kern' Horizontal Kerning in Latin lookup 0 per glyph data 2" f_b dx=0 dy=0 dh=-23 dv=0 dx=0 dy=0 dh=0 dv=0
PairPos2: "'kern' Horizontal Kerning in Latin lookup 0 per glyph data 2" W.ss01 dx=0 dy=0 dh=-35 dv=0 dx=0 dy=0 dh=0 dv=0
PairPos2: "'kern' Horizontal Kerning in Latin lookup 0 per glyph data 2" V.ss01 dx=0 dy=0 dh=-39 dv=0 dx=0 dy=0 dh=0 dv=0
PairPos2: "'kern' Horizontal Kerning in Latin lookup 0 per glyph data 2" A.ss01 dx=0 dy=0 dh=-9 dv=0 dx=0 dy=0 dh=0 dv=0
PairPos2: "'kern' Horizontal Kerning in Latin lookup 0 per glyph data 2" s_t dx=0 dy=0 dh=-5 dv=0 dx=0 dy=0 dh=0 dv=0
PairPos2: "'kern' Horizontal Kerning in Latin lookup 0 per glyph data 2" f_f_l dx=0 dy=0 dh=-23 dv=0 dx=0 dy=0 dh=0 dv=0
PairPos2: "'kern' Horizontal Kerning in Latin lookup 0 per glyph data 2" f_f_i dx=0 dy=0 dh=-23 dv=0 dx=0 dy=0 dh=0 dv=0
PairPos2: "'kern' Horizontal Kerning in Latin lookup 0 per glyph data 2" f_l dx=0 dy=0 dh=-23 dv=0 dx=0 dy=0 dh=0 dv=0
PairPos2: "'kern' Horizontal Kerning in Latin lookup 0 per glyph data 2" f_i dx=0 dy=0 dh=-23 dv=0 dx=0 dy=0 dh=0 dv=0
PairPos2: "'kern' Horizontal Kerning in Latin lookup 0 per glyph data 2" f_f dx=0 dy=0 dh=-23 dv=0 dx=0 dy=0 dh=0 dv=0
PairPos2: "'kern' Horizontal Kerning in Latin lookup 0 per glyph data 2" trademark dx=0 dy=0 dh=-18 dv=0 dx=0 dy=0 dh=0 dv=0
PairPos2: "'kern' Horizontal Kerning in Latin lookup 0 per glyph data 2" servicemark dx=0 dy=0 dh=-9 dv=0 dx=0 dy=0 dh=0 dv=0
PairPos2: "'kern' Horizontal Kerning in Latin lookup 0 per glyph data 2" quotedblright dx=0 dy=0 dh=-12 dv=0 dx=0 dy=0 dh=0 dv=0
PairPos2: "'kern' Horizontal Kerning in Latin lookup 0 per glyph data 2" quotedblleft dx=0 dy=0 dh=-10 dv=0 dx=0 dy=0 dh=0 dv=0
PairPos2: "'kern' Horizontal Kerning in Latin lookup 0 per glyph data 2" quoteright dx=0 dy=0 dh=-12 dv=0 dx=0 dy=0 dh=0 dv=0
PairPos2: "'kern' Horizontal Kerning in Latin lookup 0 per glyph data 2" quoteleft dx=0 dy=0 dh=-10 dv=0 dx=0 dy=0 dh=0 dv=0
PairPos2: "'kern' Horizontal Kerning in Latin lookup 0 per glyph data 2" ytilde dx=0 dy=0 dh=-30 dv=0 dx=0 dy=0 dh=0 dv=0
PairPos2: "'kern' Horizontal Kerning in Latin lookup 0 per glyph data 2" Ytilde dx=0 dy=0 dh=-45 dv=0 dx=0 dy=0 dh=0 dv=0
PairPos2: "'kern' Horizontal Kerning in Latin lookup 0 per glyph data 2" ygrave dx=0 dy=0 dh=-30 dv=0 dx=0 dy=0 dh=0 dv=0
PairPos2: "'kern' Horizontal Kerning in Latin lookup 0 per glyph data 2" Ygrave dx=0 dy=0 dh=-45 dv=0 dx=0 dy=0 dh=0 dv=0
PairPos2: "'kern' Horizontal Kerning in Latin lookup 0 per glyph data 2" udotbelow dx=0 dy=0 dh=-14 dv=0 dx=0 dy=0 dh=0 dv=0
PairPos2: "'kern' Horizontal Kerning in Latin lookup 0 per glyph data 2" Udotbelow dx=0 dy=0 dh=-14 dv=0 dx=0 dy=0 dh=0 dv=0
PairPos2: "'kern' Horizontal Kerning in Latin lookup 0 per glyph data 2" odotbelow dx=0 dy=0 dh=-7 dv=0 dx=0 dy=0 dh=0 dv=0
PairPos2: "'kern' Horizontal Kerning in Latin lookup 0 per glyph data 2" Odotbelow dx=0 dy=0 dh=-5 dv=0 dx=0 dy=0 dh=0 dv=0
PairPos2: "'kern' Horizontal Kerning in Latin lookup 0 per glyph data 2" idotbelow dx=0 dy=0 dh=-21 dv=0 dx=0 dy=0 dh=0 dv=0
PairPos2: "'kern' Horizontal Kerning in Latin lookup 0 per glyph data 2" Idotbelow dx=0 dy=0 dh=-5 dv=0 dx=0 dy=0 dh=0 dv=0
PairPos2: "'kern' Horizontal Kerning in Latin lookup 0 per glyph data 2" etilde dx=0 dy=0 dh=-5 dv=0 dx=0 dy=0 dh=0 dv=0
PairPos2: "'kern' Horizontal Kerning in Latin lookup 0 per glyph data 2" Etilde dx=0 dy=0 dh=-5 dv=0 dx=0 dy=0 dh=0 dv=0
PairPos2: "'kern' Horizontal Kerning in Latin lookup 0 per glyph data 2" edotbelow dx=0 dy=0 dh=-5 dv=0 dx=0 dy=0 dh=0 dv=0
PairPos2: "'kern' Horizontal Kerning in Latin lookup 0 per glyph data 2" Edotbelow dx=0 dy=0 dh=-5 dv=0 dx=0 dy=0 dh=0 dv=0
PairPos2: "'kern' Horizontal Kerning in Latin lookup 0 per glyph data 2" zdotbelow dx=0 dy=0 dh=-16 dv=0 dx=0 dy=0 dh=0 dv=0
PairPos2: "'kern' Horizontal Kerning in Latin lookup 0 per glyph data 2" Zdotbelow dx=0 dy=0 dh=-5 dv=0 dx=0 dy=0 dh=0 dv=0
PairPos2: "'kern' Horizontal Kerning in Latin lookup 0 per glyph data 2" wdieresis dx=0 dy=0 dh=-34 dv=0 dx=0 dy=0 dh=0 dv=0
PairPos2: "'kern' Horizontal Kerning in Latin lookup 0 per glyph data 2" Wdieresis dx=0 dy=0 dh=-26 dv=0 dx=0 dy=0 dh=0 dv=0
PairPos2: "'kern' Horizontal Kerning in Latin lookup 0 per glyph data 2" wacute dx=0 dy=0 dh=-34 dv=0 dx=0 dy=0 dh=0 dv=0
PairPos2: "'kern' Horizontal Kerning in Latin lookup 0 per glyph data 2" Wacute dx=0 dy=0 dh=-26 dv=0 dx=0 dy=0 dh=0 dv=0
PairPos2: "'kern' Horizontal Kerning in Latin lookup 0 per glyph data 2" wgrave dx=0 dy=0 dh=-34 dv=0 dx=0 dy=0 dh=0 dv=0
PairPos2: "'kern' Horizontal Kerning in Latin lookup 0 per glyph data 2" Wgrave dx=0 dy=0 dh=-26 dv=0 dx=0 dy=0 dh=0 dv=0
PairPos2: "'kern' Horizontal Kerning in Latin lookup 0 per glyph data 2" tdotbelow dx=0 dy=0 dh=-16 dv=0 dx=0 dy=0 dh=0 dv=0
PairPos2: "'kern' Horizontal Kerning in Latin lookup 0 per glyph data 2" Tdotbelow dx=0 dy=0 dh=-13 dv=0 dx=0 dy=0 dh=0 dv=0
PairPos2: "'kern' Horizontal Kerning in Latin lookup 0 per glyph data 2" sdotbelow dx=0 dy=0 dh=-5 dv=0 dx=0 dy=0 dh=0 dv=0
PairPos2: "'kern' Horizontal Kerning in Latin lookup 0 per glyph data 2" rdotbelow dx=0 dy=0 dh=-18 dv=0 dx=0 dy=0 dh=0 dv=0
PairPos2: "'kern' Horizontal Kerning in Latin lookup 0 per glyph data 2" Rdotbelow dx=0 dy=0 dh=-5 dv=0 dx=0 dy=0 dh=0 dv=0
PairPos2: "'kern' Horizontal Kerning in Latin lookup 0 per glyph data 2" ndotaccent dx=0 dy=0 dh=-13 dv=0 dx=0 dy=0 dh=0 dv=0
PairPos2: "'kern' Horizontal Kerning in Latin lookup 0 per glyph data 2" Ndotaccent dx=0 dy=0 dh=-5 dv=0 dx=0 dy=0 dh=0 dv=0
PairPos2: "'kern' Horizontal Kerning in Latin lookup 0 per glyph data 2" hdotbelow dx=0 dy=0 dh=-11 dv=0 dx=0 dy=0 dh=0 dv=0
PairPos2: "'kern' Horizontal Kerning in Latin lookup 0 per glyph data 2" Hdotbelow dx=0 dy=0 dh=-5 dv=0 dx=0 dy=0 dh=0 dv=0
PairPos2: "'kern' Horizontal Kerning in Latin lookup 0 per glyph data 2" ddotbelow dx=0 dy=0 dh=-5 dv=0 dx=0 dy=0 dh=0 dv=0
PairPos2: "'kern' Horizontal Kerning in Latin lookup 0 per glyph data 2" Ddotbelow dx=0 dy=0 dh=-5 dv=0 dx=0 dy=0 dh=0 dv=0
PairPos2: "'kern' Horizontal Kerning in Latin lookup 0 per glyph data 2" schwa dx=0 dy=0 dh=-7 dv=0 dx=0 dy=0 dh=0 dv=0
PairPos2: "'kern' Horizontal Kerning in Latin lookup 0 per glyph data 2" dotlessj dx=0 dy=0 dh=-14 dv=0 dx=0 dy=0 dh=0 dv=0
PairPos2: "'kern' Horizontal Kerning in Latin lookup 0 per glyph data 2" uni021B dx=0 dy=0 dh=-16 dv=0 dx=0 dy=0 dh=0 dv=0
PairPos2: "'kern' Horizontal Kerning in Latin lookup 0 per glyph data 2" uni021A dx=0 dy=0 dh=-13 dv=0 dx=0 dy=0 dh=0 dv=0
PairPos2: "'kern' Horizontal Kerning in Latin lookup 0 per glyph data 2" uni0219 dx=0 dy=0 dh=-5 dv=0 dx=0 dy=0 dh=0 dv=0
PairPos2: "'kern' Horizontal Kerning in Latin lookup 0 per glyph data 2" oslashacute dx=0 dy=0 dh=-7 dv=0 dx=0 dy=0 dh=0 dv=0
PairPos2: "'kern' Horizontal Kerning in Latin lookup 0 per glyph data 2" Oslashacute dx=0 dy=0 dh=-5 dv=0 dx=0 dy=0 dh=0 dv=0
PairPos2: "'kern' Horizontal Kerning in Latin lookup 0 per glyph data 2" aeacute dx=0 dy=0 dh=-5 dv=0 dx=0 dy=0 dh=0 dv=0
PairPos2: "'kern' Horizontal Kerning in Latin lookup 0 per glyph data 2" aringacute dx=0 dy=0 dh=-5 dv=0 dx=0 dy=0 dh=0 dv=0
PairPos2: "'kern' Horizontal Kerning in Latin lookup 0 per glyph data 2" Aringacute dx=0 dy=0 dh=-13 dv=0 dx=0 dy=0 dh=0 dv=0
PairPos2: "'kern' Horizontal Kerning in Latin lookup 0 per glyph data 2" uni01F3 dx=0 dy=0 dh=-5 dv=0 dx=0 dy=0 dh=0 dv=0
PairPos2: "'kern' Horizontal Kerning in Latin lookup 0 per glyph data 2" uni01C6 dx=0 dy=0 dh=-5 dv=0 dx=0 dy=0 dh=0 dv=0
PairPos2: "'kern' Horizontal Kerning in Latin lookup 0 per glyph data 2" zcaron dx=0 dy=0 dh=-16 dv=0 dx=0 dy=0 dh=0 dv=0
PairPos2: "'kern' Horizontal Kerning in Latin lookup 0 per glyph data 2" Zcaron dx=0 dy=0 dh=-5 dv=0 dx=0 dy=0 dh=0 dv=0
PairPos2: "'kern' Horizontal Kerning in Latin lookup 0 per glyph data 2" zdotaccent dx=0 dy=0 dh=-16 dv=0 dx=0 dy=0 dh=0 dv=0
PairPos2: "'kern' Horizontal Kerning in Latin lookup 0 per glyph data 2" Zdotaccent dx=0 dy=0 dh=-5 dv=0 dx=0 dy=0 dh=0 dv=0
PairPos2: "'kern' Horizontal Kerning in Latin lookup 0 per glyph data 2" zacute dx=0 dy=0 dh=-16 dv=0 dx=0 dy=0 dh=0 dv=0
PairPos2: "'kern' Horizontal Kerning in Latin lookup 0 per glyph data 2" Zacute dx=0 dy=0 dh=-5 dv=0 dx=0 dy=0 dh=0 dv=0
PairPos2: "'kern' Horizontal Kerning in Latin lookup 0 per glyph data 2" Ydieresis dx=0 dy=0 dh=-45 dv=0 dx=0 dy=0 dh=0 dv=0
PairPos2: "'kern' Horizontal Kerning in Latin lookup 0 per glyph data 2" ycircumflex dx=0 dy=0 dh=-30 dv=0 dx=0 dy=0 dh=0 dv=0
PairPos2: "'kern' Horizontal Kerning in Latin lookup 0 per glyph data 2" Ycircumflex dx=0 dy=0 dh=-45 dv=0 dx=0 dy=0 dh=0 dv=0
PairPos2: "'kern' Horizontal Kerning in Latin lookup 0 per glyph data 2" wcircumflex dx=0 dy=0 dh=-34 dv=0 dx=0 dy=0 dh=0 dv=0
PairPos2: "'kern' Horizontal Kerning in Latin lookup 0 per glyph data 2" Wcircumflex dx=0 dy=0 dh=-26 dv=0 dx=0 dy=0 dh=0 dv=0
PairPos2: "'kern' Horizontal Kerning in Latin lookup 0 per glyph data 2" uogonek dx=0 dy=0 dh=-14 dv=0 dx=0 dy=0 dh=0 dv=0
PairPos2: "'kern' Horizontal Kerning in Latin lookup 0 per glyph data 2" Uogonek dx=0 dy=0 dh=-14 dv=0 dx=0 dy=0 dh=0 dv=0
PairPos2: "'kern' Horizontal Kerning in Latin lookup 0 per glyph data 2" uhungarumlaut dx=0 dy=0 dh=-14 dv=0 dx=0 dy=0 dh=0 dv=0
PairPos2: "'kern' Horizontal Kerning in Latin lookup 0 per glyph data 2" Uhungarumlaut dx=0 dy=0 dh=-14 dv=0 dx=0 dy=0 dh=0 dv=0
PairPos2: "'kern' Horizontal Kerning in Latin lookup 0 per glyph data 2" uring dx=0 dy=0 dh=-14 dv=0 dx=0 dy=0 dh=0 dv=0
PairPos2: "'kern' Horizontal Kerning in Latin lookup 0 per glyph data 2" Uring dx=0 dy=0 dh=-14 dv=0 dx=0 dy=0 dh=0 dv=0
PairPos2: "'kern' Horizontal Kerning in Latin lookup 0 per glyph data 2" ubreve dx=0 dy=0 dh=-14 dv=0 dx=0 dy=0 dh=0 dv=0
PairPos2: "'kern' Horizontal Kerning in Latin lookup 0 per glyph data 2" Ubreve dx=0 dy=0 dh=-14 dv=0 dx=0 dy=0 dh=0 dv=0
PairPos2: "'kern' Horizontal Kerning in Latin lookup 0 per glyph data 2" umacron dx=0 dy=0 dh=-14 dv=0 dx=0 dy=0 dh=0 dv=0
PairPos2: "'kern' Horizontal Kerning in Latin lookup 0 per glyph data 2" Umacron dx=0 dy=0 dh=-14 dv=0 dx=0 dy=0 dh=0 dv=0
PairPos2: "'kern' Horizontal Kerning in Latin lookup 0 per glyph data 2" utilde dx=0 dy=0 dh=-14 dv=0 dx=0 dy=0 dh=0 dv=0
PairPos2: "'kern' Horizontal Kerning in Latin lookup 0 per glyph data 2" Utilde dx=0 dy=0 dh=-14 dv=0 dx=0 dy=0 dh=0 dv=0
PairPos2: "'kern' Horizontal Kerning in Latin lookup 0 per glyph data 2" tbar dx=0 dy=0 dh=-16 dv=0 dx=0 dy=0 dh=0 dv=0
PairPos2: "'kern' Horizontal Kerning in Latin lookup 0 per glyph data 2" Tbar dx=0 dy=0 dh=-13 dv=0 dx=0 dy=0 dh=0 dv=0
PairPos2: "'kern' Horizontal Kerning in Latin lookup 0 per glyph data 2" tcaron dx=0 dy=0 dh=-16 dv=0 dx=0 dy=0 dh=0 dv=0
PairPos2: "'kern' Horizontal Kerning in Latin lookup 0 per glyph data 2" Tcaron dx=0 dy=0 dh=-13 dv=0 dx=0 dy=0 dh=0 dv=0
PairPos2: "'kern' Horizontal Kerning in Latin lookup 0 per glyph data 2" uni0163 dx=0 dy=0 dh=-16 dv=0 dx=0 dy=0 dh=0 dv=0
PairPos2: "'kern' Horizontal Kerning in Latin lookup 0 per glyph data 2" uni0162 dx=0 dy=0 dh=-13 dv=0 dx=0 dy=0 dh=0 dv=0
PairPos2: "'kern' Horizontal Kerning in Latin lookup 0 per glyph data 2" scaron dx=0 dy=0 dh=-5 dv=0 dx=0 dy=0 dh=0 dv=0
PairPos2: "'kern' Horizontal Kerning in Latin lookup 0 per glyph data 2" uni015F dx=0 dy=0 dh=-5 dv=0 dx=0 dy=0 dh=0 dv=0
PairPos2: "'kern' Horizontal Kerning in Latin lookup 0 per glyph data 2" scircumflex dx=0 dy=0 dh=-5 dv=0 dx=0 dy=0 dh=0 dv=0
PairPos2: "'kern' Horizontal Kerning in Latin lookup 0 per glyph data 2" sacute dx=0 dy=0 dh=-5 dv=0 dx=0 dy=0 dh=0 dv=0
PairPos2: "'kern' Horizontal Kerning in Latin lookup 0 per glyph data 2" rcaron dx=0 dy=0 dh=-18 dv=0 dx=0 dy=0 dh=0 dv=0
PairPos2: "'kern' Horizontal Kerning in Latin lookup 0 per glyph data 2" Rcaron dx=0 dy=0 dh=-5 dv=0 dx=0 dy=0 dh=0 dv=0
PairPos2: "'kern' Horizontal Kerning in Latin lookup 0 per glyph data 2" rcommaaccent dx=0 dy=0 dh=-18 dv=0 dx=0 dy=0 dh=0 dv=0
PairPos2: "'kern' Horizontal Kerning in Latin lookup 0 per glyph data 2" Rcommaaccent dx=0 dy=0 dh=-5 dv=0 dx=0 dy=0 dh=0 dv=0
PairPos2: "'kern' Horizontal Kerning in Latin lookup 0 per glyph data 2" racute dx=0 dy=0 dh=-18 dv=0 dx=0 dy=0 dh=0 dv=0
PairPos2: "'kern' Horizontal Kerning in Latin lookup 0 per glyph data 2" Racute dx=0 dy=0 dh=-5 dv=0 dx=0 dy=0 dh=0 dv=0
PairPos2: "'kern' Horizontal Kerning in Latin lookup 0 per glyph data 2" oe dx=0 dy=0 dh=-7 dv=0 dx=0 dy=0 dh=0 dv=0
PairPos2: "'kern' Horizontal Kerning in Latin lookup 0 per glyph data 2" OE dx=0 dy=0 dh=-5 dv=0 dx=0 dy=0 dh=0 dv=0
PairPos2: "'kern' Horizontal Kerning in Latin lookup 0 per glyph data 2" ohungarumlaut dx=0 dy=0 dh=-7 dv=0 dx=0 dy=0 dh=0 dv=0
PairPos2: "'kern' Horizontal Kerning in Latin lookup 0 per glyph data 2" Ohungarumlaut dx=0 dy=0 dh=-5 dv=0 dx=0 dy=0 dh=0 dv=0
PairPos2: "'kern' Horizontal Kerning in Latin lookup 0 per glyph data 2" obreve dx=0 dy=0 dh=-7 dv=0 dx=0 dy=0 dh=0 dv=0
PairPos2: "'kern' Horizontal Kerning in Latin lookup 0 per glyph data 2" Obreve dx=0 dy=0 dh=-5 dv=0 dx=0 dy=0 dh=0 dv=0
PairPos2: "'kern' Horizontal Kerning in Latin lookup 0 per glyph data 2" omacron dx=0 dy=0 dh=-7 dv=0 dx=0 dy=0 dh=0 dv=0
PairPos2: "'kern' Horizontal Kerning in Latin lookup 0 per glyph data 2" Omacron dx=0 dy=0 dh=-5 dv=0 dx=0 dy=0 dh=0 dv=0
PairPos2: "'kern' Horizontal Kerning in Latin lookup 0 per glyph data 2" eng dx=0 dy=0 dh=-13 dv=0 dx=0 dy=0 dh=0 dv=0
PairPos2: "'kern' Horizontal Kerning in Latin lookup 0 per glyph data 2" Eng dx=0 dy=0 dh=-5 dv=0 dx=0 dy=0 dh=0 dv=0
PairPos2: "'kern' Horizontal Kerning in Latin lookup 0 per glyph data 2" ncaron dx=0 dy=0 dh=-13 dv=0 dx=0 dy=0 dh=0 dv=0
PairPos2: "'kern' Horizontal Kerning in Latin lookup 0 per glyph data 2" Ncaron dx=0 dy=0 dh=-5 dv=0 dx=0 dy=0 dh=0 dv=0
PairPos2: "'kern' Horizontal Kerning in Latin lookup 0 per glyph data 2" ncommaaccent dx=0 dy=0 dh=-13 dv=0 dx=0 dy=0 dh=0 dv=0
PairPos2: "'kern' Horizontal Kerning in Latin lookup 0 per glyph data 2" Ncommaaccent dx=0 dy=0 dh=-5 dv=0 dx=0 dy=0 dh=0 dv=0
PairPos2: "'kern' Horizontal Kerning in Latin lookup 0 per glyph data 2" nacute dx=0 dy=0 dh=-13 dv=0 dx=0 dy=0 dh=0 dv=0
PairPos2: "'kern' Horizontal Kerning in Latin lookup 0 per glyph data 2" Nacute dx=0 dy=0 dh=-5 dv=0 dx=0 dy=0 dh=0 dv=0
PairPos2: "'kern' Horizontal Kerning in Latin lookup 0 per glyph data 2" lslash dx=0 dy=0 dh=-17 dv=0 dx=0 dy=0 dh=0 dv=0
PairPos2: "'kern' Horizontal Kerning in Latin lookup 0 per glyph data 2" Lslash dx=0 dy=0 dh=-5 dv=0 dx=0 dy=0 dh=0 dv=0
PairPos2: "'kern' Horizontal Kerning in Latin lookup 0 per glyph data 2" ldot dx=0 dy=0 dh=-12 dv=0 dx=0 dy=0 dh=0 dv=0
PairPos2: "'kern' Horizontal Kerning in Latin lookup 0 per glyph data 2" lcaron dx=0 dy=0 dh=-12 dv=0 dx=0 dy=0 dh=0 dv=0
PairPos2: "'kern' Horizontal Kerning in Latin lookup 0 per glyph data 2" Lcaron dx=0 dy=0 dh=-5 dv=0 dx=0 dy=0 dh=0 dv=0
PairPos2: "'kern' Horizontal Kerning in Latin lookup 0 per glyph data 2" lcommaaccent dx=0 dy=0 dh=-12 dv=0 dx=0 dy=0 dh=0 dv=0
PairPos2: "'kern' Horizontal Kerning in Latin lookup 0 per glyph data 2" Lcommaaccent dx=0 dy=0 dh=-5 dv=0 dx=0 dy=0 dh=0 dv=0
PairPos2: "'kern' Horizontal Kerning in Latin lookup 0 per glyph data 2" lacute dx=0 dy=0 dh=-12 dv=0 dx=0 dy=0 dh=0 dv=0
PairPos2: "'kern' Horizontal Kerning in Latin lookup 0 per glyph data 2" Lacute dx=0 dy=0 dh=-5 dv=0 dx=0 dy=0 dh=0 dv=0
PairPos2: "'kern' Horizontal Kerning in Latin lookup 0 per glyph data 2" kcommaaccent dx=0 dy=0 dh=-11 dv=0 dx=0 dy=0 dh=0 dv=0
PairPos2: "'kern' Horizontal Kerning in Latin lookup 0 per glyph data 2" Kcommaaccent dx=0 dy=0 dh=-5 dv=0 dx=0 dy=0 dh=0 dv=0
PairPos2: "'kern' Horizontal Kerning in Latin lookup 0 per glyph data 2" jcircumflex dx=0 dy=0 dh=-14 dv=0 dx=0 dy=0 dh=0 dv=0
PairPos2: "'kern' Horizontal Kerning in Latin lookup 0 per glyph data 2" ij dx=0 dy=0 dh=-21 dv=0 dx=0 dy=0 dh=0 dv=0
PairPos2: "'kern' Horizontal Kerning in Latin lookup 0 per glyph data 2" IJ dx=0 dy=0 dh=-5 dv=0 dx=0 dy=0 dh=0 dv=0
PairPos2: "'kern' Horizontal Kerning in Latin lookup 0 per glyph data 2" dotlessi dx=0 dy=0 dh=-21 dv=0 dx=0 dy=0 dh=0 dv=0
PairPos2: "'kern' Horizontal Kerning in Latin lookup 0 per glyph data 2" Idotaccent dx=0 dy=0 dh=-5 dv=0 dx=0 dy=0 dh=0 dv=0
PairPos2: "'kern' Horizontal Kerning in Latin lookup 0 per glyph data 2" iogonek dx=0 dy=0 dh=-21 dv=0 dx=0 dy=0 dh=0 dv=0
PairPos2: "'kern' Horizontal Kerning in Latin lookup 0 per glyph data 2" Iogonek dx=0 dy=0 dh=-5 dv=0 dx=0 dy=0 dh=0 dv=0
PairPos2: "'kern' Horizontal Kerning in Latin lookup 0 per glyph data 2" ibreve dx=0 dy=0 dh=-21 dv=0 dx=0 dy=0 dh=0 dv=0
PairPos2: "'kern' Horizontal Kerning in Latin lookup 0 per glyph data 2" Ibreve dx=0 dy=0 dh=-5 dv=0 dx=0 dy=0 dh=0 dv=0
PairPos2: "'kern' Horizontal Kerning in Latin lookup 0 per glyph data 2" imacron dx=0 dy=0 dh=-21 dv=0 dx=0 dy=0 dh=0 dv=0
PairPos2: "'kern' Horizontal Kerning in Latin lookup 0 per glyph data 2" Imacron dx=0 dy=0 dh=-5 dv=0 dx=0 dy=0 dh=0 dv=0
PairPos2: "'kern' Horizontal Kerning in Latin lookup 0 per glyph data 2" itilde dx=0 dy=0 dh=-21 dv=0 dx=0 dy=0 dh=0 dv=0
PairPos2: "'kern' Horizontal Kerning in Latin lookup 0 per glyph data 2" Itilde dx=0 dy=0 dh=-5 dv=0 dx=0 dy=0 dh=0 dv=0
PairPos2: "'kern' Horizontal Kerning in Latin lookup 0 per glyph data 2" hbar dx=0 dy=0 dh=-11 dv=0 dx=0 dy=0 dh=0 dv=0
PairPos2: "'kern' Horizontal Kerning in Latin lookup 0 per glyph data 2" Hbar dx=0 dy=0 dh=-5 dv=0 dx=0 dy=0 dh=0 dv=0
PairPos2: "'kern' Horizontal Kerning in Latin lookup 0 per glyph data 2" hcircumflex dx=0 dy=0 dh=-11 dv=0 dx=0 dy=0 dh=0 dv=0
PairPos2: "'kern' Horizontal Kerning in Latin lookup 0 per glyph data 2" Hcircumflex dx=0 dy=0 dh=-5 dv=0 dx=0 dy=0 dh=0 dv=0
PairPos2: "'kern' Horizontal Kerning in Latin lookup 0 per glyph data 2" gcommaaccent dx=0 dy=0 dh=-16 dv=0 dx=0 dy=0 dh=0 dv=0
PairPos2: "'kern' Horizontal Kerning in Latin lookup 0 per glyph data 2" Gcommaaccent dx=0 dy=0 dh=-5 dv=0 dx=0 dy=0 dh=0 dv=0
PairPos2: "'kern' Horizontal Kerning in Latin lookup 0 per glyph data 2" gdotaccent dx=0 dy=0 dh=-16 dv=0 dx=0 dy=0 dh=0 dv=0
PairPos2: "'kern' Horizontal Kerning in Latin lookup 0 per glyph data 2" Gdotaccent dx=0 dy=0 dh=-5 dv=0 dx=0 dy=0 dh=0 dv=0
PairPos2: "'kern' Horizontal Kerning in Latin lookup 0 per glyph data 2" gbreve dx=0 dy=0 dh=-16 dv=0 dx=0 dy=0 dh=0 dv=0
PairPos2: "'kern' Horizontal Kerning in Latin lookup 0 per glyph data 2" Gbreve dx=0 dy=0 dh=-5 dv=0 dx=0 dy=0 dh=0 dv=0
PairPos2: "'kern' Horizontal Kerning in Latin lookup 0 per glyph data 2" gcircumflex dx=0 dy=0 dh=-16 dv=0 dx=0 dy=0 dh=0 dv=0
PairPos2: "'kern' Horizontal Kerning in Latin lookup 0 per glyph data 2" Gcircumflex dx=0 dy=0 dh=-5 dv=0 dx=0 dy=0 dh=0 dv=0
PairPos2: "'kern' Horizontal Kerning in Latin lookup 0 per glyph data 2" ecaron dx=0 dy=0 dh=-5 dv=0 dx=0 dy=0 dh=0 dv=0
PairPos2: "'kern' Horizontal Kerning in Latin lookup 0 per glyph data 2" Ecaron dx=0 dy=0 dh=-5 dv=0 dx=0 dy=0 dh=0 dv=0
PairPos2: "'kern' Horizontal Kerning in Latin lookup 0 per glyph data 2" eogonek dx=0 dy=0 dh=-5 dv=0 dx=0 dy=0 dh=0 dv=0
PairPos2: "'kern' Horizontal Kerning in Latin lookup 0 per glyph data 2" Eogonek dx=0 dy=0 dh=-5 dv=0 dx=0 dy=0 dh=0 dv=0
PairPos2: "'kern' Horizontal Kerning in Latin lookup 0 per glyph data 2" edotaccent dx=0 dy=0 dh=-5 dv=0 dx=0 dy=0 dh=0 dv=0
PairPos2: "'kern' Horizontal Kerning in Latin lookup 0 per glyph data 2" Edotaccent dx=0 dy=0 dh=-5 dv=0 dx=0 dy=0 dh=0 dv=0
PairPos2: "'kern' Horizontal Kerning in Latin lookup 0 per glyph data 2" ebreve dx=0 dy=0 dh=-5 dv=0 dx=0 dy=0 dh=0 dv=0
PairPos2: "'kern' Horizontal Kerning in Latin lookup 0 per glyph data 2" Ebreve dx=0 dy=0 dh=-5 dv=0 dx=0 dy=0 dh=0 dv=0
PairPos2: "'kern' Horizontal Kerning in Latin lookup 0 per glyph data 2" emacron dx=0 dy=0 dh=-5 dv=0 dx=0 dy=0 dh=0 dv=0
PairPos2: "'kern' Horizontal Kerning in Latin lookup 0 per glyph data 2" Emacron dx=0 dy=0 dh=-5 dv=0 dx=0 dy=0 dh=0 dv=0
PairPos2: "'kern' Horizontal Kerning in Latin lookup 0 per glyph data 2" dcroat dx=0 dy=0 dh=-5 dv=0 dx=0 dy=0 dh=0 dv=0
PairPos2: "'kern' Horizontal Kerning in Latin lookup 0 per glyph data 2" Dcroat dx=0 dy=0 dh=-5 dv=0 dx=0 dy=0 dh=0 dv=0
PairPos2: "'kern' Horizontal Kerning in Latin lookup 0 per glyph data 2" dcaron dx=0 dy=0 dh=-5 dv=0 dx=0 dy=0 dh=0 dv=0
PairPos2: "'kern' Horizontal Kerning in Latin lookup 0 per glyph data 2" Dcaron dx=0 dy=0 dh=-5 dv=0 dx=0 dy=0 dh=0 dv=0
PairPos2: "'kern' Horizontal Kerning in Latin lookup 0 per glyph data 2" ccaron dx=0 dy=0 dh=-5 dv=0 dx=0 dy=0 dh=0 dv=0
PairPos2: "'kern' Horizontal Kerning in Latin lookup 0 per glyph data 2" Ccaron dx=0 dy=0 dh=-5 dv=0 dx=0 dy=0 dh=0 dv=0
PairPos2: "'kern' Horizontal Kerning in Latin lookup 0 per glyph data 2" cdotaccent dx=0 dy=0 dh=-5 dv=0 dx=0 dy=0 dh=0 dv=0
PairPos2: "'kern' Horizontal Kerning in Latin lookup 0 per glyph data 2" Cdotaccent dx=0 dy=0 dh=-5 dv=0 dx=0 dy=0 dh=0 dv=0
PairPos2: "'kern' Horizontal Kerning in Latin lookup 0 per glyph data 2" ccircumflex dx=0 dy=0 dh=-5 dv=0 dx=0 dy=0 dh=0 dv=0
PairPos2: "'kern' Horizontal Kerning in Latin lookup 0 per glyph data 2" Ccircumflex dx=0 dy=0 dh=-5 dv=0 dx=0 dy=0 dh=0 dv=0
PairPos2: "'kern' Horizontal Kerning in Latin lookup 0 per glyph data 2" cacute dx=0 dy=0 dh=-5 dv=0 dx=0 dy=0 dh=0 dv=0
PairPos2: "'kern' Horizontal Kerning in Latin lookup 0 per glyph data 2" Cacute dx=0 dy=0 dh=-5 dv=0 dx=0 dy=0 dh=0 dv=0
PairPos2: "'kern' Horizontal Kerning in Latin lookup 0 per glyph data 2" aogonek dx=0 dy=0 dh=-5 dv=0 dx=0 dy=0 dh=0 dv=0
PairPos2: "'kern' Horizontal Kerning in Latin lookup 0 per glyph data 2" Aogonek dx=0 dy=0 dh=-13 dv=0 dx=0 dy=0 dh=0 dv=0
PairPos2: "'kern' Horizontal Kerning in Latin lookup 0 per glyph data 2" abreve dx=0 dy=0 dh=-5 dv=0 dx=0 dy=0 dh=0 dv=0
PairPos2: "'kern' Horizontal Kerning in Latin lookup 0 per glyph data 2" Abreve dx=0 dy=0 dh=-13 dv=0 dx=0 dy=0 dh=0 dv=0
PairPos2: "'kern' Horizontal Kerning in Latin lookup 0 per glyph data 2" amacron dx=0 dy=0 dh=-5 dv=0 dx=0 dy=0 dh=0 dv=0
PairPos2: "'kern' Horizontal Kerning in Latin lookup 0 per glyph data 2" Amacron dx=0 dy=0 dh=-13 dv=0 dx=0 dy=0 dh=0 dv=0
PairPos2: "'kern' Horizontal Kerning in Latin lookup 0 per glyph data 2" ydieresis dx=0 dy=0 dh=-30 dv=0 dx=0 dy=0 dh=0 dv=0
PairPos2: "'kern' Horizontal Kerning in Latin lookup 0 per glyph data 2" thorn dx=0 dy=0 dh=-11 dv=0 dx=0 dy=0 dh=0 dv=0
PairPos2: "'kern' Horizontal Kerning in Latin lookup 0 per glyph data 2" yacute dx=0 dy=0 dh=-30 dv=0 dx=0 dy=0 dh=0 dv=0
PairPos2: "'kern' Horizontal Kerning in Latin lookup 0 per glyph data 2" udieresis dx=0 dy=0 dh=-14 dv=0 dx=0 dy=0 dh=0 dv=0
PairPos2: "'kern' Horizontal Kerning in Latin lookup 0 per glyph data 2" ucircumflex dx=0 dy=0 dh=-14 dv=0 dx=0 dy=0 dh=0 dv=0
PairPos2: "'kern' Horizontal Kerning in Latin lookup 0 per glyph data 2" uacute dx=0 dy=0 dh=-14 dv=0 dx=0 dy=0 dh=0 dv=0
PairPos2: "'kern' Horizontal Kerning in Latin lookup 0 per glyph data 2" ugrave dx=0 dy=0 dh=-14 dv=0 dx=0 dy=0 dh=0 dv=0
PairPos2: "'kern' Horizontal Kerning in Latin lookup 0 per glyph data 2" oslash dx=0 dy=0 dh=-7 dv=0 dx=0 dy=0 dh=0 dv=0
PairPos2: "'kern' Horizontal Kerning in Latin lookup 0 per glyph data 2" odieresis dx=0 dy=0 dh=-7 dv=0 dx=0 dy=0 dh=0 dv=0
PairPos2: "'kern' Horizontal Kerning in Latin lookup 0 per glyph data 2" otilde dx=0 dy=0 dh=-7 dv=0 dx=0 dy=0 dh=0 dv=0
PairPos2: "'kern' Horizontal Kerning in Latin lookup 0 per glyph data 2" ocircumflex dx=0 dy=0 dh=-7 dv=0 dx=0 dy=0 dh=0 dv=0
PairPos2: "'kern' Horizontal Kerning in Latin lookup 0 per glyph data 2" oacute dx=0 dy=0 dh=-7 dv=0 dx=0 dy=0 dh=0 dv=0
PairPos2: "'kern' Horizontal Kerning in Latin lookup 0 per glyph data 2" ograve dx=0 dy=0 dh=-7 dv=0 dx=0 dy=0 dh=0 dv=0
PairPos2: "'kern' Horizontal Kerning in Latin lookup 0 per glyph data 2" ntilde dx=0 dy=0 dh=-13 dv=0 dx=0 dy=0 dh=0 dv=0
PairPos2: "'kern' Horizontal Kerning in Latin lookup 0 per glyph data 2" eth dx=0 dy=0 dh=-7 dv=0 dx=0 dy=0 dh=0 dv=0
PairPos2: "'kern' Horizontal Kerning in Latin lookup 0 per glyph data 2" idieresis dx=0 dy=0 dh=-21 dv=0 dx=0 dy=0 dh=0 dv=0
PairPos2: "'kern' Horizontal Kerning in Latin lookup 0 per glyph data 2" icircumflex dx=0 dy=0 dh=-21 dv=0 dx=0 dy=0 dh=0 dv=0
PairPos2: "'kern' Horizontal Kerning in Latin lookup 0 per glyph data 2" iacute dx=0 dy=0 dh=-21 dv=0 dx=0 dy=0 dh=0 dv=0
PairPos2: "'kern' Horizontal Kerning in Latin lookup 0 per glyph data 2" igrave dx=0 dy=0 dh=-21 dv=0 dx=0 dy=0 dh=0 dv=0
PairPos2: "'kern' Horizontal Kerning in Latin lookup 0 per glyph data 2" edieresis dx=0 dy=0 dh=-5 dv=0 dx=0 dy=0 dh=0 dv=0
PairPos2: "'kern' Horizontal Kerning in Latin lookup 0 per glyph data 2" ecircumflex dx=0 dy=0 dh=-5 dv=0 dx=0 dy=0 dh=0 dv=0
PairPos2: "'kern' Horizontal Kerning in Latin lookup 0 per glyph data 2" eacute dx=0 dy=0 dh=-5 dv=0 dx=0 dy=0 dh=0 dv=0
PairPos2: "'kern' Horizontal Kerning in Latin lookup 0 per glyph data 2" egrave dx=0 dy=0 dh=-5 dv=0 dx=0 dy=0 dh=0 dv=0
PairPos2: "'kern' Horizontal Kerning in Latin lookup 0 per glyph data 2" ccedilla dx=0 dy=0 dh=-5 dv=0 dx=0 dy=0 dh=0 dv=0
PairPos2: "'kern' Horizontal Kerning in Latin lookup 0 per glyph data 2" ae dx=0 dy=0 dh=-5 dv=0 dx=0 dy=0 dh=0 dv=0
PairPos2: "'kern' Horizontal Kerning in Latin lookup 0 per glyph data 2" aring dx=0 dy=0 dh=-5 dv=0 dx=0 dy=0 dh=0 dv=0
PairPos2: "'kern' Horizontal Kerning in Latin lookup 0 per glyph data 2" adieresis dx=0 dy=0 dh=-5 dv=0 dx=0 dy=0 dh=0 dv=0
PairPos2: "'kern' Horizontal Kerning in Latin lookup 0 per glyph data 2" atilde dx=0 dy=0 dh=-5 dv=0 dx=0 dy=0 dh=0 dv=0
PairPos2: "'kern' Horizontal Kerning in Latin lookup 0 per glyph data 2" acircumflex dx=0 dy=0 dh=-5 dv=0 dx=0 dy=0 dh=0 dv=0
PairPos2: "'kern' Horizontal Kerning in Latin lookup 0 per glyph data 2" aacute dx=0 dy=0 dh=-5 dv=0 dx=0 dy=0 dh=0 dv=0
PairPos2: "'kern' Horizontal Kerning in Latin lookup 0 per glyph data 2" agrave dx=0 dy=0 dh=-5 dv=0 dx=0 dy=0 dh=0 dv=0
PairPos2: "'kern' Horizontal Kerning in Latin lookup 0 per glyph data 2" germandbls dx=0 dy=0 dh=-11 dv=0 dx=0 dy=0 dh=0 dv=0
PairPos2: "'kern' Horizontal Kerning in Latin lookup 0 per glyph data 2" Thorn dx=0 dy=0 dh=-5 dv=0 dx=0 dy=0 dh=0 dv=0
PairPos2: "'kern' Horizontal Kerning in Latin lookup 0 per glyph data 2" Yacute dx=0 dy=0 dh=-45 dv=0 dx=0 dy=0 dh=0 dv=0
PairPos2: "'kern' Horizontal Kerning in Latin lookup 0 per glyph data 2" Udieresis dx=0 dy=0 dh=-14 dv=0 dx=0 dy=0 dh=0 dv=0
PairPos2: "'kern' Horizontal Kerning in Latin lookup 0 per glyph data 2" Ucircumflex dx=0 dy=0 dh=-14 dv=0 dx=0 dy=0 dh=0 dv=0
PairPos2: "'kern' Horizontal Kerning in Latin lookup 0 per glyph data 2" Uacute dx=0 dy=0 dh=-14 dv=0 dx=0 dy=0 dh=0 dv=0
PairPos2: "'kern' Horizontal Kerning in Latin lookup 0 per glyph data 2" Ugrave dx=0 dy=0 dh=-14 dv=0 dx=0 dy=0 dh=0 dv=0
PairPos2: "'kern' Horizontal Kerning in Latin lookup 0 per glyph data 2" Oslash dx=0 dy=0 dh=-5 dv=0 dx=0 dy=0 dh=0 dv=0
PairPos2: "'kern' Horizontal Kerning in Latin lookup 0 per glyph data 2" Odieresis dx=0 dy=0 dh=-5 dv=0 dx=0 dy=0 dh=0 dv=0
PairPos2: "'kern' Horizontal Kerning in Latin lookup 0 per glyph data 2" Otilde dx=0 dy=0 dh=-5 dv=0 dx=0 dy=0 dh=0 dv=0
PairPos2: "'kern' Horizontal Kerning in Latin lookup 0 per glyph data 2" Ocircumflex dx=0 dy=0 dh=-5 dv=0 dx=0 dy=0 dh=0 dv=0
PairPos2: "'kern' Horizontal Kerning in Latin lookup 0 per glyph data 2" Oacute dx=0 dy=0 dh=-5 dv=0 dx=0 dy=0 dh=0 dv=0
PairPos2: "'kern' Horizontal Kerning in Latin lookup 0 per glyph data 2" Ograve dx=0 dy=0 dh=-5 dv=0 dx=0 dy=0 dh=0 dv=0
PairPos2: "'kern' Horizontal Kerning in Latin lookup 0 per glyph data 2" Ntilde dx=0 dy=0 dh=-5 dv=0 dx=0 dy=0 dh=0 dv=0
PairPos2: "'kern' Horizontal Kerning in Latin lookup 0 per glyph data 2" Eth dx=0 dy=0 dh=-5 dv=0 dx=0 dy=0 dh=0 dv=0
PairPos2: "'kern' Horizontal Kerning in Latin lookup 0 per glyph data 2" Idieresis dx=0 dy=0 dh=-5 dv=0 dx=0 dy=0 dh=0 dv=0
PairPos2: "'kern' Horizontal Kerning in Latin lookup 0 per glyph data 2" Icircumflex dx=0 dy=0 dh=-5 dv=0 dx=0 dy=0 dh=0 dv=0
PairPos2: "'kern' Horizontal Kerning in Latin lookup 0 per glyph data 2" Iacute dx=0 dy=0 dh=-5 dv=0 dx=0 dy=0 dh=0 dv=0
PairPos2: "'kern' Horizontal Kerning in Latin lookup 0 per glyph data 2" Igrave dx=0 dy=0 dh=-5 dv=0 dx=0 dy=0 dh=0 dv=0
PairPos2: "'kern' Horizontal Kerning in Latin lookup 0 per glyph data 2" Edieresis dx=0 dy=0 dh=-5 dv=0 dx=0 dy=0 dh=0 dv=0
PairPos2: "'kern' Horizontal Kerning in Latin lookup 0 per glyph data 2" Ecircumflex dx=0 dy=0 dh=-5 dv=0 dx=0 dy=0 dh=0 dv=0
PairPos2: "'kern' Horizontal Kerning in Latin lookup 0 per glyph data 2" Eacute dx=0 dy=0 dh=-5 dv=0 dx=0 dy=0 dh=0 dv=0
PairPos2: "'kern' Horizontal Kerning in Latin lookup 0 per glyph data 2" Egrave dx=0 dy=0 dh=-5 dv=0 dx=0 dy=0 dh=0 dv=0
PairPos2: "'kern' Horizontal Kerning in Latin lookup 0 per glyph data 2" Ccedilla dx=0 dy=0 dh=-5 dv=0 dx=0 dy=0 dh=0 dv=0
PairPos2: "'kern' Horizontal Kerning in Latin lookup 0 per glyph data 2" Aring dx=0 dy=0 dh=-13 dv=0 dx=0 dy=0 dh=0 dv=0
PairPos2: "'kern' Horizontal Kerning in Latin lookup 0 per glyph data 2" Adieresis dx=0 dy=0 dh=-13 dv=0 dx=0 dy=0 dh=0 dv=0
PairPos2: "'kern' Horizontal Kerning in Latin lookup 0 per glyph data 2" Atilde dx=0 dy=0 dh=-13 dv=0 dx=0 dy=0 dh=0 dv=0
PairPos2: "'kern' Horizontal Kerning in Latin lookup 0 per glyph data 2" Acircumflex dx=0 dy=0 dh=-13 dv=0 dx=0 dy=0 dh=0 dv=0
PairPos2: "'kern' Horizontal Kerning in Latin lookup 0 per glyph data 2" Aacute dx=0 dy=0 dh=-13 dv=0 dx=0 dy=0 dh=0 dv=0
PairPos2: "'kern' Horizontal Kerning in Latin lookup 0 per glyph data 2" Agrave dx=0 dy=0 dh=-13 dv=0 dx=0 dy=0 dh=0 dv=0
PairPos2: "'kern' Horizontal Kerning in Latin lookup 0 per glyph data 2" ordmasculine dx=0 dy=0 dh=-8 dv=0 dx=0 dy=0 dh=0 dv=0
PairPos2: "'kern' Horizontal Kerning in Latin lookup 0 per glyph data 2" braceright dx=0 dy=0 dh=-10 dv=0 dx=0 dy=0 dh=0 dv=0
PairPos2: "'kern' Horizontal Kerning in Latin lookup 0 per glyph data 2" bar dx=0 dy=0 dh=-9 dv=0 dx=0 dy=0 dh=0 dv=0
PairPos2: "'kern' Horizontal Kerning in Latin lookup 0 per glyph data 2" z dx=0 dy=0 dh=-16 dv=0 dx=0 dy=0 dh=0 dv=0
PairPos2: "'kern' Horizontal Kerning in Latin lookup 0 per glyph data 2" y dx=0 dy=0 dh=-30 dv=0 dx=0 dy=0 dh=0 dv=0
PairPos2: "'kern' Horizontal Kerning in Latin lookup 0 per glyph data 2" w dx=0 dy=0 dh=-34 dv=0 dx=0 dy=0 dh=0 dv=0
PairPos2: "'kern' Horizontal Kerning in Latin lookup 0 per glyph data 2" v dx=0 dy=0 dh=-38 dv=0 dx=0 dy=0 dh=0 dv=0
PairPos2: "'kern' Horizontal Kerning in Latin lookup 0 per glyph data 2" u dx=0 dy=0 dh=-14 dv=0 dx=0 dy=0 dh=0 dv=0
PairPos2: "'kern' Horizontal Kerning in Latin lookup 0 per glyph data 2" t dx=0 dy=0 dh=-16 dv=0 dx=0 dy=0 dh=0 dv=0
PairPos2: "'kern' Horizontal Kerning in Latin lookup 0 per glyph data 2" s dx=0 dy=0 dh=-5 dv=0 dx=0 dy=0 dh=0 dv=0
PairPos2: "'kern' Horizontal Kerning in Latin lookup 0 per glyph data 2" r dx=0 dy=0 dh=-18 dv=0 dx=0 dy=0 dh=0 dv=0
PairPos2: "'kern' Horizontal Kerning in Latin lookup 0 per glyph data 2" q dx=0 dy=0 dh=-5 dv=0 dx=0 dy=0 dh=0 dv=0
PairPos2: "'kern' Horizontal Kerning in Latin lookup 0 per glyph data 2" p dx=0 dy=0 dh=-23 dv=0 dx=0 dy=0 dh=0 dv=0
PairPos2: "'kern' Horizontal Kerning in Latin lookup 0 per glyph data 2" o dx=0 dy=0 dh=-7 dv=0 dx=0 dy=0 dh=0 dv=0
PairPos2: "'kern' Horizontal Kerning in Latin lookup 0 per glyph data 2" n dx=0 dy=0 dh=-13 dv=0 dx=0 dy=0 dh=0 dv=0
PairPos2: "'kern' Horizontal Kerning in Latin lookup 0 per glyph data 2" m dx=0 dy=0 dh=-13 dv=0 dx=0 dy=0 dh=0 dv=0
PairPos2: "'kern' Horizontal Kerning in Latin lookup 0 per glyph data 2" l dx=0 dy=0 dh=-12 dv=0 dx=0 dy=0 dh=0 dv=0
PairPos2: "'kern' Horizontal Kerning in Latin lookup 0 per glyph data 2" k dx=0 dy=0 dh=-11 dv=0 dx=0 dy=0 dh=0 dv=0
PairPos2: "'kern' Horizontal Kerning in Latin lookup 0 per glyph data 2" j dx=0 dy=0 dh=-14 dv=0 dx=0 dy=0 dh=0 dv=0
PairPos2: "'kern' Horizontal Kerning in Latin lookup 0 per glyph data 2" i dx=0 dy=0 dh=-21 dv=0 dx=0 dy=0 dh=0 dv=0
PairPos2: "'kern' Horizontal Kerning in Latin lookup 0 per glyph data 2" h dx=0 dy=0 dh=-11 dv=0 dx=0 dy=0 dh=0 dv=0
PairPos2: "'kern' Horizontal Kerning in Latin lookup 0 per glyph data 2" g dx=0 dy=0 dh=-16 dv=0 dx=0 dy=0 dh=0 dv=0
PairPos2: "'kern' Horizontal Kerning in Latin lookup 0 per glyph data 2" f dx=0 dy=0 dh=-23 dv=0 dx=0 dy=0 dh=0 dv=0
PairPos2: "'kern' Horizontal Kerning in Latin lookup 0 per glyph data 2" e dx=0 dy=0 dh=-5 dv=0 dx=0 dy=0 dh=0 dv=0
PairPos2: "'kern' Horizontal Kerning in Latin lookup 0 per glyph data 2" d dx=0 dy=0 dh=-5 dv=0 dx=0 dy=0 dh=0 dv=0
PairPos2: "'kern' Horizontal Kerning in Latin lookup 0 per glyph data 2" c dx=0 dy=0 dh=-5 dv=0 dx=0 dy=0 dh=0 dv=0
PairPos2: "'kern' Horizontal Kerning in Latin lookup 0 per glyph data 2" b dx=0 dy=0 dh=-11 dv=0 dx=0 dy=0 dh=0 dv=0
PairPos2: "'kern' Horizontal Kerning in Latin lookup 0 per glyph data 2" a dx=0 dy=0 dh=-5 dv=0 dx=0 dy=0 dh=0 dv=0
PairPos2: "'kern' Horizontal Kerning in Latin lookup 0 per glyph data 2" bracketright dx=0 dy=0 dh=-24 dv=0 dx=0 dy=0 dh=0 dv=0
PairPos2: "'kern' Horizontal Kerning in Latin lookup 0 per glyph data 2" Z dx=0 dy=0 dh=-5 dv=0 dx=0 dy=0 dh=0 dv=0
PairPos2: "'kern' Horizontal Kerning in Latin lookup 0 per glyph data 2" Y dx=0 dy=0 dh=-45 dv=0 dx=0 dy=0 dh=0 dv=0
PairPos2: "'kern' Horizontal Kerning in Latin lookup 0 per glyph data 2" X dx=0 dy=0 dh=-23 dv=0 dx=0 dy=0 dh=0 dv=0
PairPos2: "'kern' Horizontal Kerning in Latin lookup 0 per glyph data 2" W dx=0 dy=0 dh=-26 dv=0 dx=0 dy=0 dh=0 dv=0
PairPos2: "'kern' Horizontal Kerning in Latin lookup 0 per glyph data 2" V dx=0 dy=0 dh=-27 dv=0 dx=0 dy=0 dh=0 dv=0
PairPos2: "'kern' Horizontal Kerning in Latin lookup 0 per glyph data 2" U dx=0 dy=0 dh=-14 dv=0 dx=0 dy=0 dh=0 dv=0
PairPos2: "'kern' Horizontal Kerning in Latin lookup 0 per glyph data 2" T dx=0 dy=0 dh=-13 dv=0 dx=0 dy=0 dh=0 dv=0
PairPos2: "'kern' Horizontal Kerning in Latin lookup 0 per glyph data 2" R dx=0 dy=0 dh=-5 dv=0 dx=0 dy=0 dh=0 dv=0
PairPos2: "'kern' Horizontal Kerning in Latin lookup 0 per glyph data 2" P dx=0 dy=0 dh=-5 dv=0 dx=0 dy=0 dh=0 dv=0
PairPos2: "'kern' Horizontal Kerning in Latin lookup 0 per glyph data 2" O dx=0 dy=0 dh=-5 dv=0 dx=0 dy=0 dh=0 dv=0
PairPos2: "'kern' Horizontal Kerning in Latin lookup 0 per glyph data 2" N dx=0 dy=0 dh=-5 dv=0 dx=0 dy=0 dh=0 dv=0
PairPos2: "'kern' Horizontal Kerning in Latin lookup 0 per glyph data 2" M dx=0 dy=0 dh=-5 dv=0 dx=0 dy=0 dh=0 dv=0
PairPos2: "'kern' Horizontal Kerning in Latin lookup 0 per glyph data 2" L dx=0 dy=0 dh=-5 dv=0 dx=0 dy=0 dh=0 dv=0
PairPos2: "'kern' Horizontal Kerning in Latin lookup 0 per glyph data 2" K dx=0 dy=0 dh=-5 dv=0 dx=0 dy=0 dh=0 dv=0
PairPos2: "'kern' Horizontal Kerning in Latin lookup 0 per glyph data 2" I dx=0 dy=0 dh=-5 dv=0 dx=0 dy=0 dh=0 dv=0
PairPos2: "'kern' Horizontal Kerning in Latin lookup 0 per glyph data 2" H dx=0 dy=0 dh=-5 dv=0 dx=0 dy=0 dh=0 dv=0
PairPos2: "'kern' Horizontal Kerning in Latin lookup 0 per glyph data 2" G dx=0 dy=0 dh=-5 dv=0 dx=0 dy=0 dh=0 dv=0
PairPos2: "'kern' Horizontal Kerning in Latin lookup 0 per glyph data 2" F dx=0 dy=0 dh=-5 dv=0 dx=0 dy=0 dh=0 dv=0
PairPos2: "'kern' Horizontal Kerning in Latin lookup 0 per glyph data 2" E dx=0 dy=0 dh=-5 dv=0 dx=0 dy=0 dh=0 dv=0
PairPos2: "'kern' Horizontal Kerning in Latin lookup 0 per glyph data 2" D dx=0 dy=0 dh=-5 dv=0 dx=0 dy=0 dh=0 dv=0
PairPos2: "'kern' Horizontal Kerning in Latin lookup 0 per glyph data 2" C dx=0 dy=0 dh=-5 dv=0 dx=0 dy=0 dh=0 dv=0
PairPos2: "'kern' Horizontal Kerning in Latin lookup 0 per glyph data 2" B dx=0 dy=0 dh=-5 dv=0 dx=0 dy=0 dh=0 dv=0
PairPos2: "'kern' Horizontal Kerning in Latin lookup 0 per glyph data 2" A dx=0 dy=0 dh=-13 dv=0 dx=0 dy=0 dh=0 dv=0
PairPos2: "'kern' Horizontal Kerning in Latin lookup 0 per glyph data 2" question dx=0 dy=0 dh=-10 dv=0 dx=0 dy=0 dh=0 dv=0
PairPos2: "'kern' Horizontal Kerning in Latin lookup 0 per glyph data 2" seven dx=0 dy=0 dh=-9 dv=0 dx=0 dy=0 dh=0 dv=0
PairPos2: "'kern' Horizontal Kerning in Latin lookup 0 per glyph data 2" parenright dx=0 dy=0 dh=-21 dv=0 dx=0 dy=0 dh=0 dv=0
PairPos2: "'kern' Horizontal Kerning in Latin lookup 0 per glyph data 2" quotesingle dx=0 dy=0 dh=-14 dv=0 dx=0 dy=0 dh=0 dv=0
PairPos2: "'kern' Horizontal Kerning in Latin lookup 0 per glyph data 2" quotedbl dx=0 dy=0 dh=-14 dv=0 dx=0 dy=0 dh=0 dv=0
PairPos2: "'kern' Horizontal Kerning in Latin lookup 0 per glyph data 2" Q dx=0 dy=0 dh=-5 dv=0 dx=0 dy=0 dh=0 dv=0
EndChar

StartChar: C
Encoding: 67 67 37
Width: 657
GlyphClass: 2
Flags: MW
HStem: -9 21<308.5 395.5> 675 20G<653 679 679 679> 683 21<391 483.5 391 509.5>
VStem: 66 109<250.5 298 196.5 300.5> 617 20<468 468>
LayerCount: 2
Fore
SplineSet
594 166 m 1xb8
 534 74 462 -9 329 -9 c 0
 288 -9 251 -3 219 11 c 0
 187 24 159 43 137 67 c 0
 114 90 97 120 85 155 c 0
 72 189 66 229 66 272 c 0
 66 329 76 384 97 435 c 0
 118 487 146 533 182 573 c 0
 241 641 333 704 449 704 c 0xb8
 518 704 566 683 612 650 c 1
 653 695 l 1
 679 695 l 1xd8
 637 468 l 1
 617 468 l 1
 609 577 562 683 457 683 c 0
 312 683 231 538 197 422 c 0
 183 375 175 325 175 271 c 0
 175 122 233 12 349 12 c 0
 456 12 528 97 579 177 c 1
 594 166 l 1xb8
EndSplineSet
Validated: 1
Substitution2: "'sups' Superscript in Latin lookup 8 subtable" C.superior
Substitution2: "'c2sc' Capitals to Small Capitals in Latin lookup 1 subtable" c.sc
EndChar

StartChar: D
Encoding: 68 68 38
Width: 754
GlyphClass: 2
Flags: MW
HStem: 0 14<-22 -12.5 -22 290 -26 -12.5> 0 21<246.5 290> 674 21<371.5 394 394 415> 681 14<149 157>
VStem: 615 104<398.5 424 389.5 484.5>
LayerCount: 2
Fore
SplineSet
149 695 m 1x98
 394 695 l 2x28
 436 695 475 690 514 681 c 0
 553 670 589 652 621 626 c 0
 655 598 681 563 696 525 c 0
 711 485 719 445 719 403 c 0
 719 376 716 349 709 321 c 0
 704 294 695 268 684 242 c 0
 672 217 658 193 644 170 c 0
 628 148 612 127 594 109 c 0
 552 67 505 38 454 23 c 0
 403 8 349 0 290 0 c 2x58
 -26 0 l 1
 -22 14 l 1
 -3 14 19 20 32 29 c 0
 54 44 90 77 106 139 c 2
 212 542 l 2
 220 568 232 600 232 628 c 0
 232 644 220 658 205 668 c 0
 189 679 168 681 146 681 c 1
 149 695 l 1x98
212 202 m 2
 204 173 198 152 193 128 c 0
 179 62 213 21 280 21 c 0x68
 467 21 579 173 607 329 c 0
 612 358 615 385 615 412 c 0
 615 557 544 674 392 674 c 0
 351 674 335 665 326 628 c 2
 212 202 l 2
EndSplineSet
Validated: 33
Substitution2: "'sups' Superscript in Latin lookup 8 subtable" D.superior
Substitution2: "'c2sc' Capitals to Small Capitals in Latin lookup 1 subtable" d.sc
EndChar

StartChar: E
Encoding: 69 69 39
Width: 667
GlyphClass: 2
Flags: MW
HStem: 0 14<-21 -11 -21 539 -24 -11> 0 21<296.5 337 296.5 539> 355 24<262 318 318 322 254 318> 674 21<336 453 336 336> 681 14<144 157>
VStem: 389 28<223 223> 614 23<513 695>
LayerCount: 2
Fore
SplineSet
-21 14 m 1xa6
 -1 14 20 20 33 25 c 0
 58 35 76 55 87 81 c 0
 93 94 99 112 104 134 c 2
 214 550 l 2
 219 565 221 578 224 590 c 0
 226 602 227 612 227 620 c 0
 227 640 220 658 206 666 c 0
 193 674 173 681 141 681 c 1
 144 695 l 1
 637 695 l 1xae
 637 513 l 1
 614 513 l 1
 596 579 564 649 504 668 c 0
 490 673 472 674 453 674 c 2
 336 674 l 1
 262 379 l 1
 318 379 l 2
 371 379 400 402 419 439 c 0
 428 453 436 469 446 490 c 1
 471 490 l 1
 417 223 l 1
 389 223 l 1
 391 241 392 256 392 270 c 0
 392 328 380 355 322 355 c 2
 254 355 l 1
 200 146 l 2
 195 126 192 110 192 96 c 0
 192 74 202 47 221 36 c 0
 240 26 273 21 320 21 c 0x76
 354 21 385 24 410 29 c 0
 498 46 549 118 583 190 c 1
 609 190 l 1
 539 0 l 1
 -24 0 l 1
 -21 14 l 1xa6
EndSplineSet
Validated: 1
Substitution2: "'sups' Superscript in Latin lookup 8 subtable" E.superior
Substitution2: "'c2sc' Capitals to Small Capitals in Latin lookup 1 subtable" e.sc
EndChar

